<?xml version="1.0" encoding="UTF-8" standalone="no"?>
<svg width="564px" height="397px" viewBox="0 0 564 397" version="1.1" xmlns="http://www.w3.org/2000/svg" xmlns:xlink="http://www.w3.org/1999/xlink" xmlns:sketch="http://www.bohemiancoding.com/sketch/ns">
    <!-- Generator: Sketch 3.4.2 (15855) - http://www.bohemiancoding.com/sketch -->
    <title>Group</title>
    <desc>Created with Sketch.</desc>
    <defs>
        <path id="path-1" d="M0.617391007,0.307968662 C1.70036918,0.672837818 5.68194934,0.460395515 6.67251614,0.0539931591 C7.66308295,-0.352409196 8.17850995,9.12671289 8.17850995,9.12671289 C8.17850995,9.12671289 6.24617785,10.5490173 5.58351565,10.9344454 C4.92085346,11.3198735 2.5113049,11.4654474 1.50890113,11.0820959 C0.506497366,10.6987445 -0.465587165,-0.056900494 0.617391007,0.307968662 Z"></path>
        <path id="path-3" d="M1.46985992,22.8445056 C2.1941988,23.0841522 4.76448132,22.9915332 5.79533533,22.8445056 C6.82618934,22.6974781 26.2784706,41.2520196 17.8202345,45.3887262 C9.36199846,49.5254329 6.17723265,56.7019544 -0.900855178,56.7019544 C-7.97894301,56.7019544 0.745521054,22.6048591 1.46985992,22.8445056 Z"></path>
    </defs>
    <g id="Page-1" stroke="none" stroke-width="1" fill="none" fill-rule="evenodd" sketch:type="MSPage">
        <g id="Group" sketch:type="MSLayerGroup">
            <path d="M229.867894,221.283759 C278.816367,221.283759 276.590331,182.662575 325.971847,182.662575" id="Path-14" stroke="#ECDCC9" stroke-width="8" sketch:type="MSShapeGroup"></path>
            <path d="M230.293638,222.621552 C279.242112,222.621552 276.130526,261.150474 325.512043,261.150474" id="Path-14-Copy" stroke="#ECDCC9" stroke-width="8" sketch:type="MSShapeGroup"></path>
            <g id="Path-31-+-Path-32" transform="translate(123.500000, 280.719792) scale(-1, -1) rotate(-24.000000) translate(-123.500000, -280.719792) translate(94.000000, 263.719792)" stroke="#ECDCCA" stroke-width="4" stroke-linecap="round" sketch:type="MSShapeGroup">
                <path d="M0.0637904576,33.575 C11.8457545,17.1375437 32.7084376,11.0805474 50.8121861,4.0109375" id="Path-31"></path>
                <path d="M46.0011509,0.570072115 C63.0933735,-0.0978286972 60.9802125,-1.32446505 49.6660156,10.8947115" id="Path-32"></path>
            </g>
            <g id="Path-31-+-Path-32-Copy-2" transform="translate(128.500000, 163.000000) scale(-1, 1) rotate(-26.000000) translate(-128.500000, -163.000000) translate(99.000000, 146.000000)" stroke="#ECDCCA" stroke-width="4" stroke-linecap="round" sketch:type="MSShapeGroup">
                <path d="M0.0637904576,33.575 C11.8457545,17.1375437 32.7084376,11.0805474 50.8121861,4.0109375" id="Path-31"></path>
                <path d="M46.0011509,0.570072115 C63.0933735,-0.0978286972 60.9802125,-1.32446505 49.6660156,10.8947115" id="Path-32"></path>
            </g>
            <g id="Path-31-+-Path-32-Copy-3" transform="translate(401.966734, 124.211448) rotate(-26.000000) translate(-401.966734, -124.211448) translate(372.466734, 107.211448)" stroke="#ECDCCA" stroke-width="4" stroke-linecap="round" sketch:type="MSShapeGroup">
                <path d="M0.0637904576,33.575 C11.8457545,17.1375437 32.7084376,11.0805474 50.8121861,4.0109375" id="Path-31"></path>
                <path d="M46.0011509,0.570072115 C63.0933735,-0.0978286972 60.9802125,-1.32446505 49.6660156,10.8947115" id="Path-32"></path>
            </g>
            <g id="Path-31-+-Path-32-Copy-4" transform="translate(403.966734, 323.211448) scale(1, -1) rotate(-26.000000) translate(-403.966734, -323.211448) translate(374.466734, 306.211448)" stroke="#ECDCCA" stroke-width="4" stroke-linecap="round" sketch:type="MSShapeGroup">
                <path d="M0.0637904576,33.575 C11.8457545,17.1375437 32.7084376,11.0805474 50.8121861,4.0109375" id="Path-31"></path>
                <path d="M46.0011509,0.570072115 C63.0933735,-0.0978286972 60.9802125,-1.32446505 49.6660156,10.8947115" id="Path-32"></path>
            </g>
            <rect id="Rectangle-46-Copy-4" stroke="#7058B7" stroke-width="3" fill="#A48DE9" sketch:type="MSShapeGroup" x="325.582595" y="246.862068" width="116.46428" height="29.2129304" rx="5"></rect>
            <rect id="Rectangle-46-Copy" stroke="#009A71" stroke-width="3" fill="#43D475" sketch:type="MSShapeGroup" x="121.953125" y="207.218104" width="116.46428" height="29.2129304" rx="5"></rect>
            <path d="M134.830394,225.676724 L136.198394,225.676724 L136.198394,220.996724 C136.786394,220.408724 137.206394,220.096724 137.818394,220.096724 C138.598394,220.096724 138.934394,220.552724 138.934394,221.692724 L138.934394,225.676724 L140.314394,225.676724 L140.314394,221.524724 C140.314394,219.844724 139.690394,218.908724 138.286394,218.908724 C137.386394,218.908724 136.726394,219.400724 136.150394,219.952724 L136.198394,218.644724 L136.198394,216.112724 L134.830394,216.112724 L134.830394,225.676724 Z M144.502394,225.832724 C144.982394,225.832724 145.426394,225.712724 145.798394,225.592724 L145.546394,224.572724 C145.354394,224.656724 145.066394,224.728724 144.838394,224.728724 C144.154394,224.728724 143.878394,224.320724 143.878394,223.528724 L143.878394,220.180724 L145.594394,220.180724 L145.594394,219.076724 L143.878394,219.076724 L143.878394,217.252724 L142.714394,217.252724 L142.558394,219.076724 L141.538394,219.148724 L141.538394,220.180724 L142.498394,220.180724 L142.498394,223.516724 C142.498394,224.908724 143.014394,225.832724 144.502394,225.832724 L144.502394,225.832724 Z M148.990394,225.832724 C149.470394,225.832724 149.914394,225.712724 150.286394,225.592724 L150.034394,224.572724 C149.842394,224.656724 149.554394,224.728724 149.326394,224.728724 C148.642394,224.728724 148.366394,224.320724 148.366394,223.528724 L148.366394,220.180724 L150.082394,220.180724 L150.082394,219.076724 L148.366394,219.076724 L148.366394,217.252724 L147.202394,217.252724 L147.046394,219.076724 L146.026394,219.148724 L146.026394,220.180724 L146.986394,220.180724 L146.986394,223.516724 C146.986394,224.908724 147.502394,225.832724 148.990394,225.832724 L148.990394,225.832724 Z M151.522394,228.352724 L152.890394,228.352724 L152.890394,226.216724 L152.854394,225.088724 C153.418394,225.568724 154.006394,225.832724 154.594394,225.832724 C156.082394,225.832724 157.438394,224.536724 157.438394,222.268724 C157.438394,220.240724 156.502394,218.908724 154.822394,218.908724 C154.090394,218.908724 153.370394,219.316724 152.794394,219.796724 L152.758394,219.796724 L152.650394,219.076724 L151.522394,219.076724 L151.522394,228.352724 Z M154.330394,224.692724 C153.922394,224.692724 153.406394,224.536724 152.890394,224.092724 L152.890394,220.864724 C153.454394,220.324724 153.946394,220.060724 154.462394,220.060724 C155.566394,220.060724 156.010394,220.912724 156.010394,222.292724 C156.010394,223.840724 155.290394,224.692724 154.330394,224.692724 L154.330394,224.692724 Z" id="http" fill="#FFFFFF" sketch:type="MSShapeGroup"></path>
            <rect id="Rectangle-46-Copy-7" stroke="#2B97C5" stroke-width="3" fill="#36BDF7" sketch:type="MSShapeGroup" x="325.582595" y="167.925001" width="116.46428" height="29.2129304" rx="5"></rect>
            <path d="M339.75706,187.005173 L341.14906,187.005173 L341.14906,179.337173 L343.75306,179.337173 L343.75306,178.173173 L337.16506,178.173173 L337.16506,179.337173 L339.75706,179.337173 L339.75706,187.005173 Z M345.80506,187.005173 L347.40106,187.005173 L348.20506,183.753173 C348.37306,183.129173 348.49306,182.517173 348.62506,181.833173 L348.68506,181.833173 C348.82906,182.517173 348.94906,183.117173 349.10506,183.741173 L349.94506,187.005173 L351.60106,187.005173 L353.30506,180.405173 L352.00906,180.405173 L351.15706,183.981173 C351.01306,184.617173 350.90506,185.229173 350.77306,185.853173 L350.72506,185.853173 C350.56906,185.229173 350.43706,184.617173 350.28106,183.981173 L349.33306,180.405173 L348.04906,180.405173 L347.12506,183.981173 C346.96906,184.605173 346.83706,185.229173 346.69306,185.853173 L346.64506,185.853173 C346.52506,185.229173 346.41706,184.617173 346.28506,183.981173 L345.40906,180.405173 L344.01706,180.405173 L345.80506,187.005173 Z M354.67306,187.005173 L356.04106,187.005173 L356.04106,180.405173 L354.67306,180.405173 L354.67306,187.005173 Z M355.35706,179.169173 C355.86106,179.169173 356.24506,178.833173 356.24506,178.353173 C356.24506,177.861173 355.86106,177.537173 355.35706,177.537173 C354.85306,177.537173 354.48106,177.861173 354.48106,178.353173 C354.48106,178.833173 354.85306,179.169173 355.35706,179.169173 L355.35706,179.169173 Z M360.33706,187.161173 C360.81706,187.161173 361.26106,187.041173 361.63306,186.921173 L361.38106,185.901173 C361.18906,185.985173 360.90106,186.057173 360.67306,186.057173 C359.98906,186.057173 359.71306,185.649173 359.71306,184.857173 L359.71306,181.509173 L361.42906,181.509173 L361.42906,180.405173 L359.71306,180.405173 L359.71306,178.581173 L358.54906,178.581173 L358.39306,180.405173 L357.37306,180.477173 L357.37306,181.509173 L358.33306,181.509173 L358.33306,184.845173 C358.33306,186.237173 358.84906,187.161173 360.33706,187.161173 L360.33706,187.161173 Z M364.82506,187.161173 C365.30506,187.161173 365.74906,187.041173 366.12106,186.921173 L365.86906,185.901173 C365.67706,185.985173 365.38906,186.057173 365.16106,186.057173 C364.47706,186.057173 364.20106,185.649173 364.20106,184.857173 L364.20106,181.509173 L365.91706,181.509173 L365.91706,180.405173 L364.20106,180.405173 L364.20106,178.581173 L363.03706,178.581173 L362.88106,180.405173 L361.86106,180.477173 L361.86106,181.509173 L362.82106,181.509173 L362.82106,184.845173 C362.82106,186.237173 363.33706,187.161173 364.82506,187.161173 L364.82506,187.161173 Z M369.90106,187.161173 C370.76506,187.161173 371.52106,186.873173 372.13306,186.465173 L371.65306,185.589173 C371.17306,185.901173 370.66906,186.081173 370.08106,186.081173 C368.94106,186.081173 368.14906,185.325173 368.04106,184.065173 L372.32506,184.065173 C372.36106,183.909173 372.38506,183.633173 372.38506,183.369173 C372.38506,181.497173 371.44906,180.237173 369.69706,180.237173 C368.14906,180.237173 366.68506,181.569173 366.68506,183.717173 C366.68506,185.889173 368.11306,187.161173 369.90106,187.161173 L369.90106,187.161173 Z M368.02906,183.117173 C368.16106,181.953173 368.89306,181.317173 369.72106,181.317173 C370.68106,181.317173 371.19706,181.977173 371.19706,183.117173 L368.02906,183.117173 Z M373.93306,187.005173 L375.30106,187.005173 L375.30106,182.889173 C375.72106,181.845173 376.36906,181.473173 376.90906,181.473173 C377.17306,181.473173 377.34106,181.509173 377.56906,181.581173 L377.82106,180.381173 C377.61706,180.285173 377.40106,180.237173 377.07706,180.237173 C376.36906,180.237173 375.67306,180.741173 375.20506,181.593173 L375.16906,181.593173 L375.06106,180.405173 L373.93306,180.405173 L373.93306,187.005173 Z" id="Twitter" fill="#FFFFFF" sketch:type="MSShapeGroup"></path>
            <path d="M338.666257,262.951792 L339.026257,261.763792 C339.314257,260.803792 339.590257,259.831792 339.842257,258.823792 L339.890257,258.823792 C340.166257,259.819792 340.430257,260.803792 340.730257,261.763792 L341.078257,262.951792 L338.666257,262.951792 Z M342.158257,266.563792 L343.634257,266.563792 L340.706257,257.731792 L339.098257,257.731792 L336.170257,266.563792 L337.586257,266.563792 L338.342257,264.043792 L341.414257,264.043792 L342.158257,266.563792 Z M344.678257,266.563792 L346.046257,266.563792 L346.046257,261.883792 C346.598257,261.283792 347.090257,260.983792 347.534257,260.983792 C348.290257,260.983792 348.638257,261.439792 348.638257,262.579792 L348.638257,266.563792 L350.018257,266.563792 L350.018257,261.883792 C350.570257,261.283792 351.050257,260.983792 351.506257,260.983792 C352.250257,260.983792 352.610257,261.439792 352.610257,262.579792 L352.610257,266.563792 L353.990257,266.563792 L353.990257,262.411792 C353.990257,260.731792 353.342257,259.795792 351.962257,259.795792 C351.134257,259.795792 350.462257,260.311792 349.814257,261.007792 C349.526257,260.251792 348.974257,259.795792 347.990257,259.795792 C347.174257,259.795792 346.514257,260.287792 345.950257,260.887792 L345.914257,260.887792 L345.806257,259.963792 L344.678257,259.963792 L344.678257,266.563792 Z M357.542257,266.719792 C358.334257,266.719792 359.042257,266.323792 359.642257,265.807792 L359.678257,265.807792 L359.798257,266.563792 L360.926257,266.563792 L360.926257,262.591792 C360.926257,260.839792 360.170257,259.795792 358.526257,259.795792 C357.470257,259.795792 356.546257,260.227792 355.862257,260.659792 L356.378257,261.595792 C356.942257,261.235792 357.590257,260.923792 358.286257,260.923792 C359.258257,260.923792 359.534257,261.595792 359.546257,262.363792 C356.798257,262.663792 355.598257,263.395792 355.598257,264.811792 C355.598257,265.975792 356.402257,266.719792 357.542257,266.719792 L357.542257,266.719792 Z M357.962257,265.627792 C357.374257,265.627792 356.930257,265.363792 356.930257,264.715792 C356.930257,263.971792 357.590257,263.479792 359.546257,263.239792 L359.546257,264.859792 C359.006257,265.351792 358.538257,265.627792 357.962257,265.627792 L357.962257,265.627792 Z M362.282257,266.563792 L367.382257,266.563792 L367.382257,265.459792 L364.022257,265.459792 L367.274257,260.695792 L367.274257,259.963792 L362.642257,259.963792 L362.642257,261.067792 L365.534257,261.067792 L362.282257,265.819792 L362.282257,266.563792 Z M371.270257,266.719792 C372.902257,266.719792 374.378257,265.459792 374.378257,263.275792 C374.378257,261.067792 372.902257,259.795792 371.270257,259.795792 C369.638257,259.795792 368.162257,261.067792 368.162257,263.275792 C368.162257,265.459792 369.638257,266.719792 371.270257,266.719792 L371.270257,266.719792 Z M371.270257,265.591792 C370.238257,265.591792 369.590257,264.667792 369.590257,263.275792 C369.590257,261.871792 370.238257,260.935792 371.270257,260.935792 C372.314257,260.935792 372.962257,261.871792 372.962257,263.275792 C372.962257,264.667792 372.314257,265.591792 371.270257,265.591792 L371.270257,265.591792 Z M375.998257,266.563792 L377.366257,266.563792 L377.366257,261.883792 C377.954257,261.295792 378.374257,260.983792 378.986257,260.983792 C379.766257,260.983792 380.102257,261.439792 380.102257,262.579792 L380.102257,266.563792 L381.482257,266.563792 L381.482257,262.411792 C381.482257,260.731792 380.858257,259.795792 379.454257,259.795792 C378.554257,259.795792 377.882257,260.287792 377.270257,260.875792 L377.234257,260.875792 L377.126257,259.963792 L375.998257,259.963792 L375.998257,266.563792 Z M388.826257,266.719792 C390.758257,266.719792 391.934257,265.567792 391.934257,264.151792 C391.934257,262.855792 391.178257,262.207792 390.134257,261.763792 L388.922257,261.247792 C388.202257,260.959792 387.494257,260.671792 387.494257,259.915792 C387.494257,259.207792 388.082257,258.775792 388.982257,258.775792 C389.762257,258.775792 390.374257,259.075792 390.926257,259.567792 L391.658257,258.679792 C390.986257,257.995792 390.014257,257.563792 388.982257,257.563792 C387.302257,257.563792 386.078257,258.607792 386.078257,259.999792 C386.078257,261.283792 387.026257,261.955792 387.878257,262.315792 L389.102257,262.843792 C389.918257,263.203792 390.518257,263.455792 390.518257,264.259792 C390.518257,265.003792 389.918257,265.507792 388.850257,265.507792 C387.998257,265.507792 387.134257,265.099792 386.498257,264.463792 L385.682257,265.423792 C386.486257,266.239792 387.614257,266.719792 388.826257,266.719792 L388.826257,266.719792 Z M395.654257,266.719792 C397.274257,266.719792 398.606257,265.783792 398.606257,264.187792 C398.606257,262.999792 397.802257,262.231792 396.782257,261.979792 L396.782257,261.919792 C397.718257,261.571792 398.306257,260.863792 398.306257,259.843792 C398.306257,258.379792 397.190257,257.563792 395.606257,257.563792 C394.586257,257.563792 393.770257,258.007792 393.074257,258.631792 L393.794257,259.495792 C394.298257,259.003792 394.874257,258.667792 395.558257,258.655792 C396.398257,258.667792 396.914257,259.159792 396.914257,259.939792 C396.914257,260.827792 396.338257,261.487792 394.598257,261.487792 L394.598257,262.507792 C396.590257,262.507792 397.214257,263.143792 397.214257,264.127792 C397.214257,265.039792 396.530257,265.591792 395.534257,265.591792 C394.622257,265.591792 393.962257,265.147792 393.446257,264.619792 L392.774257,265.507792 C393.362257,266.167792 394.262257,266.719792 395.654257,266.719792 L395.654257,266.719792 Z" id="Amazon-S3" fill="#FFFFFF" sketch:type="MSShapeGroup"></path>
            <ellipse id="Oval-5-Copy" stroke="#ECDCC9" stroke-width="5" fill="#009A71" sketch:type="MSShapeGroup" cx="274" cy="205.985929" rx="7" ry="6.98592898"></ellipse>
            <ellipse id="Oval-5-Copy-2" stroke="#ECDCC9" stroke-width="5" fill="#21A682" sketch:type="MSShapeGroup" cx="297" cy="254.985929" rx="7" ry="6.98592898"></ellipse>
            <path d="M437.824,115.784 C439.824,115.784 440.784,114.568 441.568,112.456 L444.752,103.224 L442.496,103.224 L441.264,107.384 C441.056,108.216 440.832,109.08 440.624,109.912 L440.544,109.912 C440.288,109.048 440.064,108.184 439.792,107.384 L438.368,103.224 L436,103.224 L439.488,112.024 L439.328,112.552 C439.072,113.336 438.56,113.912 437.648,113.912 C437.44,113.912 437.184,113.848 437.024,113.8 L436.592,115.608 C436.944,115.72 437.296,115.784 437.824,115.784 L437.824,115.784 Z M449.84,112.408 C452.08,112.408 454.144,110.68 454.144,107.72 C454.144,104.728 452.08,103 449.84,103 C447.6,103 445.536,104.728 445.536,107.72 C445.536,110.68 447.6,112.408 449.84,112.408 L449.84,112.408 Z M449.84,110.488 C448.624,110.488 447.936,109.4 447.936,107.72 C447.936,106.024 448.624,104.92 449.84,104.92 C451.056,104.92 451.744,106.024 451.744,107.72 C451.744,109.4 451.056,110.488 449.84,110.488 L449.84,110.488 Z M458.768,112.408 C460,112.408 460.864,111.816 461.632,110.904 L461.696,110.904 L461.872,112.184 L463.792,112.184 L463.792,103.224 L461.44,103.224 L461.44,109.272 C460.832,110.072 460.352,110.392 459.616,110.392 C458.752,110.392 458.368,109.912 458.368,108.52 L458.368,103.224 L456.016,103.224 L456.016,108.824 C456.016,111.064 456.848,112.408 458.768,112.408 L458.768,112.408 Z M466.304,112.184 L468.64,112.184 L468.64,106.84 C469.152,105.544 470,105.08 470.704,105.08 C471.072,105.08 471.328,105.128 471.632,105.224 L472.048,103.192 C471.776,103.08 471.488,103 470.992,103 C470.064,103 469.104,103.64 468.448,104.808 L468.384,104.808 L468.224,103.224 L466.304,103.224 L466.304,112.184 Z M480.656,112.408 C482.896,112.408 484.96,110.68 484.96,107.72 C484.96,104.728 482.896,103 480.656,103 C478.416,103 476.352,104.728 476.352,107.72 C476.352,110.68 478.416,112.408 480.656,112.408 L480.656,112.408 Z M480.656,110.488 C479.44,110.488 478.752,109.4 478.752,107.72 C478.752,106.024 479.44,104.92 480.656,104.92 C481.872,104.92 482.56,106.024 482.56,107.72 C482.56,109.4 481.872,110.488 480.656,110.488 L480.656,110.488 Z M488.288,112.184 L490.976,112.184 L491.888,108.28 C492.08,107.448 492.208,106.616 492.384,105.672 L492.464,105.672 C492.64,106.616 492.784,107.432 492.976,108.28 L493.92,112.184 L496.688,112.184 L498.896,103.224 L496.72,103.224 L495.744,107.656 C495.568,108.52 495.456,109.384 495.296,110.264 L495.216,110.264 C495.024,109.384 494.864,108.52 494.656,107.656 L493.536,103.224 L491.44,103.224 L490.368,107.656 C490.144,108.504 489.984,109.384 489.808,110.264 L489.744,110.264 C489.584,109.384 489.472,108.52 489.296,107.656 L488.32,103.224 L485.968,103.224 L488.288,112.184 Z M500.608,112.184 L502.944,112.184 L502.944,106.024 C503.616,105.368 504.08,105.016 504.816,105.016 C505.696,105.016 506.08,105.512 506.08,106.888 L506.08,112.184 L508.432,112.184 L508.432,106.6 C508.432,104.344 507.6,103 505.664,103 C504.448,103 503.536,103.64 502.752,104.408 L502.688,104.408 L502.528,103.224 L500.608,103.224 L500.608,112.184 Z M517.056,112.408 C519.392,112.408 520.624,111.144 520.624,109.576 C520.624,107.912 519.312,107.32 518.128,106.872 C517.184,106.52 516.304,106.28 516.304,105.624 C516.304,105.112 516.688,104.76 517.488,104.76 C518.16,104.76 518.784,105.08 519.424,105.528 L520.48,104.104 C519.728,103.544 518.736,103 517.424,103 C515.408,103 514.096,104.136 514.096,105.752 C514.096,107.24 515.408,107.928 516.544,108.36 C517.488,108.728 518.416,109.032 518.416,109.704 C518.416,110.264 518.016,110.648 517.12,110.648 C516.288,110.648 515.52,110.296 514.72,109.672 L513.648,111.144 C514.528,111.88 515.856,112.408 517.056,112.408 L517.056,112.408 Z M526.304,112.408 C527.424,112.408 528.56,112.024 529.44,111.416 L528.64,109.976 C528,110.376 527.36,110.6 526.624,110.6 C525.296,110.6 524.336,109.832 524.144,108.36 L529.664,108.36 C529.728,108.152 529.776,107.72 529.776,107.288 C529.776,104.808 528.496,103 526.032,103 C523.888,103 521.856,104.808 521.856,107.72 C521.856,110.664 523.808,112.408 526.304,112.408 L526.304,112.408 Z M524.112,106.808 C524.288,105.496 525.12,104.824 526.064,104.824 C527.216,104.824 527.76,105.592 527.76,106.808 L524.112,106.808 Z M531.712,112.184 L534.048,112.184 L534.048,106.84 C534.56,105.544 535.408,105.08 536.112,105.08 C536.48,105.08 536.736,105.128 537.04,105.224 L537.456,103.192 C537.184,103.08 536.896,103 536.4,103 C535.472,103 534.512,103.64 533.856,104.808 L533.792,104.808 L533.632,103.224 L531.712,103.224 L531.712,112.184 Z M540.928,112.184 L543.648,112.184 L546.64,103.224 L544.384,103.224 L543.072,107.688 C542.832,108.568 542.576,109.496 542.352,110.408 L542.272,110.408 C542.032,109.496 541.776,108.568 541.552,107.688 L540.24,103.224 L537.872,103.224 L540.928,112.184 Z M551.888,112.408 C553.008,112.408 554.144,112.024 555.024,111.416 L554.224,109.976 C553.584,110.376 552.944,110.6 552.208,110.6 C550.88,110.6 549.92,109.832 549.728,108.36 L555.248,108.36 C555.312,108.152 555.36,107.72 555.36,107.288 C555.36,104.808 554.08,103 551.616,103 C549.472,103 547.44,104.808 547.44,107.72 C547.44,110.664 549.392,112.408 551.888,112.408 L551.888,112.408 Z M549.696,106.808 C549.872,105.496 550.704,104.824 551.648,104.824 C552.8,104.824 553.344,105.592 553.344,106.808 L549.696,106.808 Z M557.296,112.184 L559.632,112.184 L559.632,106.84 C560.144,105.544 560.992,105.08 561.696,105.08 C562.064,105.08 562.32,105.128 562.624,105.224 L563.04,103.192 C562.768,103.08 562.48,103 561.984,103 C561.056,103 560.096,103.64 559.44,104.808 L559.376,104.808 L559.216,103.224 L557.296,103.224 L557.296,112.184 Z" id="your-own-server" fill="#B7A794" sketch:type="MSShapeGroup"></path>
            <path d="M4.896,396.992 C6.016,396.992 7.152,396.608 8.032,396 L7.232,394.56 C6.592,394.96 5.952,395.184 5.216,395.184 C3.888,395.184 2.928,394.416 2.736,392.944 L8.256,392.944 C8.32,392.736 8.368,392.304 8.368,391.872 C8.368,389.392 7.088,387.584 4.624,387.584 C2.48,387.584 0.448,389.392 0.448,392.304 C0.448,395.248 2.4,396.992 4.896,396.992 L4.896,396.992 Z M2.704,391.392 C2.88,390.08 3.712,389.408 4.656,389.408 C5.808,389.408 6.352,390.176 6.352,391.392 L2.704,391.392 Z M10.304,396.768 L12.64,396.768 L12.64,390.608 C13.312,389.952 13.776,389.6 14.512,389.6 C15.392,389.6 15.776,390.096 15.776,391.472 L15.776,396.768 L18.128,396.768 L18.128,391.184 C18.128,388.928 17.296,387.584 15.36,387.584 C14.144,387.584 13.232,388.224 12.448,388.992 L12.384,388.992 L12.224,387.808 L10.304,387.808 L10.304,396.768 Z M24.448,396.992 C25.568,396.992 26.704,396.608 27.584,396 L26.784,394.56 C26.144,394.96 25.504,395.184 24.768,395.184 C23.44,395.184 22.48,394.416 22.288,392.944 L27.808,392.944 C27.872,392.736 27.92,392.304 27.92,391.872 C27.92,389.392 26.64,387.584 24.176,387.584 C22.032,387.584 20,389.392 20,392.304 C20,395.248 21.952,396.992 24.448,396.992 L24.448,396.992 Z M22.256,391.392 C22.432,390.08 23.264,389.408 24.208,389.408 C25.36,389.408 25.904,390.176 25.904,391.392 L22.256,391.392 Z M34.352,396.992 C36.32,396.992 38.16,395.216 38.16,392.128 C38.16,389.392 36.832,387.584 34.624,387.584 C33.744,387.584 32.848,388.016 32.144,388.656 L32.192,387.216 L32.192,384 L29.856,384 L29.856,396.768 L31.696,396.768 L31.904,395.824 L31.952,395.824 C32.688,396.576 33.552,396.992 34.352,396.992 L34.352,396.992 Z M33.824,395.056 C33.344,395.056 32.752,394.88 32.192,394.384 L32.192,390.448 C32.816,389.824 33.36,389.52 33.968,389.52 C35.2,389.52 35.744,390.464 35.744,392.176 C35.744,394.128 34.912,395.056 33.824,395.056 L33.824,395.056 Z M42.816,396.992 C44.048,396.992 44.912,396.4 45.68,395.488 L45.744,395.488 L45.92,396.768 L47.84,396.768 L47.84,387.808 L45.488,387.808 L45.488,393.856 C44.88,394.656 44.4,394.976 43.664,394.976 C42.8,394.976 42.416,394.496 42.416,393.104 L42.416,387.808 L40.064,387.808 L40.064,393.408 C40.064,395.648 40.896,396.992 42.816,396.992 L42.816,396.992 Z M52.56,396.992 C53.104,396.992 53.504,396.896 53.776,396.784 L53.488,395.04 C53.328,395.072 53.264,395.072 53.168,395.072 C52.944,395.072 52.688,394.896 52.688,394.368 L52.688,384 L50.352,384 L50.352,394.256 C50.352,395.92 50.928,396.992 52.56,396.992 L52.56,396.992 Z M57.6,396.992 C58.624,396.992 59.52,396.48 60.304,395.808 L60.352,395.808 L60.528,396.768 L62.448,396.768 L62.448,391.536 C62.448,388.944 61.28,387.584 59.008,387.584 C57.6,387.584 56.32,388.112 55.264,388.768 L56.112,390.32 C56.944,389.84 57.744,389.472 58.576,389.472 C59.68,389.472 60.064,390.144 60.096,391.024 C56.496,391.408 54.944,392.416 54.944,394.336 C54.944,395.856 56,396.992 57.6,396.992 L57.6,396.992 Z M58.368,395.152 C57.68,395.152 57.184,394.848 57.184,394.144 C57.184,393.344 57.92,392.752 60.096,392.464 L60.096,394.272 C59.536,394.832 59.04,395.152 58.368,395.152 L58.368,395.152 Z M64.848,396.768 L67.184,396.768 L67.184,391.424 C67.696,390.128 68.544,389.664 69.248,389.664 C69.616,389.664 69.872,389.712 70.176,389.808 L70.592,387.776 C70.32,387.664 70.032,387.584 69.536,387.584 C68.608,387.584 67.648,388.224 66.992,389.392 L66.928,389.392 L66.768,387.808 L64.848,387.808 L64.848,396.768 Z M78.016,396.992 C80.352,396.992 81.584,395.728 81.584,394.16 C81.584,392.496 80.272,391.904 79.088,391.456 C78.144,391.104 77.264,390.864 77.264,390.208 C77.264,389.696 77.648,389.344 78.448,389.344 C79.12,389.344 79.744,389.664 80.384,390.112 L81.44,388.688 C80.688,388.128 79.696,387.584 78.384,387.584 C76.368,387.584 75.056,388.72 75.056,390.336 C75.056,391.824 76.368,392.512 77.504,392.944 C78.448,393.312 79.376,393.616 79.376,394.288 C79.376,394.848 78.976,395.232 78.08,395.232 C77.248,395.232 76.48,394.88 75.68,394.256 L74.608,395.728 C75.488,396.464 76.816,396.992 78.016,396.992 L78.016,396.992 Z M87.264,396.992 C88.384,396.992 89.52,396.608 90.4,396 L89.6,394.56 C88.96,394.96 88.32,395.184 87.584,395.184 C86.256,395.184 85.296,394.416 85.104,392.944 L90.624,392.944 C90.688,392.736 90.736,392.304 90.736,391.872 C90.736,389.392 89.456,387.584 86.992,387.584 C84.848,387.584 82.816,389.392 82.816,392.304 C82.816,395.248 84.768,396.992 87.264,396.992 L87.264,396.992 Z M85.072,391.392 C85.248,390.08 86.08,389.408 87.024,389.408 C88.176,389.408 88.72,390.176 88.72,391.392 L85.072,391.392 Z M92.672,396.768 L95.008,396.768 L95.008,391.424 C95.52,390.128 96.368,389.664 97.072,389.664 C97.44,389.664 97.696,389.712 98,389.808 L98.416,387.776 C98.144,387.664 97.856,387.584 97.36,387.584 C96.432,387.584 95.472,388.224 94.816,389.392 L94.752,389.392 L94.592,387.808 L92.672,387.808 L92.672,396.768 Z M101.888,396.768 L104.608,396.768 L107.6,387.808 L105.344,387.808 L104.032,392.272 C103.792,393.152 103.536,394.08 103.312,394.992 L103.232,394.992 C102.992,394.08 102.736,393.152 102.512,392.272 L101.2,387.808 L98.832,387.808 L101.888,396.768 Z M112.848,396.992 C113.968,396.992 115.104,396.608 115.984,396 L115.184,394.56 C114.544,394.96 113.904,395.184 113.168,395.184 C111.84,395.184 110.88,394.416 110.688,392.944 L116.208,392.944 C116.272,392.736 116.32,392.304 116.32,391.872 C116.32,389.392 115.04,387.584 112.576,387.584 C110.432,387.584 108.4,389.392 108.4,392.304 C108.4,395.248 110.352,396.992 112.848,396.992 L112.848,396.992 Z M110.656,391.392 C110.832,390.08 111.664,389.408 112.608,389.408 C113.76,389.408 114.304,390.176 114.304,391.392 L110.656,391.392 Z M118.256,396.768 L120.592,396.768 L120.592,391.424 C121.104,390.128 121.952,389.664 122.656,389.664 C123.024,389.664 123.28,389.712 123.584,389.808 L124,387.776 C123.728,387.664 123.44,387.584 122.944,387.584 C122.016,387.584 121.056,388.224 120.4,389.392 L120.336,389.392 L120.176,387.808 L118.256,387.808 L118.256,396.768 Z" id="enebular-server" fill="#B7A794" sketch:type="MSShapeGroup"></path>
            <path d="M41.664,123.184 C42.592,123.184 43.488,122.672 44.144,122.032 L44.192,122.032 L44.384,122.96 L46.288,122.96 L46.288,110.192 L43.936,110.192 L43.936,113.344 L44.032,114.752 C43.392,114.16 42.768,113.776 41.76,113.776 C39.824,113.776 38,115.568 38,118.496 C38,121.424 39.44,123.184 41.664,123.184 L41.664,123.184 Z M42.272,121.248 C41.088,121.248 40.416,120.32 40.416,118.464 C40.416,116.672 41.264,115.712 42.272,115.712 C42.832,115.712 43.392,115.888 43.936,116.384 L43.936,120.32 C43.424,120.992 42.896,121.248 42.272,121.248 L42.272,121.248 Z M52.704,123.184 C53.824,123.184 54.96,122.8 55.84,122.192 L55.04,120.752 C54.4,121.152 53.76,121.376 53.024,121.376 C51.696,121.376 50.736,120.608 50.544,119.136 L56.064,119.136 C56.128,118.928 56.176,118.496 56.176,118.064 C56.176,115.584 54.896,113.776 52.432,113.776 C50.288,113.776 48.256,115.584 48.256,118.496 C48.256,121.44 50.208,123.184 52.704,123.184 L52.704,123.184 Z M50.512,117.584 C50.688,116.272 51.52,115.6 52.464,115.6 C53.616,115.6 54.16,116.368 54.16,117.584 L50.512,117.584 Z M60.064,122.96 L62.784,122.96 L65.776,114 L63.52,114 L62.208,118.464 C61.968,119.344 61.712,120.272 61.488,121.184 L61.408,121.184 C61.168,120.272 60.912,119.344 60.688,118.464 L59.376,114 L57.008,114 L60.064,122.96 Z M67.264,122.96 L69.6,122.96 L69.6,114 L67.264,114 L67.264,122.96 Z M68.448,112.56 C69.248,112.56 69.84,112.016 69.84,111.28 C69.84,110.512 69.248,110 68.448,110 C67.632,110 67.04,110.512 67.04,111.28 C67.04,112.016 67.632,112.56 68.448,112.56 L68.448,112.56 Z M75.936,123.184 C76.928,123.184 78.016,122.848 78.864,122.096 L77.936,120.544 C77.44,120.96 76.832,121.264 76.192,121.264 C74.896,121.264 73.968,120.176 73.968,118.496 C73.968,116.8 74.896,115.696 76.256,115.696 C76.768,115.696 77.184,115.904 77.632,116.288 L78.752,114.768 C78.096,114.208 77.248,113.776 76.144,113.776 C73.712,113.776 71.568,115.504 71.568,118.496 C71.568,121.456 73.456,123.184 75.936,123.184 L75.936,123.184 Z M83.968,123.184 C85.088,123.184 86.224,122.8 87.104,122.192 L86.304,120.752 C85.664,121.152 85.024,121.376 84.288,121.376 C82.96,121.376 82,120.608 81.808,119.136 L87.328,119.136 C87.392,118.928 87.44,118.496 87.44,118.064 C87.44,115.584 86.16,113.776 83.696,113.776 C81.552,113.776 79.52,115.584 79.52,118.496 C79.52,121.44 81.472,123.184 83.968,123.184 L83.968,123.184 Z M81.776,117.584 C81.952,116.272 82.784,115.6 83.728,115.6 C84.88,115.6 85.424,116.368 85.424,117.584 L81.776,117.584 Z M91.936,123.184 C94.272,123.184 95.504,121.92 95.504,120.352 C95.504,118.688 94.192,118.096 93.008,117.648 C92.064,117.296 91.184,117.056 91.184,116.4 C91.184,115.888 91.568,115.536 92.368,115.536 C93.04,115.536 93.664,115.856 94.304,116.304 L95.36,114.88 C94.608,114.32 93.616,113.776 92.304,113.776 C90.288,113.776 88.976,114.912 88.976,116.528 C88.976,118.016 90.288,118.704 91.424,119.136 C92.368,119.504 93.296,119.808 93.296,120.48 C93.296,121.04 92.896,121.424 92,121.424 C91.168,121.424 90.4,121.072 89.6,120.448 L88.528,121.92 C89.408,122.656 90.736,123.184 91.936,123.184 L91.936,123.184 Z" id="devices" fill="#B7A794" sketch:type="MSShapeGroup"></path>
            <path d="M438.656,389.992 C439.68,389.992 440.576,389.48 441.36,388.808 L441.408,388.808 L441.584,389.768 L443.504,389.768 L443.504,384.536 C443.504,381.944 442.336,380.584 440.064,380.584 C438.656,380.584 437.376,381.112 436.32,381.768 L437.168,383.32 C438,382.84 438.8,382.472 439.632,382.472 C440.736,382.472 441.12,383.144 441.152,384.024 C437.552,384.408 436,385.416 436,387.336 C436,388.856 437.056,389.992 438.656,389.992 L438.656,389.992 Z M439.424,388.152 C438.736,388.152 438.24,387.848 438.24,387.144 C438.24,386.344 438.976,385.752 441.152,385.464 L441.152,387.272 C440.592,387.832 440.096,388.152 439.424,388.152 L439.424,388.152 Z M445.904,389.768 L448.24,389.768 L448.24,383.608 C448.912,382.952 449.376,382.6 450.112,382.6 C450.992,382.6 451.376,383.096 451.376,384.472 L451.376,389.768 L453.728,389.768 L453.728,384.184 C453.728,381.928 452.896,380.584 450.96,380.584 C449.744,380.584 448.832,381.224 448.048,381.992 L447.984,381.992 L447.824,380.808 L445.904,380.808 L445.904,389.768 Z M459.312,389.992 C460.24,389.992 461.136,389.48 461.792,388.84 L461.84,388.84 L462.032,389.768 L463.936,389.768 L463.936,377 L461.584,377 L461.584,380.152 L461.68,381.56 C461.04,380.968 460.416,380.584 459.408,380.584 C457.472,380.584 455.648,382.376 455.648,385.304 C455.648,388.232 457.088,389.992 459.312,389.992 L459.312,389.992 Z M459.92,388.056 C458.736,388.056 458.064,387.128 458.064,385.272 C458.064,383.48 458.912,382.52 459.92,382.52 C460.48,382.52 461.04,382.696 461.584,383.192 L461.584,387.128 C461.072,387.8 460.544,388.056 459.92,388.056 L459.92,388.056 Z M470.096,389.768 L472.432,389.768 L472.432,383.608 C473.072,382.936 473.648,382.6 474.16,382.6 C475.008,382.6 475.408,383.096 475.408,384.472 L475.408,389.768 L477.76,389.768 L477.76,383.608 C478.4,382.936 478.976,382.6 479.488,382.6 C480.336,382.6 480.736,383.096 480.736,384.472 L480.736,389.768 L483.088,389.768 L483.088,384.184 C483.088,381.928 482.208,380.584 480.304,380.584 C479.136,380.584 478.272,381.288 477.456,382.152 C477.024,381.16 476.272,380.584 474.992,380.584 C473.824,380.584 472.992,381.224 472.24,382.008 L472.176,382.008 L472.016,380.808 L470.096,380.808 L470.096,389.768 Z M489.264,389.992 C491.504,389.992 493.568,388.264 493.568,385.304 C493.568,382.312 491.504,380.584 489.264,380.584 C487.024,380.584 484.96,382.312 484.96,385.304 C484.96,388.264 487.024,389.992 489.264,389.992 L489.264,389.992 Z M489.264,388.072 C488.048,388.072 487.36,386.984 487.36,385.304 C487.36,383.608 488.048,382.504 489.264,382.504 C490.48,382.504 491.168,383.608 491.168,385.304 C491.168,386.984 490.48,388.072 489.264,388.072 L489.264,388.072 Z M495.536,389.768 L497.872,389.768 L497.872,384.424 C498.384,383.128 499.232,382.664 499.936,382.664 C500.304,382.664 500.56,382.712 500.864,382.808 L501.28,380.776 C501.008,380.664 500.72,380.584 500.224,380.584 C499.296,380.584 498.336,381.224 497.68,382.392 L497.616,382.392 L497.456,380.808 L495.536,380.808 L495.536,389.768 Z M506.208,389.992 C507.328,389.992 508.464,389.608 509.344,389 L508.544,387.56 C507.904,387.96 507.264,388.184 506.528,388.184 C505.2,388.184 504.24,387.416 504.048,385.944 L509.568,385.944 C509.632,385.736 509.68,385.304 509.68,384.872 C509.68,382.392 508.4,380.584 505.936,380.584 C503.792,380.584 501.76,382.392 501.76,385.304 C501.76,388.248 503.712,389.992 506.208,389.992 L506.208,389.992 Z M504.016,384.392 C504.192,383.08 505.024,382.408 505.968,382.408 C507.12,382.408 507.664,383.176 507.664,384.392 L504.016,384.392 Z M513.296,389.992 C514.128,389.992 514.752,389.32 514.752,388.456 C514.752,387.592 514.128,386.92 513.296,386.92 C512.464,386.92 511.824,387.592 511.824,388.456 C511.824,389.32 512.464,389.992 513.296,389.992 L513.296,389.992 Z M519.328,389.992 C520.16,389.992 520.8,389.32 520.8,388.456 C520.8,387.592 520.16,386.92 519.328,386.92 C518.496,386.92 517.872,387.592 517.872,388.456 C517.872,389.32 518.496,389.992 519.328,389.992 L519.328,389.992 Z M525.36,389.992 C526.192,389.992 526.832,389.32 526.832,388.456 C526.832,387.592 526.192,386.92 525.36,386.92 C524.528,386.92 523.888,387.592 523.888,388.456 C523.888,389.32 524.528,389.992 525.36,389.992 L525.36,389.992 Z" id="and-more…" fill="#B7A794" sketch:type="MSShapeGroup"></path>
            <g transform="translate(463.000000, 26.000000)" fill="#2B97C5" sketch:type="MSShapeGroup">
                <g id="Shape">
                    <path d="M9.66,8.7739726 L9.66,15.4589041 C9.66,16.3819005 10.4121616,17.130137 11.34,17.130137 C12.2678384,17.130137 13.02,16.3819005 13.02,15.4589041 L13.02,8.7739726 C13.02,7.85097617 12.2678384,7.10273973 11.34,7.10273973 C10.4121616,7.10273973 9.66,7.85097617 9.66,8.7739726 L9.66,8.7739726 Z"></path>
                    <path d="M9.66,35.5136986 L9.66,42.1986301 C9.66,43.1216266 10.4121616,43.869863 11.34,43.869863 C12.2678384,43.869863 13.02,43.1216266 13.02,42.1986301 L13.02,35.5136986 C13.02,34.5907022 12.2678384,33.8424658 11.34,33.8424658 C10.4121616,33.8424658 9.66,34.5907022 9.66,35.5136986 L9.66,35.5136986 Z"></path>
                    <path d="M17.64,8.7739726 L17.64,15.4589041 C17.64,16.3819005 18.3921616,17.130137 19.32,17.130137 C20.2478384,17.130137 21,16.3819005 21,15.4589041 L21,8.7739726 C21,7.85097617 20.2478384,7.10273973 19.32,7.10273973 C18.3921616,7.10273973 17.64,7.85097617 17.64,8.7739726 L17.64,8.7739726 Z"></path>
                    <path d="M17.64,35.5136986 L17.64,42.1986301 C17.64,43.1216266 18.3921616,43.869863 19.32,43.869863 C20.2478384,43.869863 21,43.1216266 21,42.1986301 L21,35.5136986 C21,34.5907022 20.2478384,33.8424658 19.32,33.8424658 C18.3921616,33.8424658 17.64,34.5907022 17.64,35.5136986 L17.64,35.5136986 Z"></path>
                    <path d="M3.36,5.43078505 L3.36,5.43078505 L3.36,18.8020917 C3.36,19.9536249 4.3014722,20.890411 5.46006732,20.890411 L57.5399327,20.890411 C58.7020356,20.890411 59.64,19.9570212 59.64,18.8020917 L59.64,5.43078505 C59.64,4.27925181 58.6985278,3.34246575 57.5399327,3.34246575 L5.46006732,3.34246575 C4.29796441,3.34246575 3.36,4.27585547 3.36,5.43078505 L3.36,5.43078505 Z M0,5.43078505 C0,2.43144529 2.44069703,0 5.46006732,0 L57.5399327,0 C60.5554446,0 63,2.43449271 63,5.43078505 L63,18.8020917 C63,21.8014314 60.559303,24.2328767 57.5399327,24.2328767 L5.46006732,24.2328767 C2.44455541,24.2328767 0,21.798384 0,18.8020917 L0,5.43078505 L0,5.43078505 Z"></path>
                    <path d="M3.36,32.1705111 L3.36,32.1705111 L3.36,45.5418177 C3.36,46.6933509 4.3014722,47.630137 5.46006732,47.630137 L57.5399327,47.630137 C58.7020356,47.630137 59.64,46.6967473 59.64,45.5418177 L59.64,32.1705111 C59.64,31.0189778 58.6985278,30.0821918 57.5399327,30.0821918 L5.46006732,30.0821918 C4.29796441,30.0821918 3.36,31.0155815 3.36,32.1705111 L3.36,32.1705111 Z M0,32.1705111 C0,29.1711713 2.44069703,26.739726 5.46006732,26.739726 L57.5399327,26.739726 C60.5554446,26.739726 63,29.1742187 63,32.1705111 L63,45.5418177 C63,48.5411575 60.559303,50.9726027 57.5399327,50.9726027 L5.46006732,50.9726027 C2.44455541,50.9726027 0,48.53811 0,45.5418177 L0,32.1705111 L0,32.1705111 Z"></path>
                    <path d="M49.98,17.9657534 C53.2274343,17.9657534 55.86,15.3469259 55.86,12.1164384 C55.86,8.88595085 53.2274343,6.26712329 49.98,6.26712329 C46.7325657,6.26712329 44.1,8.88595085 44.1,12.1164384 C44.1,15.3469259 46.7325657,17.9657534 49.98,17.9657534 L49.98,17.9657534 Z M49.98,14.6232877 C48.5882424,14.6232877 47.46,13.500933 47.46,12.1164384 C47.46,10.7319437 48.5882424,9.60958904 49.98,9.60958904 C51.3717576,9.60958904 52.5,10.7319437 52.5,12.1164384 C52.5,13.500933 51.3717576,14.6232877 49.98,14.6232877 L49.98,14.6232877 Z"></path>
                    <path d="M8.4497055,56.8076279 C9.72484796,61.9058286 16.998746,62.3037981 18.5643987,56.8641314 C18.8197945,55.9767902 18.303728,55.0514993 17.4117319,54.7974362 C16.5197358,54.5433732 15.5895909,55.0567466 15.3341951,55.9440878 C14.7410088,58.0050402 12.1765466,57.8647334 11.7102945,56.0005913 C11.4862684,55.1049032 10.5747517,54.5594658 9.6743649,54.7823228 C8.77397811,55.0051798 8.22567942,55.9119398 8.4497055,56.8076279 L8.4497055,56.8076279 Z"></path>
                    <path d="M44.1497055,56.8076279 C45.424848,61.9058286 52.698746,62.3037981 54.2643987,56.8641314 C54.5197945,55.9767902 54.003728,55.0514993 53.1117319,54.7974362 C52.2197358,54.5433732 51.2895909,55.0567466 51.0341951,55.9440878 C50.4410088,58.0050402 47.8765466,57.8647334 47.4102945,56.0005913 C47.1862684,55.1049032 46.2747517,54.5594658 45.3743649,54.7823228 C44.4739781,55.0051798 43.9256794,55.9119398 44.1497055,56.8076279 L44.1497055,56.8076279 Z"></path>
                </g>
                <ellipse id="Oval-11-Copy" cx="49.98" cy="38.8561644" rx="4.2" ry="4.17808219"></ellipse>
            </g>
            <g id="Group-Copy" transform="translate(29.448000, 310.000000)" fill="#80C478" sketch:type="MSShapeGroup">
                <g id="Group">
                    <path d="M9.66,8.7739726 L9.66,15.4589041 C9.66,16.3819005 10.4121616,17.130137 11.34,17.130137 C12.2678384,17.130137 13.02,16.3819005 13.02,15.4589041 L13.02,8.7739726 C13.02,7.85097617 12.2678384,7.10273973 11.34,7.10273973 C10.4121616,7.10273973 9.66,7.85097617 9.66,8.7739726 L9.66,8.7739726 Z" id="Shape"></path>
                    <path d="M9.66,35.5136986 L9.66,42.1986301 C9.66,43.1216266 10.4121616,43.869863 11.34,43.869863 C12.2678384,43.869863 13.02,43.1216266 13.02,42.1986301 L13.02,35.5136986 C13.02,34.5907022 12.2678384,33.8424658 11.34,33.8424658 C10.4121616,33.8424658 9.66,34.5907022 9.66,35.5136986 L9.66,35.5136986 Z" id="Shape"></path>
                    <path d="M17.64,8.7739726 L17.64,15.4589041 C17.64,16.3819005 18.3921616,17.130137 19.32,17.130137 C20.2478384,17.130137 21,16.3819005 21,15.4589041 L21,8.7739726 C21,7.85097617 20.2478384,7.10273973 19.32,7.10273973 C18.3921616,7.10273973 17.64,7.85097617 17.64,8.7739726 L17.64,8.7739726 Z" id="Shape"></path>
                    <path d="M17.64,35.5136986 L17.64,42.1986301 C17.64,43.1216266 18.3921616,43.869863 19.32,43.869863 C20.2478384,43.869863 21,43.1216266 21,42.1986301 L21,35.5136986 C21,34.5907022 20.2478384,33.8424658 19.32,33.8424658 C18.3921616,33.8424658 17.64,34.5907022 17.64,35.5136986 L17.64,35.5136986 Z" id="Shape"></path>
                    <path d="M3.36,5.43078505 L3.36,5.43078505 L3.36,18.8020917 C3.36,19.9536249 4.3014722,20.890411 5.46006732,20.890411 L57.5399327,20.890411 C58.7020356,20.890411 59.64,19.9570212 59.64,18.8020917 L59.64,5.43078505 C59.64,4.27925181 58.6985278,3.34246575 57.5399327,3.34246575 L5.46006732,3.34246575 C4.29796441,3.34246575 3.36,4.27585547 3.36,5.43078505 L3.36,5.43078505 Z M0,5.43078505 C0,2.43144529 2.44069703,0 5.46006732,0 L57.5399327,0 C60.5554446,0 63,2.43449271 63,5.43078505 L63,18.8020917 C63,21.8014314 60.559303,24.2328767 57.5399327,24.2328767 L5.46006732,24.2328767 C2.44455541,24.2328767 0,21.798384 0,18.8020917 L0,5.43078505 L0,5.43078505 Z" id="Shape"></path>
                    <path d="M3.36,32.1705111 L3.36,32.1705111 L3.36,45.5418177 C3.36,46.6933509 4.3014722,47.630137 5.46006732,47.630137 L57.5399327,47.630137 C58.7020356,47.630137 59.64,46.6967473 59.64,45.5418177 L59.64,32.1705111 C59.64,31.0189778 58.6985278,30.0821918 57.5399327,30.0821918 L5.46006732,30.0821918 C4.29796441,30.0821918 3.36,31.0155815 3.36,32.1705111 L3.36,32.1705111 Z M0,32.1705111 C0,29.1711713 2.44069703,26.739726 5.46006732,26.739726 L57.5399327,26.739726 C60.5554446,26.739726 63,29.1742187 63,32.1705111 L63,45.5418177 C63,48.5411575 60.559303,50.9726027 57.5399327,50.9726027 L5.46006732,50.9726027 C2.44455541,50.9726027 0,48.53811 0,45.5418177 L0,32.1705111 L0,32.1705111 Z" id="Shape"></path>
                    <path d="M49.98,17.9657534 C53.2274343,17.9657534 55.86,15.3469259 55.86,12.1164384 C55.86,8.88595085 53.2274343,6.26712329 49.98,6.26712329 C46.7325657,6.26712329 44.1,8.88595085 44.1,12.1164384 C44.1,15.3469259 46.7325657,17.9657534 49.98,17.9657534 L49.98,17.9657534 Z M49.98,14.6232877 C48.5882424,14.6232877 47.46,13.500933 47.46,12.1164384 C47.46,10.7319437 48.5882424,9.60958904 49.98,9.60958904 C51.3717576,9.60958904 52.5,10.7319437 52.5,12.1164384 C52.5,13.500933 51.3717576,14.6232877 49.98,14.6232877 L49.98,14.6232877 Z" id="Shape"></path>
                    <path d="M8.4497055,56.8076279 C9.72484796,61.9058286 16.998746,62.3037981 18.5643987,56.8641314 C18.8197945,55.9767902 18.303728,55.0514993 17.4117319,54.7974362 C16.5197358,54.5433732 15.5895909,55.0567466 15.3341951,55.9440878 C14.7410088,58.0050402 12.1765466,57.8647334 11.7102945,56.0005913 C11.4862684,55.1049032 10.5747517,54.5594658 9.6743649,54.7823228 C8.77397811,55.0051798 8.22567942,55.9119398 8.4497055,56.8076279 L8.4497055,56.8076279 Z" id="Shape"></path>
                    <path d="M44.1497055,56.8076279 C45.424848,61.9058286 52.698746,62.3037981 54.2643987,56.8641314 C54.5197945,55.9767902 54.003728,55.0514993 53.1117319,54.7974362 C52.2197358,54.5433732 51.2895909,55.0567466 51.0341951,55.9440878 C50.4410088,58.0050402 47.8765466,57.8647334 47.4102945,56.0005913 C47.1862684,55.1049032 46.2747517,54.5594658 45.3743649,54.7823228 C44.4739781,55.0051798 43.9256794,55.9119398 44.1497055,56.8076279 L44.1497055,56.8076279 Z" id="Shape"></path>
                </g>
                <ellipse id="Oval-11-Copy" cx="49.98" cy="38.8561644" rx="4.2" ry="4.17808219"></ellipse>
            </g>
            <g id="Oval-13-+-Line-+-Line" transform="translate(450.000000, 320.000000)" stroke="#7058B7" stroke-width="3.4" sketch:type="MSShapeGroup">
                <circle id="Oval-13" cx="21.5" cy="21.5" r="21.5"></circle>
                <path d="M21.2696429,12.2473214 L21.2696429,32.2883929" id="Line" stroke-linecap="round"></path>
                <path d="M30.4507847,22.2678571 L12.088501,22.2678571" id="Line" stroke-linecap="round"></path>
            </g>
            <g transform="translate(31.000000, 0.000000)">
                <path d="M34.0549568,33.731643 C33.0518646,29.5706234 32.5792071,21.7076196 32.9822594,15.0826237 C33.1964217,11.5624233 33.6410134,8.59928878 34.2807887,6.5553025 C34.5900533,5.56724831 34.9315529,4.84153932 35.2616097,4.41922794 C35.3739432,4.27549587 35.4643334,4.19262444 35.5222381,4.15871224 C35.5190782,4.16056283 35.4857683,4.16993321 35.4544741,4.16993321 C35.576243,4.16993321 35.7239114,4.2462711 35.966429,4.51852832 C36.3444123,4.9428631 36.7314407,5.6600442 37.0842255,6.63674191 C37.8183459,8.66918098 38.3356585,11.6208599 38.584677,15.1004163 C39.0656827,21.8215476 38.4741392,29.5848614 37.2027428,33.5944715 L41.0541121,34.8156918 C42.5004618,30.2543311 43.1292738,22.0019108 42.6147195,14.8120016 C42.3414633,10.9937704 41.7642731,7.7004419 40.8842822,5.26415508 C39.7345915,2.08119447 37.9961616,0.129583582 35.4544741,0.129583582 C34.107872,0.129583582 32.9615508,0.800933609 32.0781765,1.93122095 C31.4049097,2.79267348 30.8672029,3.93533555 30.4249092,5.34839797 C29.6711259,7.75662268 29.1816811,11.0186967 28.9493663,14.8372701 C28.5237307,21.8334702 29.0197334,30.0848391 30.1271268,34.6785204 L34.0549568,33.731643 L34.0549568,33.731643 Z" id="Shape" fill="#EFC041" sketch:type="MSShapeGroup"></path>
                <path d="M42.5618888,43.5323523 C46.6669835,44.7441588 53.7128733,48.2663273 59.2487619,51.9278787 C62.1902637,53.873449 64.5341176,55.7400439 65.984374,57.3160986 C66.6854218,58.0779568 67.1431544,58.7365586 67.3438584,59.2335518 C67.4121672,59.4027016 67.4387409,59.5224175 67.4391574,59.5895205 C67.4391347,59.5858587 67.4476746,59.5523262 67.4633217,59.5252247 C67.4024373,59.6306797 67.2624925,59.7203953 66.905452,59.7942931 C66.3489757,59.9094688 65.5343645,59.8860547 64.512127,59.7032265 C62.3849229,59.3227739 59.5700377,58.2949402 56.4321442,56.7708184 C50.370971,53.8268159 43.9435157,49.4328673 41.1067898,46.3270007 L38.1234972,49.0517742 C41.3505767,52.5850301 48.1829763,57.2558074 54.6668975,60.4051449 C58.1102108,62.0776137 61.250912,63.2244166 63.8007937,63.6804655 C67.1321638,64.2762845 69.6915234,63.7465654 70.9623671,61.5453995 C71.6356682,60.3792078 71.6274226,59.0507896 71.0902522,57.7206214 C70.6808458,56.7068289 69.9601248,55.6698302 68.9575238,54.5802613 C67.2488316,52.7233535 64.668515,50.6684448 61.4776909,48.5579676 C55.6316217,44.6912563 48.2377252,40.9951229 43.7057839,39.657313 L42.5618888,43.5323523 L42.5618888,43.5323523 Z" id="Shape" fill="#EFC041" sketch:type="MSShapeGroup"></path>
                <path d="M27.8254495,39.3560764 C23.2935082,40.6938862 15.8996117,44.3900197 10.0535425,48.256731 C6.86271838,50.3672082 4.28240181,52.4221169 2.57370964,54.2790247 C1.57110857,55.3685935 0.850387578,56.4055923 0.440981218,57.4193847 C-0.096189216,58.7495529 -0.104434805,60.0779712 0.568866274,61.2441629 C1.83971,63.4453288 4.39906957,63.9750478 7.73043967,63.3792289 C10.2803214,62.9231799 13.4210226,61.7763771 16.8643359,60.1039083 C23.3482571,56.9545707 30.1806567,52.2837934 33.4077362,48.7505376 L30.4244437,46.025764 C27.5877177,49.1316307 21.1602624,53.5255793 15.0990892,56.4695818 C11.9611957,57.9937036 9.14631048,59.0215372 7.0191064,59.4019899 C5.99686895,59.5848181 5.18225771,59.6082322 4.62578137,59.4930565 C4.26874087,59.4191586 4.12879614,59.329443 4.0679117,59.2239881 C4.08355877,59.2510896 4.09209875,59.2846221 4.09207602,59.2882839 C4.09249253,59.2211809 4.11906619,59.1014649 4.18737503,58.9323152 C4.38807903,58.4353219 4.84581165,57.7767201 5.54685937,57.014862 C6.99711578,55.4388072 9.34096969,53.5722123 12.2824715,51.6266421 C17.8183601,47.9650906 24.8642499,44.4429222 28.9693447,43.2311157 L27.8254495,39.3560764 L27.8254495,39.3560764 Z" id="Shape" fill="#EFC041" sketch:type="MSShapeGroup"></path>
                <path d="M35.8315217,50.0790704 C40.7641421,50.0790704 44.7628209,46.0803916 44.7628209,41.1477713 C44.7628209,36.2151509 40.7641421,32.2164721 35.8315217,32.2164721 C30.8989014,32.2164721 26.9002226,36.2151509 26.9002226,41.1477713 C26.9002226,46.0803916 30.8989014,50.0790704 35.8315217,50.0790704 L35.8315217,50.0790704 Z M35.8315217,46.0387208 C33.1303249,46.0387208 30.9405722,43.8489681 30.9405722,41.1477713 C30.9405722,38.4465744 33.1303249,36.2568217 35.8315217,36.2568217 C38.5327186,36.2568217 40.7224713,38.4465744 40.7224713,41.1477713 C40.7224713,43.8489681 38.5327186,46.0387208 35.8315217,46.0387208 L35.8315217,46.0387208 Z" id="Shape" fill="#EFC041" sketch:type="MSShapeGroup"></path>
                <path d="M13.0717438,41.2383136 C13.0717438,34.4619334 17.4836282,26.5990014 22.7093234,23.0465848 C23.6320217,22.4193364 23.8715312,21.1628564 23.2442828,20.2401581 C22.6170344,19.3174597 21.3605544,19.0779503 20.4378561,19.7051986 C14.134739,23.9900444 9.0313942,33.0853085 9.0313942,41.2383136 C9.0313942,42.3540254 9.93585727,43.2584884 11.051569,43.2584884 C12.1672808,43.2584884 13.0717438,42.3540254 13.0717438,41.2383136 L13.0717438,41.2383136 Z" id="Shape" fill="#EFC041" sketch:type="MSShapeGroup"></path>
                <path d="M48.6734245,23.0578134 C54.2243102,26.9445854 58.1346941,35.0685819 58.0473278,41.3868033 C58.0319016,42.5024084 58.9237728,43.4192905 60.0393779,43.4347167 C61.154983,43.4501429 62.071865,42.5582717 62.0872912,41.4426666 C62.1926705,33.8217688 57.6694247,24.4245243 50.9908738,19.7481527 C50.0769363,19.1082067 48.8172648,19.3303208 48.1773188,20.2442584 C47.5373729,21.1581959 47.7594869,22.4178674 48.6734245,23.0578134 L48.6734245,23.0578134 Z" id="Shape" fill="#EFC041" sketch:type="MSShapeGroup"></path>
                <path d="M46.0773822,61.8260731 C40.1506265,65.1113274 31.1346273,65.0646315 25.4941463,62.2163813 C24.4982095,61.7134672 23.2831508,62.1131411 22.7802367,63.1090779 C22.2773226,64.1050147 22.6769965,65.3200734 23.6729333,65.8229875 C30.4763557,69.2584834 40.9054035,69.3124979 48.0361825,65.3598425 C49.012006,64.8189347 49.3645748,63.5893811 48.8236671,62.6135576 C48.2827593,61.6377342 47.0532056,61.2851653 46.0773822,61.8260731 L46.0773822,61.8260731 Z" id="Shape" fill="#EFC041" sketch:type="MSShapeGroup"></path>
                <g id="Shape-+-Path-62" transform="translate(32.110147, 49.334796)">
                    <mask id="mask-2" sketch:name="Mask" fill="white">
                        <use xlink:href="#path-1"></use>
                    </mask>
                    <use id="Mask" sketch:type="MSShapeGroup" xlink:href="#path-1"></use>
                    <path d="M1.48854986,-0.975761799 L1.48854986,47.8488002 C1.48854986,49.0408149 2.39301294,50.0071336 3.50872468,50.0071336 C4.62443642,50.0071336 5.5288995,49.0408149 5.5288995,47.8488002 L5.5288995,-0.975761799 C5.5288995,-2.16777643 4.62443642,-3.13409522 3.50872468,-3.13409522 C2.39301294,-3.13409522 1.48854986,-2.16777643 1.48854986,-0.975761799 L1.48854986,-0.975761799 Z" id="Shape" fill="#EFC041" sketch:type="MSShapeGroup" mask="url(#mask-2)"></path>
                    <mask id="mask-4" sketch:name="Mask" fill="white">
                        <use xlink:href="#path-3"></use>
                    </mask>
                    <use id="Mask" sketch:type="MSShapeGroup" xlink:href="#path-3"></use>
                    <path d="M1.48854986,-0.975761799 L1.48854986,47.8488002 C1.48854986,49.0408149 2.39301294,50.0071336 3.50872468,50.0071336 C4.62443642,50.0071336 5.5288995,49.0408149 5.5288995,47.8488002 L5.5288995,-0.975761799 C5.5288995,-2.16777643 4.62443642,-3.13409522 3.50872468,-3.13409522 C2.39301294,-3.13409522 1.48854986,-2.16777643 1.48854986,-0.975761799 L1.48854986,-0.975761799 Z" id="Shape" fill="#EFC041" sketch:type="MSShapeGroup" mask="url(#mask-4)"></path>
                </g>
            </g>
        </g>
    </g>
</svg>