<?xml version="1.0" encoding="UTF-8" standalone="no"?>
<svg width="1013px" height="353px" viewBox="0 0 1013 353" version="1.1" xmlns="http://www.w3.org/2000/svg" xmlns:xlink="http://www.w3.org/1999/xlink" xmlns:sketch="http://www.bohemiancoding.com/sketch/ns">
    <!-- Generator: Sketch 3.4.2 (15855) - http://www.bohemiancoding.com/sketch -->
    <title>Group</title>
    <desc>Created with Sketch.</desc>
    <defs>
        <rect id="path-1" x="433.057394" y="162.461207" width="116.46428" height="29.2129304" rx="5"></rect>
        <path id="path-2" d="M0.617391007,0.307968662 C1.70036918,0.672837818 5.68194934,0.460395515 6.67251614,0.0539931591 C7.66308295,-0.352409196 8.17850995,9.12671289 8.17850995,9.12671289 C8.17850995,9.12671289 6.24617785,10.5490173 5.58351565,10.9344454 C4.92085346,11.3198735 2.5113049,11.4654474 1.50890113,11.0820959 C0.506497366,10.6987445 -0.465587165,-0.056900494 0.617391007,0.307968662 Z"></path>
        <path id="path-4" d="M1.46985992,22.8445056 C2.1941988,23.0841522 4.76448132,22.9915332 5.79533533,22.8445056 C6.82618934,22.6974781 26.2784706,41.2520196 17.8202345,45.3887262 C9.36199846,49.5254329 6.17723265,56.7019544 -0.900855178,56.7019544 C-7.97894301,56.7019544 0.745521054,22.6048591 1.46985992,22.8445056 Z"></path>
    </defs>
    <g id="Page-1" stroke="none" stroke-width="1" fill="none" fill-rule="evenodd" sketch:type="MSPage">
        <g id="Artboard-5" sketch:type="MSArtboardGroup" transform="translate(-140.000000, -138.000000)">
            <g id="Group" sketch:type="MSLayerGroup" transform="translate(140.000000, 138.000000)">
                <path d="M542.867894,177.283759 C591.816367,177.283759 589.590331,138.662575 638.971847,138.662575" id="Path-14" stroke="#ECDCC9" stroke-width="8" sketch:type="MSShapeGroup"></path>
                <path d="M543.293638,178.621552 C592.242112,178.621552 589.130526,217.150474 638.512043,217.150474" id="Path-14-Copy" stroke="#ECDCC9" stroke-width="8" sketch:type="MSShapeGroup"></path>
                <path d="M356.141145,177 L495.64916,177" id="Line" stroke="#ECDCC9" stroke-width="8" stroke-linecap="square" sketch:type="MSShapeGroup"></path>
                <rect id="Rectangle-46-Copy-5" stroke="#D7AD3A" stroke-width="7" fill="#FBC73C" sketch:type="MSShapeGroup" x="433.057394" y="162.461207" width="116.46428" height="29.2129304" rx="8"></rect>
                <g id="Path-31-+-Path-32" transform="translate(776.000000, 54.000000)" stroke="#ECDCCA" stroke-width="4" stroke-linecap="round" sketch:type="MSShapeGroup">
                    <path d="M0.12109375,64.1875 C22.4868561,32.7629511 62.0905934,21.1833995 96.4570312,7.66796875" id="Path-31"></path>
                    <path d="M87.3242188,1.08984375 C119.770472,-0.187025451 115.759047,-2.53206554 94.28125,20.828125" id="Path-32"></path>
                </g>
                <g id="Path-31-+-Path-32-Copy" transform="translate(832.000000, 266.500000) scale(1, -1) translate(-832.000000, -266.500000) translate(776.000000, 234.000000)" stroke="#ECDCCA" stroke-width="4" stroke-linecap="round" sketch:type="MSShapeGroup">
                    <path d="M0.12109375,64.1875 C22.4868561,32.7629511 62.0905934,21.1833995 96.4570312,7.66796875" id="Path-31"></path>
                    <path d="M87.3242188,1.08984375 C119.770472,-0.187025451 115.759047,-2.53206554 94.28125,20.828125" id="Path-32"></path>
                </g>
                <g id="Path-31-+-Path-32" transform="translate(174.000000, 86.500000) scale(-1, 1) translate(-174.000000, -86.500000) translate(118.000000, 54.000000)" stroke="#ECDCCA" stroke-width="4" stroke-linecap="round" sketch:type="MSShapeGroup">
                    <path d="M0.12109375,64.1875 C22.4868561,32.7629511 62.0905934,21.1833995 96.4570312,7.66796875" id="Path-31"></path>
                    <path d="M87.3242188,1.08984375 C119.770472,-0.187025451 115.759047,-2.53206554 94.28125,20.828125" id="Path-32"></path>
                </g>
                <g id="Path-31-+-Path-32-Copy" transform="translate(178.000000, 262.500000) scale(-1, -1) translate(-178.000000, -262.500000) translate(122.000000, 230.000000)" stroke="#ECDCCA" stroke-width="4" stroke-linecap="round" sketch:type="MSShapeGroup">
                    <path d="M0.12109375,64.1875 C22.4868561,32.7629511 62.0905934,21.1833995 96.4570312,7.66796875" id="Path-31"></path>
                    <path d="M87.3242188,1.08984375 C119.770472,-0.187025451 115.759047,-2.53206554 94.28125,20.828125" id="Path-32"></path>
                </g>
                <rect id="Rectangle-46-Copy-4" stroke="#7058B7" stroke-width="3" fill="#A48DE9" sketch:type="MSShapeGroup" x="638.582595" y="202.862068" width="116.46428" height="29.2129304" rx="5"></rect>
                <rect id="Rectangle-46-Copy" stroke="#009A71" stroke-width="3" fill="#43D475" sketch:type="MSShapeGroup" x="249.953125" y="161.218104" width="116.46428" height="29.2129304" rx="5"></rect>
                <path d="M262.830394,179.676724 L264.198394,179.676724 L264.198394,174.996724 C264.786394,174.408724 265.206394,174.096724 265.818394,174.096724 C266.598394,174.096724 266.934394,174.552724 266.934394,175.692724 L266.934394,179.676724 L268.314394,179.676724 L268.314394,175.524724 C268.314394,173.844724 267.690394,172.908724 266.286394,172.908724 C265.386394,172.908724 264.726394,173.400724 264.150394,173.952724 L264.198394,172.644724 L264.198394,170.112724 L262.830394,170.112724 L262.830394,179.676724 Z M272.502394,179.832724 C272.982394,179.832724 273.426394,179.712724 273.798394,179.592724 L273.546394,178.572724 C273.354394,178.656724 273.066394,178.728724 272.838394,178.728724 C272.154394,178.728724 271.878394,178.320724 271.878394,177.528724 L271.878394,174.180724 L273.594394,174.180724 L273.594394,173.076724 L271.878394,173.076724 L271.878394,171.252724 L270.714394,171.252724 L270.558394,173.076724 L269.538394,173.148724 L269.538394,174.180724 L270.498394,174.180724 L270.498394,177.516724 C270.498394,178.908724 271.014394,179.832724 272.502394,179.832724 L272.502394,179.832724 Z M276.990394,179.832724 C277.470394,179.832724 277.914394,179.712724 278.286394,179.592724 L278.034394,178.572724 C277.842394,178.656724 277.554394,178.728724 277.326394,178.728724 C276.642394,178.728724 276.366394,178.320724 276.366394,177.528724 L276.366394,174.180724 L278.082394,174.180724 L278.082394,173.076724 L276.366394,173.076724 L276.366394,171.252724 L275.202394,171.252724 L275.046394,173.076724 L274.026394,173.148724 L274.026394,174.180724 L274.986394,174.180724 L274.986394,177.516724 C274.986394,178.908724 275.502394,179.832724 276.990394,179.832724 L276.990394,179.832724 Z M279.522394,182.352724 L280.890394,182.352724 L280.890394,180.216724 L280.854394,179.088724 C281.418394,179.568724 282.006394,179.832724 282.594394,179.832724 C284.082394,179.832724 285.438394,178.536724 285.438394,176.268724 C285.438394,174.240724 284.502394,172.908724 282.822394,172.908724 C282.090394,172.908724 281.370394,173.316724 280.794394,173.796724 L280.758394,173.796724 L280.650394,173.076724 L279.522394,173.076724 L279.522394,182.352724 Z M282.330394,178.692724 C281.922394,178.692724 281.406394,178.536724 280.890394,178.092724 L280.890394,174.864724 C281.454394,174.324724 281.946394,174.060724 282.462394,174.060724 C283.566394,174.060724 284.010394,174.912724 284.010394,176.292724 C284.010394,177.840724 283.290394,178.692724 282.330394,178.692724 L282.330394,178.692724 Z" id="http" fill="#FFFFFF" sketch:type="MSShapeGroup"></path>
                <g id="Rectangle-46-Copy-8">
                    <use stroke="#D7AD3A" stroke-width="3" fill="#FBC73C" fill-rule="evenodd" sketch:type="MSShapeGroup" xlink:href="#path-1"></use>
                    <use stroke="none" fill="none" xlink:href="#path-1"></use>
                </g>
                <rect id="Rectangle-46-Copy-7" stroke="#2B97C5" stroke-width="3" fill="#36BDF7" sketch:type="MSShapeGroup" x="638.582595" y="123.925001" width="116.46428" height="29.2129304" rx="5"></rect>
                <path d="M445.53986,174.941379 L444.63986,175.013379 L444.63986,176.045379 L445.53986,176.045379 L445.53986,181.541379 L446.91986,181.541379 L446.91986,176.045379 L448.25186,176.045379 L448.25186,174.941379 L446.91986,174.941379 L446.91986,174.101379 C446.91986,173.297379 447.20786,172.913379 447.79586,172.913379 C448.02386,172.913379 448.27586,172.973379 448.51586,173.081379 L448.79186,172.049379 C448.49186,171.917379 448.07186,171.821379 447.62786,171.821379 C446.15186,171.821379 445.53986,172.757379 445.53986,174.113379 L445.53986,174.941379 Z M450.38786,173.705379 C450.89186,173.705379 451.27586,173.369379 451.27586,172.889379 C451.27586,172.397379 450.89186,172.073379 450.38786,172.073379 C449.88386,172.073379 449.49986,172.397379 449.49986,172.889379 C449.49986,173.369379 449.88386,173.705379 450.38786,173.705379 L450.38786,173.705379 Z M449.69186,181.541379 L451.07186,181.541379 L451.07186,174.941379 L449.69186,174.941379 L449.69186,181.541379 Z M454.51586,181.697379 C454.85186,181.697379 455.09186,181.649379 455.25986,181.589379 L455.07986,180.545379 C454.95986,180.569379 454.91186,180.569379 454.85186,180.569379 C454.68386,180.569379 454.51586,180.437379 454.51586,180.065379 L454.51586,171.977379 L453.14786,171.977379 L453.14786,179.993379 C453.14786,181.061379 453.51986,181.697379 454.51586,181.697379 L454.51586,181.697379 Z M458.94386,181.697379 C459.42386,181.697379 459.86786,181.577379 460.23986,181.457379 L459.98786,180.437379 C459.79586,180.521379 459.50786,180.593379 459.27986,180.593379 C458.59586,180.593379 458.31986,180.185379 458.31986,179.393379 L458.31986,176.045379 L460.03586,176.045379 L460.03586,174.941379 L458.31986,174.941379 L458.31986,173.117379 L457.15586,173.117379 L456.99986,174.941379 L455.97986,175.013379 L455.97986,176.045379 L456.93986,176.045379 L456.93986,179.381379 C456.93986,180.773379 457.45586,181.697379 458.94386,181.697379 L458.94386,181.697379 Z M464.01986,181.697379 C464.88386,181.697379 465.63986,181.409379 466.25186,181.001379 L465.77186,180.125379 C465.29186,180.437379 464.78786,180.617379 464.19986,180.617379 C463.05986,180.617379 462.26786,179.861379 462.15986,178.601379 L466.44386,178.601379 C466.47986,178.445379 466.50386,178.169379 466.50386,177.905379 C466.50386,176.033379 465.56786,174.773379 463.81586,174.773379 C462.26786,174.773379 460.80386,176.105379 460.80386,178.253379 C460.80386,180.425379 462.23186,181.697379 464.01986,181.697379 L464.01986,181.697379 Z M462.14786,177.653379 C462.27986,176.489379 463.01186,175.853379 463.83986,175.853379 C464.79986,175.853379 465.31586,176.513379 465.31586,177.653379 L462.14786,177.653379 Z M468.05186,181.541379 L469.41986,181.541379 L469.41986,177.425379 C469.83986,176.381379 470.48786,176.009379 471.02786,176.009379 C471.29186,176.009379 471.45986,176.045379 471.68786,176.117379 L471.93986,174.917379 C471.73586,174.821379 471.51986,174.773379 471.19586,174.773379 C470.48786,174.773379 469.79186,175.277379 469.32386,176.129379 L469.28786,176.129379 L469.17986,174.941379 L468.05186,174.941379 L468.05186,181.541379 Z" id="filter" fill="#FFFFFF" sketch:type="MSShapeGroup"></path>
                <path d="M652.75706,143.005173 L654.14906,143.005173 L654.14906,135.337173 L656.75306,135.337173 L656.75306,134.173173 L650.16506,134.173173 L650.16506,135.337173 L652.75706,135.337173 L652.75706,143.005173 Z M658.80506,143.005173 L660.40106,143.005173 L661.20506,139.753173 C661.37306,139.129173 661.49306,138.517173 661.62506,137.833173 L661.68506,137.833173 C661.82906,138.517173 661.94906,139.117173 662.10506,139.741173 L662.94506,143.005173 L664.60106,143.005173 L666.30506,136.405173 L665.00906,136.405173 L664.15706,139.981173 C664.01306,140.617173 663.90506,141.229173 663.77306,141.853173 L663.72506,141.853173 C663.56906,141.229173 663.43706,140.617173 663.28106,139.981173 L662.33306,136.405173 L661.04906,136.405173 L660.12506,139.981173 C659.96906,140.605173 659.83706,141.229173 659.69306,141.853173 L659.64506,141.853173 C659.52506,141.229173 659.41706,140.617173 659.28506,139.981173 L658.40906,136.405173 L657.01706,136.405173 L658.80506,143.005173 Z M667.67306,143.005173 L669.04106,143.005173 L669.04106,136.405173 L667.67306,136.405173 L667.67306,143.005173 Z M668.35706,135.169173 C668.86106,135.169173 669.24506,134.833173 669.24506,134.353173 C669.24506,133.861173 668.86106,133.537173 668.35706,133.537173 C667.85306,133.537173 667.48106,133.861173 667.48106,134.353173 C667.48106,134.833173 667.85306,135.169173 668.35706,135.169173 L668.35706,135.169173 Z M673.33706,143.161173 C673.81706,143.161173 674.26106,143.041173 674.63306,142.921173 L674.38106,141.901173 C674.18906,141.985173 673.90106,142.057173 673.67306,142.057173 C672.98906,142.057173 672.71306,141.649173 672.71306,140.857173 L672.71306,137.509173 L674.42906,137.509173 L674.42906,136.405173 L672.71306,136.405173 L672.71306,134.581173 L671.54906,134.581173 L671.39306,136.405173 L670.37306,136.477173 L670.37306,137.509173 L671.33306,137.509173 L671.33306,140.845173 C671.33306,142.237173 671.84906,143.161173 673.33706,143.161173 L673.33706,143.161173 Z M677.82506,143.161173 C678.30506,143.161173 678.74906,143.041173 679.12106,142.921173 L678.86906,141.901173 C678.67706,141.985173 678.38906,142.057173 678.16106,142.057173 C677.47706,142.057173 677.20106,141.649173 677.20106,140.857173 L677.20106,137.509173 L678.91706,137.509173 L678.91706,136.405173 L677.20106,136.405173 L677.20106,134.581173 L676.03706,134.581173 L675.88106,136.405173 L674.86106,136.477173 L674.86106,137.509173 L675.82106,137.509173 L675.82106,140.845173 C675.82106,142.237173 676.33706,143.161173 677.82506,143.161173 L677.82506,143.161173 Z M682.90106,143.161173 C683.76506,143.161173 684.52106,142.873173 685.13306,142.465173 L684.65306,141.589173 C684.17306,141.901173 683.66906,142.081173 683.08106,142.081173 C681.94106,142.081173 681.14906,141.325173 681.04106,140.065173 L685.32506,140.065173 C685.36106,139.909173 685.38506,139.633173 685.38506,139.369173 C685.38506,137.497173 684.44906,136.237173 682.69706,136.237173 C681.14906,136.237173 679.68506,137.569173 679.68506,139.717173 C679.68506,141.889173 681.11306,143.161173 682.90106,143.161173 L682.90106,143.161173 Z M681.02906,139.117173 C681.16106,137.953173 681.89306,137.317173 682.72106,137.317173 C683.68106,137.317173 684.19706,137.977173 684.19706,139.117173 L681.02906,139.117173 Z M686.93306,143.005173 L688.30106,143.005173 L688.30106,138.889173 C688.72106,137.845173 689.36906,137.473173 689.90906,137.473173 C690.17306,137.473173 690.34106,137.509173 690.56906,137.581173 L690.82106,136.381173 C690.61706,136.285173 690.40106,136.237173 690.07706,136.237173 C689.36906,136.237173 688.67306,136.741173 688.20506,137.593173 L688.16906,137.593173 L688.06106,136.405173 L686.93306,136.405173 L686.93306,143.005173 Z" id="Twitter" fill="#FFFFFF" sketch:type="MSShapeGroup"></path>
                <path d="M651.666257,218.951792 L652.026257,217.763792 C652.314257,216.803792 652.590257,215.831792 652.842257,214.823792 L652.890257,214.823792 C653.166257,215.819792 653.430257,216.803792 653.730257,217.763792 L654.078257,218.951792 L651.666257,218.951792 Z M655.158257,222.563792 L656.634257,222.563792 L653.706257,213.731792 L652.098257,213.731792 L649.170257,222.563792 L650.586257,222.563792 L651.342257,220.043792 L654.414257,220.043792 L655.158257,222.563792 Z M657.678257,222.563792 L659.046257,222.563792 L659.046257,217.883792 C659.598257,217.283792 660.090257,216.983792 660.534257,216.983792 C661.290257,216.983792 661.638257,217.439792 661.638257,218.579792 L661.638257,222.563792 L663.018257,222.563792 L663.018257,217.883792 C663.570257,217.283792 664.050257,216.983792 664.506257,216.983792 C665.250257,216.983792 665.610257,217.439792 665.610257,218.579792 L665.610257,222.563792 L666.990257,222.563792 L666.990257,218.411792 C666.990257,216.731792 666.342257,215.795792 664.962257,215.795792 C664.134257,215.795792 663.462257,216.311792 662.814257,217.007792 C662.526257,216.251792 661.974257,215.795792 660.990257,215.795792 C660.174257,215.795792 659.514257,216.287792 658.950257,216.887792 L658.914257,216.887792 L658.806257,215.963792 L657.678257,215.963792 L657.678257,222.563792 Z M670.542257,222.719792 C671.334257,222.719792 672.042257,222.323792 672.642257,221.807792 L672.678257,221.807792 L672.798257,222.563792 L673.926257,222.563792 L673.926257,218.591792 C673.926257,216.839792 673.170257,215.795792 671.526257,215.795792 C670.470257,215.795792 669.546257,216.227792 668.862257,216.659792 L669.378257,217.595792 C669.942257,217.235792 670.590257,216.923792 671.286257,216.923792 C672.258257,216.923792 672.534257,217.595792 672.546257,218.363792 C669.798257,218.663792 668.598257,219.395792 668.598257,220.811792 C668.598257,221.975792 669.402257,222.719792 670.542257,222.719792 L670.542257,222.719792 Z M670.962257,221.627792 C670.374257,221.627792 669.930257,221.363792 669.930257,220.715792 C669.930257,219.971792 670.590257,219.479792 672.546257,219.239792 L672.546257,220.859792 C672.006257,221.351792 671.538257,221.627792 670.962257,221.627792 L670.962257,221.627792 Z M675.282257,222.563792 L680.382257,222.563792 L680.382257,221.459792 L677.022257,221.459792 L680.274257,216.695792 L680.274257,215.963792 L675.642257,215.963792 L675.642257,217.067792 L678.534257,217.067792 L675.282257,221.819792 L675.282257,222.563792 Z M684.270257,222.719792 C685.902257,222.719792 687.378257,221.459792 687.378257,219.275792 C687.378257,217.067792 685.902257,215.795792 684.270257,215.795792 C682.638257,215.795792 681.162257,217.067792 681.162257,219.275792 C681.162257,221.459792 682.638257,222.719792 684.270257,222.719792 L684.270257,222.719792 Z M684.270257,221.591792 C683.238257,221.591792 682.590257,220.667792 682.590257,219.275792 C682.590257,217.871792 683.238257,216.935792 684.270257,216.935792 C685.314257,216.935792 685.962257,217.871792 685.962257,219.275792 C685.962257,220.667792 685.314257,221.591792 684.270257,221.591792 L684.270257,221.591792 Z M688.998257,222.563792 L690.366257,222.563792 L690.366257,217.883792 C690.954257,217.295792 691.374257,216.983792 691.986257,216.983792 C692.766257,216.983792 693.102257,217.439792 693.102257,218.579792 L693.102257,222.563792 L694.482257,222.563792 L694.482257,218.411792 C694.482257,216.731792 693.858257,215.795792 692.454257,215.795792 C691.554257,215.795792 690.882257,216.287792 690.270257,216.875792 L690.234257,216.875792 L690.126257,215.963792 L688.998257,215.963792 L688.998257,222.563792 Z M701.826257,222.719792 C703.758257,222.719792 704.934257,221.567792 704.934257,220.151792 C704.934257,218.855792 704.178257,218.207792 703.134257,217.763792 L701.922257,217.247792 C701.202257,216.959792 700.494257,216.671792 700.494257,215.915792 C700.494257,215.207792 701.082257,214.775792 701.982257,214.775792 C702.762257,214.775792 703.374257,215.075792 703.926257,215.567792 L704.658257,214.679792 C703.986257,213.995792 703.014257,213.563792 701.982257,213.563792 C700.302257,213.563792 699.078257,214.607792 699.078257,215.999792 C699.078257,217.283792 700.026257,217.955792 700.878257,218.315792 L702.102257,218.843792 C702.918257,219.203792 703.518257,219.455792 703.518257,220.259792 C703.518257,221.003792 702.918257,221.507792 701.850257,221.507792 C700.998257,221.507792 700.134257,221.099792 699.498257,220.463792 L698.682257,221.423792 C699.486257,222.239792 700.614257,222.719792 701.826257,222.719792 L701.826257,222.719792 Z M708.654257,222.719792 C710.274257,222.719792 711.606257,221.783792 711.606257,220.187792 C711.606257,218.999792 710.802257,218.231792 709.782257,217.979792 L709.782257,217.919792 C710.718257,217.571792 711.306257,216.863792 711.306257,215.843792 C711.306257,214.379792 710.190257,213.563792 708.606257,213.563792 C707.586257,213.563792 706.770257,214.007792 706.074257,214.631792 L706.794257,215.495792 C707.298257,215.003792 707.874257,214.667792 708.558257,214.655792 C709.398257,214.667792 709.914257,215.159792 709.914257,215.939792 C709.914257,216.827792 709.338257,217.487792 707.598257,217.487792 L707.598257,218.507792 C709.590257,218.507792 710.214257,219.143792 710.214257,220.127792 C710.214257,221.039792 709.530257,221.591792 708.534257,221.591792 C707.622257,221.591792 706.962257,221.147792 706.446257,220.619792 L705.774257,221.507792 C706.362257,222.167792 707.262257,222.719792 708.654257,222.719792 L708.654257,222.719792 Z" id="Amazon-S3" fill="#FFFFFF" sketch:type="MSShapeGroup"></path>
                <ellipse id="Oval-5" stroke="#ECDCC9" stroke-width="5" fill="#009A71" sketch:type="MSShapeGroup" cx="399.031231" cy="177.135345" rx="7.00027843" ry="6.98620684"></ellipse>
                <ellipse id="Oval-5-Copy" stroke="#ECDCC9" stroke-width="5" fill="#D7AD3A" sketch:type="MSShapeGroup" cx="587" cy="161.985929" rx="7" ry="6.98592898"></ellipse>
                <ellipse id="Oval-5-Copy-2" stroke="#ECDCC9" stroke-width="5" fill="#D7AD3A" sketch:type="MSShapeGroup" cx="610" cy="210.985929" rx="7" ry="6.98592898"></ellipse>
                <path d="M887.451531,113.525001 C889.451531,113.525001 890.411531,112.309001 891.195531,110.197001 L894.379531,100.965001 L892.123531,100.965001 L890.891531,105.125001 C890.683531,105.957001 890.459531,106.821001 890.251531,107.653001 L890.171531,107.653001 C889.915531,106.789001 889.691531,105.925001 889.419531,105.125001 L887.995531,100.965001 L885.627531,100.965001 L889.115531,109.765001 L888.955531,110.293001 C888.699531,111.077001 888.187531,111.653001 887.275531,111.653001 C887.067531,111.653001 886.811531,111.589001 886.651531,111.541001 L886.219531,113.349001 C886.571531,113.461001 886.923531,113.525001 887.451531,113.525001 L887.451531,113.525001 Z M899.467531,110.149001 C901.707531,110.149001 903.771531,108.421001 903.771531,105.461001 C903.771531,102.469001 901.707531,100.741001 899.467531,100.741001 C897.227531,100.741001 895.163531,102.469001 895.163531,105.461001 C895.163531,108.421001 897.227531,110.149001 899.467531,110.149001 L899.467531,110.149001 Z M899.467531,108.229001 C898.251531,108.229001 897.563531,107.141001 897.563531,105.461001 C897.563531,103.765001 898.251531,102.661001 899.467531,102.661001 C900.683531,102.661001 901.371531,103.765001 901.371531,105.461001 C901.371531,107.141001 900.683531,108.229001 899.467531,108.229001 L899.467531,108.229001 Z M908.395531,110.149001 C909.627531,110.149001 910.491531,109.557001 911.259531,108.645001 L911.323531,108.645001 L911.499531,109.925001 L913.419531,109.925001 L913.419531,100.965001 L911.067531,100.965001 L911.067531,107.013001 C910.459531,107.813001 909.979531,108.133001 909.243531,108.133001 C908.379531,108.133001 907.995531,107.653001 907.995531,106.261001 L907.995531,100.965001 L905.643531,100.965001 L905.643531,106.565001 C905.643531,108.805001 906.475531,110.149001 908.395531,110.149001 L908.395531,110.149001 Z M915.931531,109.925001 L918.267531,109.925001 L918.267531,104.581001 C918.779531,103.285001 919.627531,102.821001 920.331531,102.821001 C920.699531,102.821001 920.955531,102.869001 921.259531,102.965001 L921.675531,100.933001 C921.403531,100.821001 921.115531,100.741001 920.619531,100.741001 C919.691531,100.741001 918.731531,101.381001 918.075531,102.549001 L918.011531,102.549001 L917.851531,100.965001 L915.931531,100.965001 L915.931531,109.925001 Z M930.283531,110.149001 C932.523531,110.149001 934.587531,108.421001 934.587531,105.461001 C934.587531,102.469001 932.523531,100.741001 930.283531,100.741001 C928.043531,100.741001 925.979531,102.469001 925.979531,105.461001 C925.979531,108.421001 928.043531,110.149001 930.283531,110.149001 L930.283531,110.149001 Z M930.283531,108.229001 C929.067531,108.229001 928.379531,107.141001 928.379531,105.461001 C928.379531,103.765001 929.067531,102.661001 930.283531,102.661001 C931.499531,102.661001 932.187531,103.765001 932.187531,105.461001 C932.187531,107.141001 931.499531,108.229001 930.283531,108.229001 L930.283531,108.229001 Z M937.915531,109.925001 L940.603531,109.925001 L941.515531,106.021001 C941.707531,105.189001 941.835531,104.357001 942.011531,103.413001 L942.091531,103.413001 C942.267531,104.357001 942.411531,105.173001 942.603531,106.021001 L943.547531,109.925001 L946.315531,109.925001 L948.523531,100.965001 L946.347531,100.965001 L945.371531,105.397001 C945.195531,106.261001 945.083531,107.125001 944.923531,108.005001 L944.843531,108.005001 C944.651531,107.125001 944.491531,106.261001 944.283531,105.397001 L943.163531,100.965001 L941.067531,100.965001 L939.995531,105.397001 C939.771531,106.245001 939.611531,107.125001 939.435531,108.005001 L939.371531,108.005001 C939.211531,107.125001 939.099531,106.261001 938.923531,105.397001 L937.947531,100.965001 L935.595531,100.965001 L937.915531,109.925001 Z M950.235531,109.925001 L952.571531,109.925001 L952.571531,103.765001 C953.243531,103.109001 953.707531,102.757001 954.443531,102.757001 C955.323531,102.757001 955.707531,103.253001 955.707531,104.629001 L955.707531,109.925001 L958.059531,109.925001 L958.059531,104.341001 C958.059531,102.085001 957.227531,100.741001 955.291531,100.741001 C954.075531,100.741001 953.163531,101.381001 952.379531,102.149001 L952.315531,102.149001 L952.155531,100.965001 L950.235531,100.965001 L950.235531,109.925001 Z M966.683531,110.149001 C969.019531,110.149001 970.251531,108.885001 970.251531,107.317001 C970.251531,105.653001 968.939531,105.061001 967.755531,104.613001 C966.811531,104.261001 965.931531,104.021001 965.931531,103.365001 C965.931531,102.853001 966.315531,102.501001 967.115531,102.501001 C967.787531,102.501001 968.411531,102.821001 969.051531,103.269001 L970.107531,101.845001 C969.355531,101.285001 968.363531,100.741001 967.051531,100.741001 C965.035531,100.741001 963.723531,101.877001 963.723531,103.493001 C963.723531,104.981001 965.035531,105.669001 966.171531,106.101001 C967.115531,106.469001 968.043531,106.773001 968.043531,107.445001 C968.043531,108.005001 967.643531,108.389001 966.747531,108.389001 C965.915531,108.389001 965.147531,108.037001 964.347531,107.413001 L963.275531,108.885001 C964.155531,109.621001 965.483531,110.149001 966.683531,110.149001 L966.683531,110.149001 Z M975.931531,110.149001 C977.051531,110.149001 978.187531,109.765001 979.067531,109.157001 L978.267531,107.717001 C977.627531,108.117001 976.987531,108.341001 976.251531,108.341001 C974.923531,108.341001 973.963531,107.573001 973.771531,106.101001 L979.291531,106.101001 C979.355531,105.893001 979.403531,105.461001 979.403531,105.029001 C979.403531,102.549001 978.123531,100.741001 975.659531,100.741001 C973.515531,100.741001 971.483531,102.549001 971.483531,105.461001 C971.483531,108.405001 973.435531,110.149001 975.931531,110.149001 L975.931531,110.149001 Z M973.739531,104.549001 C973.915531,103.237001 974.747531,102.565001 975.691531,102.565001 C976.843531,102.565001 977.387531,103.333001 977.387531,104.549001 L973.739531,104.549001 Z M981.339531,109.925001 L983.675531,109.925001 L983.675531,104.581001 C984.187531,103.285001 985.035531,102.821001 985.739531,102.821001 C986.107531,102.821001 986.363531,102.869001 986.667531,102.965001 L987.083531,100.933001 C986.811531,100.821001 986.523531,100.741001 986.027531,100.741001 C985.099531,100.741001 984.139531,101.381001 983.483531,102.549001 L983.419531,102.549001 L983.259531,100.965001 L981.339531,100.965001 L981.339531,109.925001 Z M990.555531,109.925001 L993.275531,109.925001 L996.267531,100.965001 L994.011531,100.965001 L992.699531,105.429001 C992.459531,106.309001 992.203531,107.237001 991.979531,108.149001 L991.899531,108.149001 C991.659531,107.237001 991.403531,106.309001 991.179531,105.429001 L989.867531,100.965001 L987.499531,100.965001 L990.555531,109.925001 Z M1001.51553,110.149001 C1002.63553,110.149001 1003.77153,109.765001 1004.65153,109.157001 L1003.85153,107.717001 C1003.21153,108.117001 1002.57153,108.341001 1001.83553,108.341001 C1000.50753,108.341001 999.547531,107.573001 999.355531,106.101001 L1004.87553,106.101001 C1004.93953,105.893001 1004.98753,105.461001 1004.98753,105.029001 C1004.98753,102.549001 1003.70753,100.741001 1001.24353,100.741001 C999.099531,100.741001 997.067531,102.549001 997.067531,105.461001 C997.067531,108.405001 999.019531,110.149001 1001.51553,110.149001 L1001.51553,110.149001 Z M999.323531,104.549001 C999.499531,103.237001 1000.33153,102.565001 1001.27553,102.565001 C1002.42753,102.565001 1002.97153,103.333001 1002.97153,104.549001 L999.323531,104.549001 Z M1006.92353,109.925001 L1009.25953,109.925001 L1009.25953,104.581001 C1009.77153,103.285001 1010.61953,102.821001 1011.32353,102.821001 C1011.69153,102.821001 1011.94753,102.869001 1012.25153,102.965001 L1012.66753,100.933001 C1012.39553,100.821001 1012.10753,100.741001 1011.61153,100.741001 C1010.68353,100.741001 1009.72353,101.381001 1009.06753,102.549001 L1009.00353,102.549001 L1008.84353,100.965001 L1006.92353,100.965001 L1006.92353,109.925001 Z" id="your-own-server" fill="#B7A794" sketch:type="MSShapeGroup"></path>
                <path d="M5.04,352.224 C6.16,352.224 7.296,351.84 8.176,351.232 L7.376,349.792 C6.736,350.192 6.096,350.416 5.36,350.416 C4.032,350.416 3.072,349.648 2.88,348.176 L8.4,348.176 C8.464,347.968 8.512,347.536 8.512,347.104 C8.512,344.624 7.232,342.816 4.768,342.816 C2.624,342.816 0.592,344.624 0.592,347.536 C0.592,350.48 2.544,352.224 5.04,352.224 L5.04,352.224 Z M2.848,346.624 C3.024,345.312 3.856,344.64 4.8,344.64 C5.952,344.64 6.496,345.408 6.496,346.624 L2.848,346.624 Z M10.448,352 L12.784,352 L12.784,345.84 C13.456,345.184 13.92,344.832 14.656,344.832 C15.536,344.832 15.92,345.328 15.92,346.704 L15.92,352 L18.272,352 L18.272,346.416 C18.272,344.16 17.44,342.816 15.504,342.816 C14.288,342.816 13.376,343.456 12.592,344.224 L12.528,344.224 L12.368,343.04 L10.448,343.04 L10.448,352 Z M24.592,352.224 C25.712,352.224 26.848,351.84 27.728,351.232 L26.928,349.792 C26.288,350.192 25.648,350.416 24.912,350.416 C23.584,350.416 22.624,349.648 22.432,348.176 L27.952,348.176 C28.016,347.968 28.064,347.536 28.064,347.104 C28.064,344.624 26.784,342.816 24.32,342.816 C22.176,342.816 20.144,344.624 20.144,347.536 C20.144,350.48 22.096,352.224 24.592,352.224 L24.592,352.224 Z M22.4,346.624 C22.576,345.312 23.408,344.64 24.352,344.64 C25.504,344.64 26.048,345.408 26.048,346.624 L22.4,346.624 Z M34.496,352.224 C36.464,352.224 38.304,350.448 38.304,347.36 C38.304,344.624 36.976,342.816 34.768,342.816 C33.888,342.816 32.992,343.248 32.288,343.888 L32.336,342.448 L32.336,339.232 L30,339.232 L30,352 L31.84,352 L32.048,351.056 L32.096,351.056 C32.832,351.808 33.696,352.224 34.496,352.224 L34.496,352.224 Z M33.968,350.288 C33.488,350.288 32.896,350.112 32.336,349.616 L32.336,345.68 C32.96,345.056 33.504,344.752 34.112,344.752 C35.344,344.752 35.888,345.696 35.888,347.408 C35.888,349.36 35.056,350.288 33.968,350.288 L33.968,350.288 Z M42.96,352.224 C44.192,352.224 45.056,351.632 45.824,350.72 L45.888,350.72 L46.064,352 L47.984,352 L47.984,343.04 L45.632,343.04 L45.632,349.088 C45.024,349.888 44.544,350.208 43.808,350.208 C42.944,350.208 42.56,349.728 42.56,348.336 L42.56,343.04 L40.208,343.04 L40.208,348.64 C40.208,350.88 41.04,352.224 42.96,352.224 L42.96,352.224 Z M52.704,352.224 C53.248,352.224 53.648,352.128 53.92,352.016 L53.632,350.272 C53.472,350.304 53.408,350.304 53.312,350.304 C53.088,350.304 52.832,350.128 52.832,349.6 L52.832,339.232 L50.496,339.232 L50.496,349.488 C50.496,351.152 51.072,352.224 52.704,352.224 L52.704,352.224 Z M57.744,352.224 C58.768,352.224 59.664,351.712 60.448,351.04 L60.496,351.04 L60.672,352 L62.592,352 L62.592,346.768 C62.592,344.176 61.424,342.816 59.152,342.816 C57.744,342.816 56.464,343.344 55.408,344 L56.256,345.552 C57.088,345.072 57.888,344.704 58.72,344.704 C59.824,344.704 60.208,345.376 60.24,346.256 C56.64,346.64 55.088,347.648 55.088,349.568 C55.088,351.088 56.144,352.224 57.744,352.224 L57.744,352.224 Z M58.512,350.384 C57.824,350.384 57.328,350.08 57.328,349.376 C57.328,348.576 58.064,347.984 60.24,347.696 L60.24,349.504 C59.68,350.064 59.184,350.384 58.512,350.384 L58.512,350.384 Z M64.992,352 L67.328,352 L67.328,346.656 C67.84,345.36 68.688,344.896 69.392,344.896 C69.76,344.896 70.016,344.944 70.32,345.04 L70.736,343.008 C70.464,342.896 70.176,342.816 69.68,342.816 C68.752,342.816 67.792,343.456 67.136,344.624 L67.072,344.624 L66.912,343.04 L64.992,343.04 L64.992,352 Z M78.16,352.224 C80.496,352.224 81.728,350.96 81.728,349.392 C81.728,347.728 80.416,347.136 79.232,346.688 C78.288,346.336 77.408,346.096 77.408,345.44 C77.408,344.928 77.792,344.576 78.592,344.576 C79.264,344.576 79.888,344.896 80.528,345.344 L81.584,343.92 C80.832,343.36 79.84,342.816 78.528,342.816 C76.512,342.816 75.2,343.952 75.2,345.568 C75.2,347.056 76.512,347.744 77.648,348.176 C78.592,348.544 79.52,348.848 79.52,349.52 C79.52,350.08 79.12,350.464 78.224,350.464 C77.392,350.464 76.624,350.112 75.824,349.488 L74.752,350.96 C75.632,351.696 76.96,352.224 78.16,352.224 L78.16,352.224 Z M87.408,352.224 C88.528,352.224 89.664,351.84 90.544,351.232 L89.744,349.792 C89.104,350.192 88.464,350.416 87.728,350.416 C86.4,350.416 85.44,349.648 85.248,348.176 L90.768,348.176 C90.832,347.968 90.88,347.536 90.88,347.104 C90.88,344.624 89.6,342.816 87.136,342.816 C84.992,342.816 82.96,344.624 82.96,347.536 C82.96,350.48 84.912,352.224 87.408,352.224 L87.408,352.224 Z M85.216,346.624 C85.392,345.312 86.224,344.64 87.168,344.64 C88.32,344.64 88.864,345.408 88.864,346.624 L85.216,346.624 Z M92.816,352 L95.152,352 L95.152,346.656 C95.664,345.36 96.512,344.896 97.216,344.896 C97.584,344.896 97.84,344.944 98.144,345.04 L98.56,343.008 C98.288,342.896 98,342.816 97.504,342.816 C96.576,342.816 95.616,343.456 94.96,344.624 L94.896,344.624 L94.736,343.04 L92.816,343.04 L92.816,352 Z M102.032,352 L104.752,352 L107.744,343.04 L105.488,343.04 L104.176,347.504 C103.936,348.384 103.68,349.312 103.456,350.224 L103.376,350.224 C103.136,349.312 102.88,348.384 102.656,347.504 L101.344,343.04 L98.976,343.04 L102.032,352 Z M112.992,352.224 C114.112,352.224 115.248,351.84 116.128,351.232 L115.328,349.792 C114.688,350.192 114.048,350.416 113.312,350.416 C111.984,350.416 111.024,349.648 110.832,348.176 L116.352,348.176 C116.416,347.968 116.464,347.536 116.464,347.104 C116.464,344.624 115.184,342.816 112.72,342.816 C110.576,342.816 108.544,344.624 108.544,347.536 C108.544,350.48 110.496,352.224 112.992,352.224 L112.992,352.224 Z M110.8,346.624 C110.976,345.312 111.808,344.64 112.752,344.64 C113.904,344.64 114.448,345.408 114.448,346.624 L110.8,346.624 Z M118.4,352 L120.736,352 L120.736,346.656 C121.248,345.36 122.096,344.896 122.8,344.896 C123.168,344.896 123.424,344.944 123.728,345.04 L124.144,343.008 C123.872,342.896 123.584,342.816 123.088,342.816 C122.16,342.816 121.2,343.456 120.544,344.624 L120.48,344.624 L120.32,343.04 L118.4,343.04 L118.4,352 Z" id="enebular-server" fill="#B7A794" sketch:type="MSShapeGroup"></path>
                <path d="M31.024,124.224 C31.952,124.224 32.848,123.712 33.504,123.072 L33.552,123.072 L33.744,124 L35.648,124 L35.648,111.232 L33.296,111.232 L33.296,114.384 L33.392,115.792 C32.752,115.2 32.128,114.816 31.12,114.816 C29.184,114.816 27.36,116.608 27.36,119.536 C27.36,122.464 28.8,124.224 31.024,124.224 L31.024,124.224 Z M31.632,122.288 C30.448,122.288 29.776,121.36 29.776,119.504 C29.776,117.712 30.624,116.752 31.632,116.752 C32.192,116.752 32.752,116.928 33.296,117.424 L33.296,121.36 C32.784,122.032 32.256,122.288 31.632,122.288 L31.632,122.288 Z M42.064,124.224 C43.184,124.224 44.32,123.84 45.2,123.232 L44.4,121.792 C43.76,122.192 43.12,122.416 42.384,122.416 C41.056,122.416 40.096,121.648 39.904,120.176 L45.424,120.176 C45.488,119.968 45.536,119.536 45.536,119.104 C45.536,116.624 44.256,114.816 41.792,114.816 C39.648,114.816 37.616,116.624 37.616,119.536 C37.616,122.48 39.568,124.224 42.064,124.224 L42.064,124.224 Z M39.872,118.624 C40.048,117.312 40.88,116.64 41.824,116.64 C42.976,116.64 43.52,117.408 43.52,118.624 L39.872,118.624 Z M49.424,124 L52.144,124 L55.136,115.04 L52.88,115.04 L51.568,119.504 C51.328,120.384 51.072,121.312 50.848,122.224 L50.768,122.224 C50.528,121.312 50.272,120.384 50.048,119.504 L48.736,115.04 L46.368,115.04 L49.424,124 Z M56.624,124 L58.96,124 L58.96,115.04 L56.624,115.04 L56.624,124 Z M57.808,113.6 C58.608,113.6 59.2,113.056 59.2,112.32 C59.2,111.552 58.608,111.04 57.808,111.04 C56.992,111.04 56.4,111.552 56.4,112.32 C56.4,113.056 56.992,113.6 57.808,113.6 L57.808,113.6 Z M65.296,124.224 C66.288,124.224 67.376,123.888 68.224,123.136 L67.296,121.584 C66.8,122 66.192,122.304 65.552,122.304 C64.256,122.304 63.328,121.216 63.328,119.536 C63.328,117.84 64.256,116.736 65.616,116.736 C66.128,116.736 66.544,116.944 66.992,117.328 L68.112,115.808 C67.456,115.248 66.608,114.816 65.504,114.816 C63.072,114.816 60.928,116.544 60.928,119.536 C60.928,122.496 62.816,124.224 65.296,124.224 L65.296,124.224 Z M73.328,124.224 C74.448,124.224 75.584,123.84 76.464,123.232 L75.664,121.792 C75.024,122.192 74.384,122.416 73.648,122.416 C72.32,122.416 71.36,121.648 71.168,120.176 L76.688,120.176 C76.752,119.968 76.8,119.536 76.8,119.104 C76.8,116.624 75.52,114.816 73.056,114.816 C70.912,114.816 68.88,116.624 68.88,119.536 C68.88,122.48 70.832,124.224 73.328,124.224 L73.328,124.224 Z M71.136,118.624 C71.312,117.312 72.144,116.64 73.088,116.64 C74.24,116.64 74.784,117.408 74.784,118.624 L71.136,118.624 Z M81.296,124.224 C83.632,124.224 84.864,122.96 84.864,121.392 C84.864,119.728 83.552,119.136 82.368,118.688 C81.424,118.336 80.544,118.096 80.544,117.44 C80.544,116.928 80.928,116.576 81.728,116.576 C82.4,116.576 83.024,116.896 83.664,117.344 L84.72,115.92 C83.968,115.36 82.976,114.816 81.664,114.816 C79.648,114.816 78.336,115.952 78.336,117.568 C78.336,119.056 79.648,119.744 80.784,120.176 C81.728,120.544 82.656,120.848 82.656,121.52 C82.656,122.08 82.256,122.464 81.36,122.464 C80.528,122.464 79.76,122.112 78.96,121.488 L77.888,122.96 C78.768,123.696 80.096,124.224 81.296,124.224 L81.296,124.224 Z" id="devices" fill="#B7A794" sketch:type="MSShapeGroup"></path>
                <path d="M904.088,352.224 C905.112,352.224 906.008,351.712 906.792,351.04 L906.84,351.04 L907.016,352 L908.936,352 L908.936,346.768 C908.936,344.176 907.768,342.816 905.496,342.816 C904.088,342.816 902.808,343.344 901.752,344 L902.6,345.552 C903.432,345.072 904.232,344.704 905.064,344.704 C906.168,344.704 906.552,345.376 906.584,346.256 C902.984,346.64 901.432,347.648 901.432,349.568 C901.432,351.088 902.488,352.224 904.088,352.224 L904.088,352.224 Z M904.856,350.384 C904.168,350.384 903.672,350.08 903.672,349.376 C903.672,348.576 904.408,347.984 906.584,347.696 L906.584,349.504 C906.024,350.064 905.528,350.384 904.856,350.384 L904.856,350.384 Z M911.336,352 L913.672,352 L913.672,345.84 C914.344,345.184 914.808,344.832 915.544,344.832 C916.424,344.832 916.808,345.328 916.808,346.704 L916.808,352 L919.16,352 L919.16,346.416 C919.16,344.16 918.328,342.816 916.392,342.816 C915.176,342.816 914.264,343.456 913.48,344.224 L913.416,344.224 L913.256,343.04 L911.336,343.04 L911.336,352 Z M924.744,352.224 C925.672,352.224 926.568,351.712 927.224,351.072 L927.272,351.072 L927.464,352 L929.368,352 L929.368,339.232 L927.016,339.232 L927.016,342.384 L927.112,343.792 C926.472,343.2 925.848,342.816 924.84,342.816 C922.904,342.816 921.08,344.608 921.08,347.536 C921.08,350.464 922.52,352.224 924.744,352.224 L924.744,352.224 Z M925.352,350.288 C924.168,350.288 923.496,349.36 923.496,347.504 C923.496,345.712 924.344,344.752 925.352,344.752 C925.912,344.752 926.472,344.928 927.016,345.424 L927.016,349.36 C926.504,350.032 925.976,350.288 925.352,350.288 L925.352,350.288 Z M935.528,352 L937.864,352 L937.864,345.84 C938.504,345.168 939.08,344.832 939.592,344.832 C940.44,344.832 940.84,345.328 940.84,346.704 L940.84,352 L943.192,352 L943.192,345.84 C943.832,345.168 944.408,344.832 944.92,344.832 C945.768,344.832 946.168,345.328 946.168,346.704 L946.168,352 L948.52,352 L948.52,346.416 C948.52,344.16 947.64,342.816 945.736,342.816 C944.568,342.816 943.704,343.52 942.888,344.384 C942.456,343.392 941.704,342.816 940.424,342.816 C939.256,342.816 938.424,343.456 937.672,344.24 L937.608,344.24 L937.448,343.04 L935.528,343.04 L935.528,352 Z M954.696,352.224 C956.936,352.224 959,350.496 959,347.536 C959,344.544 956.936,342.816 954.696,342.816 C952.456,342.816 950.392,344.544 950.392,347.536 C950.392,350.496 952.456,352.224 954.696,352.224 L954.696,352.224 Z M954.696,350.304 C953.48,350.304 952.792,349.216 952.792,347.536 C952.792,345.84 953.48,344.736 954.696,344.736 C955.912,344.736 956.6,345.84 956.6,347.536 C956.6,349.216 955.912,350.304 954.696,350.304 L954.696,350.304 Z M960.968,352 L963.304,352 L963.304,346.656 C963.816,345.36 964.664,344.896 965.368,344.896 C965.736,344.896 965.992,344.944 966.296,345.04 L966.712,343.008 C966.44,342.896 966.152,342.816 965.656,342.816 C964.728,342.816 963.768,343.456 963.112,344.624 L963.048,344.624 L962.888,343.04 L960.968,343.04 L960.968,352 Z M971.64,352.224 C972.76,352.224 973.896,351.84 974.776,351.232 L973.976,349.792 C973.336,350.192 972.696,350.416 971.96,350.416 C970.632,350.416 969.672,349.648 969.48,348.176 L975,348.176 C975.064,347.968 975.112,347.536 975.112,347.104 C975.112,344.624 973.832,342.816 971.368,342.816 C969.224,342.816 967.192,344.624 967.192,347.536 C967.192,350.48 969.144,352.224 971.64,352.224 L971.64,352.224 Z M969.448,346.624 C969.624,345.312 970.456,344.64 971.4,344.64 C972.552,344.64 973.096,345.408 973.096,346.624 L969.448,346.624 Z M978.728,352.224 C979.56,352.224 980.184,351.552 980.184,350.688 C980.184,349.824 979.56,349.152 978.728,349.152 C977.896,349.152 977.256,349.824 977.256,350.688 C977.256,351.552 977.896,352.224 978.728,352.224 L978.728,352.224 Z M984.76,352.224 C985.592,352.224 986.232,351.552 986.232,350.688 C986.232,349.824 985.592,349.152 984.76,349.152 C983.928,349.152 983.304,349.824 983.304,350.688 C983.304,351.552 983.928,352.224 984.76,352.224 L984.76,352.224 Z M990.792,352.224 C991.624,352.224 992.264,351.552 992.264,350.688 C992.264,349.824 991.624,349.152 990.792,349.152 C989.96,349.152 989.32,349.824 989.32,350.688 C989.32,351.552 989.96,352.224 990.792,352.224 L990.792,352.224 Z" id="and-more…" fill="#B7A794" sketch:type="MSShapeGroup"></path>
                <g transform="translate(912.000000, 24.000000)" fill="#2B97C5" sketch:type="MSShapeGroup">
                    <g id="Shape">
                        <path d="M9.66,8.7739726 L9.66,15.4589041 C9.66,16.3819005 10.4121616,17.130137 11.34,17.130137 C12.2678384,17.130137 13.02,16.3819005 13.02,15.4589041 L13.02,8.7739726 C13.02,7.85097617 12.2678384,7.10273973 11.34,7.10273973 C10.4121616,7.10273973 9.66,7.85097617 9.66,8.7739726 L9.66,8.7739726 Z"></path>
                        <path d="M9.66,35.5136986 L9.66,42.1986301 C9.66,43.1216266 10.4121616,43.869863 11.34,43.869863 C12.2678384,43.869863 13.02,43.1216266 13.02,42.1986301 L13.02,35.5136986 C13.02,34.5907022 12.2678384,33.8424658 11.34,33.8424658 C10.4121616,33.8424658 9.66,34.5907022 9.66,35.5136986 L9.66,35.5136986 Z"></path>
                        <path d="M17.64,8.7739726 L17.64,15.4589041 C17.64,16.3819005 18.3921616,17.130137 19.32,17.130137 C20.2478384,17.130137 21,16.3819005 21,15.4589041 L21,8.7739726 C21,7.85097617 20.2478384,7.10273973 19.32,7.10273973 C18.3921616,7.10273973 17.64,7.85097617 17.64,8.7739726 L17.64,8.7739726 Z"></path>
                        <path d="M17.64,35.5136986 L17.64,42.1986301 C17.64,43.1216266 18.3921616,43.869863 19.32,43.869863 C20.2478384,43.869863 21,43.1216266 21,42.1986301 L21,35.5136986 C21,34.5907022 20.2478384,33.8424658 19.32,33.8424658 C18.3921616,33.8424658 17.64,34.5907022 17.64,35.5136986 L17.64,35.5136986 Z"></path>
                        <path d="M3.36,5.43078505 L3.36,5.43078505 L3.36,18.8020917 C3.36,19.9536249 4.3014722,20.890411 5.46006732,20.890411 L57.5399327,20.890411 C58.7020356,20.890411 59.64,19.9570212 59.64,18.8020917 L59.64,5.43078505 C59.64,4.27925181 58.6985278,3.34246575 57.5399327,3.34246575 L5.46006732,3.34246575 C4.29796441,3.34246575 3.36,4.27585547 3.36,5.43078505 L3.36,5.43078505 Z M0,5.43078505 C0,2.43144529 2.44069703,0 5.46006732,0 L57.5399327,0 C60.5554446,0 63,2.43449271 63,5.43078505 L63,18.8020917 C63,21.8014314 60.559303,24.2328767 57.5399327,24.2328767 L5.46006732,24.2328767 C2.44455541,24.2328767 0,21.798384 0,18.8020917 L0,5.43078505 L0,5.43078505 Z"></path>
                        <path d="M3.36,32.1705111 L3.36,32.1705111 L3.36,45.5418177 C3.36,46.6933509 4.3014722,47.630137 5.46006732,47.630137 L57.5399327,47.630137 C58.7020356,47.630137 59.64,46.6967473 59.64,45.5418177 L59.64,32.1705111 C59.64,31.0189778 58.6985278,30.0821918 57.5399327,30.0821918 L5.46006732,30.0821918 C4.29796441,30.0821918 3.36,31.0155815 3.36,32.1705111 L3.36,32.1705111 Z M0,32.1705111 C0,29.1711713 2.44069703,26.739726 5.46006732,26.739726 L57.5399327,26.739726 C60.5554446,26.739726 63,29.1742187 63,32.1705111 L63,45.5418177 C63,48.5411575 60.559303,50.9726027 57.5399327,50.9726027 L5.46006732,50.9726027 C2.44455541,50.9726027 0,48.53811 0,45.5418177 L0,32.1705111 L0,32.1705111 Z"></path>
                        <path d="M49.98,17.9657534 C53.2274343,17.9657534 55.86,15.3469259 55.86,12.1164384 C55.86,8.88595085 53.2274343,6.26712329 49.98,6.26712329 C46.7325657,6.26712329 44.1,8.88595085 44.1,12.1164384 C44.1,15.3469259 46.7325657,17.9657534 49.98,17.9657534 L49.98,17.9657534 Z M49.98,14.6232877 C48.5882424,14.6232877 47.46,13.500933 47.46,12.1164384 C47.46,10.7319437 48.5882424,9.60958904 49.98,9.60958904 C51.3717576,9.60958904 52.5,10.7319437 52.5,12.1164384 C52.5,13.500933 51.3717576,14.6232877 49.98,14.6232877 L49.98,14.6232877 Z"></path>
                        <path d="M8.4497055,56.8076279 C9.72484796,61.9058286 16.998746,62.3037981 18.5643987,56.8641314 C18.8197945,55.9767902 18.303728,55.0514993 17.4117319,54.7974362 C16.5197358,54.5433732 15.5895909,55.0567466 15.3341951,55.9440878 C14.7410088,58.0050402 12.1765466,57.8647334 11.7102945,56.0005913 C11.4862684,55.1049032 10.5747517,54.5594658 9.6743649,54.7823228 C8.77397811,55.0051798 8.22567942,55.9119398 8.4497055,56.8076279 L8.4497055,56.8076279 Z"></path>
                        <path d="M44.1497055,56.8076279 C45.424848,61.9058286 52.698746,62.3037981 54.2643987,56.8641314 C54.5197945,55.9767902 54.003728,55.0514993 53.1117319,54.7974362 C52.2197358,54.5433732 51.2895909,55.0567466 51.0341951,55.9440878 C50.4410088,58.0050402 47.8765466,57.8647334 47.4102945,56.0005913 C47.1862684,55.1049032 46.2747517,54.5594658 45.3743649,54.7823228 C44.4739781,55.0051798 43.9256794,55.9119398 44.1497055,56.8076279 L44.1497055,56.8076279 Z"></path>
                    </g>
                    <ellipse id="Oval-11-Copy" cx="49.98" cy="38.8561644" rx="4.2" ry="4.17808219"></ellipse>
                </g>
                <g id="Group-Copy" transform="translate(29.000000, 265.000000)" fill="#80C478" sketch:type="MSShapeGroup">
                    <g id="Group">
                        <path d="M9.66,8.7739726 L9.66,15.4589041 C9.66,16.3819005 10.4121616,17.130137 11.34,17.130137 C12.2678384,17.130137 13.02,16.3819005 13.02,15.4589041 L13.02,8.7739726 C13.02,7.85097617 12.2678384,7.10273973 11.34,7.10273973 C10.4121616,7.10273973 9.66,7.85097617 9.66,8.7739726 L9.66,8.7739726 Z" id="Shape"></path>
                        <path d="M9.66,35.5136986 L9.66,42.1986301 C9.66,43.1216266 10.4121616,43.869863 11.34,43.869863 C12.2678384,43.869863 13.02,43.1216266 13.02,42.1986301 L13.02,35.5136986 C13.02,34.5907022 12.2678384,33.8424658 11.34,33.8424658 C10.4121616,33.8424658 9.66,34.5907022 9.66,35.5136986 L9.66,35.5136986 Z" id="Shape"></path>
                        <path d="M17.64,8.7739726 L17.64,15.4589041 C17.64,16.3819005 18.3921616,17.130137 19.32,17.130137 C20.2478384,17.130137 21,16.3819005 21,15.4589041 L21,8.7739726 C21,7.85097617 20.2478384,7.10273973 19.32,7.10273973 C18.3921616,7.10273973 17.64,7.85097617 17.64,8.7739726 L17.64,8.7739726 Z" id="Shape"></path>
                        <path d="M17.64,35.5136986 L17.64,42.1986301 C17.64,43.1216266 18.3921616,43.869863 19.32,43.869863 C20.2478384,43.869863 21,43.1216266 21,42.1986301 L21,35.5136986 C21,34.5907022 20.2478384,33.8424658 19.32,33.8424658 C18.3921616,33.8424658 17.64,34.5907022 17.64,35.5136986 L17.64,35.5136986 Z" id="Shape"></path>
                        <path d="M3.36,5.43078505 L3.36,5.43078505 L3.36,18.8020917 C3.36,19.9536249 4.3014722,20.890411 5.46006732,20.890411 L57.5399327,20.890411 C58.7020356,20.890411 59.64,19.9570212 59.64,18.8020917 L59.64,5.43078505 C59.64,4.27925181 58.6985278,3.34246575 57.5399327,3.34246575 L5.46006732,3.34246575 C4.29796441,3.34246575 3.36,4.27585547 3.36,5.43078505 L3.36,5.43078505 Z M0,5.43078505 C0,2.43144529 2.44069703,0 5.46006732,0 L57.5399327,0 C60.5554446,0 63,2.43449271 63,5.43078505 L63,18.8020917 C63,21.8014314 60.559303,24.2328767 57.5399327,24.2328767 L5.46006732,24.2328767 C2.44455541,24.2328767 0,21.798384 0,18.8020917 L0,5.43078505 L0,5.43078505 Z" id="Shape"></path>
                        <path d="M3.36,32.1705111 L3.36,32.1705111 L3.36,45.5418177 C3.36,46.6933509 4.3014722,47.630137 5.46006732,47.630137 L57.5399327,47.630137 C58.7020356,47.630137 59.64,46.6967473 59.64,45.5418177 L59.64,32.1705111 C59.64,31.0189778 58.6985278,30.0821918 57.5399327,30.0821918 L5.46006732,30.0821918 C4.29796441,30.0821918 3.36,31.0155815 3.36,32.1705111 L3.36,32.1705111 Z M0,32.1705111 C0,29.1711713 2.44069703,26.739726 5.46006732,26.739726 L57.5399327,26.739726 C60.5554446,26.739726 63,29.1742187 63,32.1705111 L63,45.5418177 C63,48.5411575 60.559303,50.9726027 57.5399327,50.9726027 L5.46006732,50.9726027 C2.44455541,50.9726027 0,48.53811 0,45.5418177 L0,32.1705111 L0,32.1705111 Z" id="Shape"></path>
                        <path d="M49.98,17.9657534 C53.2274343,17.9657534 55.86,15.3469259 55.86,12.1164384 C55.86,8.88595085 53.2274343,6.26712329 49.98,6.26712329 C46.7325657,6.26712329 44.1,8.88595085 44.1,12.1164384 C44.1,15.3469259 46.7325657,17.9657534 49.98,17.9657534 L49.98,17.9657534 Z M49.98,14.6232877 C48.5882424,14.6232877 47.46,13.500933 47.46,12.1164384 C47.46,10.7319437 48.5882424,9.60958904 49.98,9.60958904 C51.3717576,9.60958904 52.5,10.7319437 52.5,12.1164384 C52.5,13.500933 51.3717576,14.6232877 49.98,14.6232877 L49.98,14.6232877 Z" id="Shape"></path>
                        <path d="M8.4497055,56.8076279 C9.72484796,61.9058286 16.998746,62.3037981 18.5643987,56.8641314 C18.8197945,55.9767902 18.303728,55.0514993 17.4117319,54.7974362 C16.5197358,54.5433732 15.5895909,55.0567466 15.3341951,55.9440878 C14.7410088,58.0050402 12.1765466,57.8647334 11.7102945,56.0005913 C11.4862684,55.1049032 10.5747517,54.5594658 9.6743649,54.7823228 C8.77397811,55.0051798 8.22567942,55.9119398 8.4497055,56.8076279 L8.4497055,56.8076279 Z" id="Shape"></path>
                        <path d="M44.1497055,56.8076279 C45.424848,61.9058286 52.698746,62.3037981 54.2643987,56.8641314 C54.5197945,55.9767902 54.003728,55.0514993 53.1117319,54.7974362 C52.2197358,54.5433732 51.2895909,55.0567466 51.0341951,55.9440878 C50.4410088,58.0050402 47.8765466,57.8647334 47.4102945,56.0005913 C47.1862684,55.1049032 46.2747517,54.5594658 45.3743649,54.7823228 C44.4739781,55.0051798 43.9256794,55.9119398 44.1497055,56.8076279 L44.1497055,56.8076279 Z" id="Shape"></path>
                    </g>
                    <ellipse id="Oval-11-Copy" cx="49.98" cy="38.8561644" rx="4.2" ry="4.17808219"></ellipse>
                </g>
                <g id="Oval-13-+-Line-+-Line" transform="translate(916.000000, 282.000000)" stroke="#7058B7" stroke-width="3.4" sketch:type="MSShapeGroup">
                    <circle id="Oval-13" cx="21.5" cy="21.5" r="21.5"></circle>
                    <path d="M21.2696429,12.2473214 L21.2696429,32.2883929" id="Line" stroke-linecap="round"></path>
                    <path d="M30.4507847,22.2678571 L12.088501,22.2678571" id="Line" stroke-linecap="round"></path>
                </g>
                <g transform="translate(20.798913, 0.763353)">
                    <path d="M34.0549568,33.731643 C33.0518646,29.5706234 32.5792071,21.7076196 32.9822594,15.0826237 C33.1964217,11.5624233 33.6410134,8.59928878 34.2807887,6.5553025 C34.5900533,5.56724831 34.9315529,4.84153932 35.2616097,4.41922794 C35.3739432,4.27549587 35.4643334,4.19262444 35.5222381,4.15871224 C35.5190782,4.16056283 35.4857683,4.16993321 35.4544741,4.16993321 C35.576243,4.16993321 35.7239114,4.2462711 35.966429,4.51852832 C36.3444123,4.9428631 36.7314407,5.6600442 37.0842255,6.63674191 C37.8183459,8.66918098 38.3356585,11.6208599 38.584677,15.1004163 C39.0656827,21.8215476 38.4741392,29.5848614 37.2027428,33.5944715 L41.0541121,34.8156918 C42.5004618,30.2543311 43.1292738,22.0019108 42.6147195,14.8120016 C42.3414633,10.9937704 41.7642731,7.7004419 40.8842822,5.26415508 C39.7345915,2.08119447 37.9961616,0.129583582 35.4544741,0.129583582 C34.107872,0.129583582 32.9615508,0.800933609 32.0781765,1.93122095 C31.4049097,2.79267348 30.8672029,3.93533555 30.4249092,5.34839797 C29.6711259,7.75662268 29.1816811,11.0186967 28.9493663,14.8372701 C28.5237307,21.8334702 29.0197334,30.0848391 30.1271268,34.6785204 L34.0549568,33.731643 L34.0549568,33.731643 Z" id="Shape" fill="#EFC041" sketch:type="MSShapeGroup"></path>
                    <path d="M42.5618888,43.5323523 C46.6669835,44.7441588 53.7128733,48.2663273 59.2487619,51.9278787 C62.1902637,53.873449 64.5341176,55.7400439 65.984374,57.3160986 C66.6854218,58.0779568 67.1431544,58.7365586 67.3438584,59.2335518 C67.4121672,59.4027016 67.4387409,59.5224175 67.4391574,59.5895205 C67.4391347,59.5858587 67.4476746,59.5523262 67.4633217,59.5252247 C67.4024373,59.6306797 67.2624925,59.7203953 66.905452,59.7942931 C66.3489757,59.9094688 65.5343645,59.8860547 64.512127,59.7032265 C62.3849229,59.3227739 59.5700377,58.2949402 56.4321442,56.7708184 C50.370971,53.8268159 43.9435157,49.4328673 41.1067898,46.3270007 L38.1234972,49.0517742 C41.3505767,52.5850301 48.1829763,57.2558074 54.6668975,60.4051449 C58.1102108,62.0776137 61.250912,63.2244166 63.8007937,63.6804655 C67.1321638,64.2762845 69.6915234,63.7465654 70.9623671,61.5453995 C71.6356682,60.3792078 71.6274226,59.0507896 71.0902522,57.7206214 C70.6808458,56.7068289 69.9601248,55.6698302 68.9575238,54.5802613 C67.2488316,52.7233535 64.668515,50.6684448 61.4776909,48.5579676 C55.6316217,44.6912563 48.2377252,40.9951229 43.7057839,39.657313 L42.5618888,43.5323523 L42.5618888,43.5323523 Z" id="Shape" fill="#EFC041" sketch:type="MSShapeGroup"></path>
                    <path d="M27.8254495,39.3560764 C23.2935082,40.6938862 15.8996117,44.3900197 10.0535425,48.256731 C6.86271838,50.3672082 4.28240181,52.4221169 2.57370964,54.2790247 C1.57110857,55.3685935 0.850387578,56.4055923 0.440981218,57.4193847 C-0.096189216,58.7495529 -0.104434805,60.0779712 0.568866274,61.2441629 C1.83971,63.4453288 4.39906957,63.9750478 7.73043967,63.3792289 C10.2803214,62.9231799 13.4210226,61.7763771 16.8643359,60.1039083 C23.3482571,56.9545707 30.1806567,52.2837934 33.4077362,48.7505376 L30.4244437,46.025764 C27.5877177,49.1316307 21.1602624,53.5255793 15.0990892,56.4695818 C11.9611957,57.9937036 9.14631048,59.0215372 7.0191064,59.4019899 C5.99686895,59.5848181 5.18225771,59.6082322 4.62578137,59.4930565 C4.26874087,59.4191586 4.12879614,59.329443 4.0679117,59.2239881 C4.08355877,59.2510896 4.09209875,59.2846221 4.09207602,59.2882839 C4.09249253,59.2211809 4.11906619,59.1014649 4.18737503,58.9323152 C4.38807903,58.4353219 4.84581165,57.7767201 5.54685937,57.014862 C6.99711578,55.4388072 9.34096969,53.5722123 12.2824715,51.6266421 C17.8183601,47.9650906 24.8642499,44.4429222 28.9693447,43.2311157 L27.8254495,39.3560764 L27.8254495,39.3560764 Z" id="Shape" fill="#EFC041" sketch:type="MSShapeGroup"></path>
                    <path d="M35.8315217,50.0790704 C40.7641421,50.0790704 44.7628209,46.0803916 44.7628209,41.1477713 C44.7628209,36.2151509 40.7641421,32.2164721 35.8315217,32.2164721 C30.8989014,32.2164721 26.9002226,36.2151509 26.9002226,41.1477713 C26.9002226,46.0803916 30.8989014,50.0790704 35.8315217,50.0790704 L35.8315217,50.0790704 Z M35.8315217,46.0387208 C33.1303249,46.0387208 30.9405722,43.8489681 30.9405722,41.1477713 C30.9405722,38.4465744 33.1303249,36.2568217 35.8315217,36.2568217 C38.5327186,36.2568217 40.7224713,38.4465744 40.7224713,41.1477713 C40.7224713,43.8489681 38.5327186,46.0387208 35.8315217,46.0387208 L35.8315217,46.0387208 Z" id="Shape" fill="#EFC041" sketch:type="MSShapeGroup"></path>
                    <path d="M13.0717438,41.2383136 C13.0717438,34.4619334 17.4836282,26.5990014 22.7093234,23.0465848 C23.6320217,22.4193364 23.8715312,21.1628564 23.2442828,20.2401581 C22.6170344,19.3174597 21.3605544,19.0779503 20.4378561,19.7051986 C14.134739,23.9900444 9.0313942,33.0853085 9.0313942,41.2383136 C9.0313942,42.3540254 9.93585727,43.2584884 11.051569,43.2584884 C12.1672808,43.2584884 13.0717438,42.3540254 13.0717438,41.2383136 L13.0717438,41.2383136 Z" id="Shape" fill="#EFC041" sketch:type="MSShapeGroup"></path>
                    <path d="M48.6734245,23.0578134 C54.2243102,26.9445854 58.1346941,35.0685819 58.0473278,41.3868033 C58.0319016,42.5024084 58.9237728,43.4192905 60.0393779,43.4347167 C61.154983,43.4501429 62.071865,42.5582717 62.0872912,41.4426666 C62.1926705,33.8217688 57.6694247,24.4245243 50.9908738,19.7481527 C50.0769363,19.1082067 48.8172648,19.3303208 48.1773188,20.2442584 C47.5373729,21.1581959 47.7594869,22.4178674 48.6734245,23.0578134 L48.6734245,23.0578134 Z" id="Shape" fill="#EFC041" sketch:type="MSShapeGroup"></path>
                    <path d="M46.0773822,61.8260731 C40.1506265,65.1113274 31.1346273,65.0646315 25.4941463,62.2163813 C24.4982095,61.7134672 23.2831508,62.1131411 22.7802367,63.1090779 C22.2773226,64.1050147 22.6769965,65.3200734 23.6729333,65.8229875 C30.4763557,69.2584834 40.9054035,69.3124979 48.0361825,65.3598425 C49.012006,64.8189347 49.3645748,63.5893811 48.8236671,62.6135576 C48.2827593,61.6377342 47.0532056,61.2851653 46.0773822,61.8260731 L46.0773822,61.8260731 Z" id="Shape" fill="#EFC041" sketch:type="MSShapeGroup"></path>
                    <g id="Shape-+-Path-62" transform="translate(32.110147, 49.334796)">
                        <mask id="mask-3" sketch:name="Mask" fill="white">
                            <use xlink:href="#path-2"></use>
                        </mask>
                        <use id="Mask" sketch:type="MSShapeGroup" xlink:href="#path-2"></use>
                        <path d="M1.48854986,-0.975761799 L1.48854986,47.8488002 C1.48854986,49.0408149 2.39301294,50.0071336 3.50872468,50.0071336 C4.62443642,50.0071336 5.5288995,49.0408149 5.5288995,47.8488002 L5.5288995,-0.975761799 C5.5288995,-2.16777643 4.62443642,-3.13409522 3.50872468,-3.13409522 C2.39301294,-3.13409522 1.48854986,-2.16777643 1.48854986,-0.975761799 L1.48854986,-0.975761799 Z" id="Shape" fill="#EFC041" sketch:type="MSShapeGroup" mask="url(#mask-3)"></path>
                        <mask id="mask-5" sketch:name="Mask" fill="white">
                            <use xlink:href="#path-4"></use>
                        </mask>
                        <use id="Mask" sketch:type="MSShapeGroup" xlink:href="#path-4"></use>
                        <path d="M1.48854986,-0.975761799 L1.48854986,47.8488002 C1.48854986,49.0408149 2.39301294,50.0071336 3.50872468,50.0071336 C4.62443642,50.0071336 5.5288995,49.0408149 5.5288995,47.8488002 L5.5288995,-0.975761799 C5.5288995,-2.16777643 4.62443642,-3.13409522 3.50872468,-3.13409522 C2.39301294,-3.13409522 1.48854986,-2.16777643 1.48854986,-0.975761799 L1.48854986,-0.975761799 Z" id="Shape" fill="#EFC041" sketch:type="MSShapeGroup" mask="url(#mask-5)"></path>
                    </g>
                </g>
            </g>
        </g>
    </g>
</svg>