<?xml version="1.0" encoding="UTF-8" standalone="no"?>
<svg width="820px" height="353px" viewBox="0 0 820 353" version="1.1" xmlns="http://www.w3.org/2000/svg" xmlns:xlink="http://www.w3.org/1999/xlink" xmlns:sketch="http://www.bohemiancoding.com/sketch/ns">
    <!-- Generator: Sketch 3.4.2 (15855) - http://www.bohemiancoding.com/sketch -->
    <title>Group</title>
    <desc>Created with Sketch.</desc>
    <defs>
        <path id="path-1" d="M0.617391007,0.307968662 C1.70036918,0.672837818 5.68194934,0.460395515 6.67251614,0.0539931591 C7.66308295,-0.352409196 8.17850995,9.12671289 8.17850995,9.12671289 C8.17850995,9.12671289 6.24617785,10.5490173 5.58351565,10.9344454 C4.92085346,11.3198735 2.5113049,11.4654474 1.50890113,11.0820959 C0.506497366,10.6987445 -0.465587165,-0.056900494 0.617391007,0.307968662 Z"></path>
        <path id="path-3" d="M1.46985992,22.8445056 C2.1941988,23.0841522 4.76448132,22.9915332 5.79533533,22.8445056 C6.82618934,22.6974781 26.2784706,41.2520196 17.8202345,45.3887262 C9.36199846,49.5254329 6.17723265,56.7019544 -0.900855178,56.7019544 C-7.97894301,56.7019544 0.745521054,22.6048591 1.46985992,22.8445056 Z"></path>
    </defs>
    <g id="Page-1" stroke="none" stroke-width="1" fill="none" fill-rule="evenodd" sketch:type="MSPage">
        <g id="Group" sketch:type="MSLayerGroup">
            <path d="M350.867894,175.283759 C399.816367,175.283759 397.590331,136.662575 446.971847,136.662575" id="Path-14" stroke="#ECDCC9" stroke-width="8" sketch:type="MSShapeGroup"></path>
            <path d="M351.293638,176.621552 C400.242112,176.621552 397.130526,215.150474 446.512043,215.150474" id="Path-14-Copy" stroke="#ECDCC9" stroke-width="8" sketch:type="MSShapeGroup"></path>
            <g id="Path-31-+-Path-32" transform="translate(583.000000, 52.000000)" stroke="#ECDCCA" stroke-width="4" stroke-linecap="round" sketch:type="MSShapeGroup">
                <path d="M0.12109375,64.1875 C22.4868561,32.7629511 62.0905934,21.1833995 96.4570312,7.66796875" id="Path-31"></path>
                <path d="M87.3242188,1.08984375 C119.770472,-0.187025451 115.759047,-2.53206554 94.28125,20.828125" id="Path-32"></path>
            </g>
            <g id="Path-31-+-Path-32-Copy" transform="translate(639.000000, 264.500000) scale(1, -1) translate(-639.000000, -264.500000) translate(583.000000, 232.000000)" stroke="#ECDCCA" stroke-width="4" stroke-linecap="round" sketch:type="MSShapeGroup">
                <path d="M0.12109375,64.1875 C22.4868561,32.7629511 62.0905934,21.1833995 96.4570312,7.66796875" id="Path-31"></path>
                <path d="M87.3242188,1.08984375 C119.770472,-0.187025451 115.759047,-2.53206554 94.28125,20.828125" id="Path-32"></path>
            </g>
            <g id="Path-31-+-Path-32" transform="translate(174.000000, 86.500000) scale(-1, 1) translate(-174.000000, -86.500000) translate(118.000000, 54.000000)" stroke="#ECDCCA" stroke-width="4" stroke-linecap="round" sketch:type="MSShapeGroup">
                <path d="M0.12109375,64.1875 C22.4868561,32.7629511 62.0905934,21.1833995 96.4570312,7.66796875" id="Path-31"></path>
                <path d="M87.3242188,1.08984375 C119.770472,-0.187025451 115.759047,-2.53206554 94.28125,20.828125" id="Path-32"></path>
            </g>
            <g id="Path-31-+-Path-32-Copy" transform="translate(178.000000, 262.500000) scale(-1, -1) translate(-178.000000, -262.500000) translate(122.000000, 230.000000)" stroke="#ECDCCA" stroke-width="4" stroke-linecap="round" sketch:type="MSShapeGroup">
                <path d="M0.12109375,64.1875 C22.4868561,32.7629511 62.0905934,21.1833995 96.4570312,7.66796875" id="Path-31"></path>
                <path d="M87.3242188,1.08984375 C119.770472,-0.187025451 115.759047,-2.53206554 94.28125,20.828125" id="Path-32"></path>
            </g>
            <rect id="Rectangle-46-Copy-4" stroke="#7058B7" stroke-width="3" fill="#A48DE9" sketch:type="MSShapeGroup" x="446.582595" y="200.862068" width="116.46428" height="29.2129304" rx="5"></rect>
            <rect id="Rectangle-46-Copy" stroke="#009A71" stroke-width="3" fill="#43D475" sketch:type="MSShapeGroup" x="239.953125" y="161.218104" width="116.46428" height="29.2129304" rx="5"></rect>
            <path d="M252.830394,179.676724 L254.198394,179.676724 L254.198394,174.996724 C254.786394,174.408724 255.206394,174.096724 255.818394,174.096724 C256.598394,174.096724 256.934394,174.552724 256.934394,175.692724 L256.934394,179.676724 L258.314394,179.676724 L258.314394,175.524724 C258.314394,173.844724 257.690394,172.908724 256.286394,172.908724 C255.386394,172.908724 254.726394,173.400724 254.150394,173.952724 L254.198394,172.644724 L254.198394,170.112724 L252.830394,170.112724 L252.830394,179.676724 Z M262.502394,179.832724 C262.982394,179.832724 263.426394,179.712724 263.798394,179.592724 L263.546394,178.572724 C263.354394,178.656724 263.066394,178.728724 262.838394,178.728724 C262.154394,178.728724 261.878394,178.320724 261.878394,177.528724 L261.878394,174.180724 L263.594394,174.180724 L263.594394,173.076724 L261.878394,173.076724 L261.878394,171.252724 L260.714394,171.252724 L260.558394,173.076724 L259.538394,173.148724 L259.538394,174.180724 L260.498394,174.180724 L260.498394,177.516724 C260.498394,178.908724 261.014394,179.832724 262.502394,179.832724 L262.502394,179.832724 Z M266.990394,179.832724 C267.470394,179.832724 267.914394,179.712724 268.286394,179.592724 L268.034394,178.572724 C267.842394,178.656724 267.554394,178.728724 267.326394,178.728724 C266.642394,178.728724 266.366394,178.320724 266.366394,177.528724 L266.366394,174.180724 L268.082394,174.180724 L268.082394,173.076724 L266.366394,173.076724 L266.366394,171.252724 L265.202394,171.252724 L265.046394,173.076724 L264.026394,173.148724 L264.026394,174.180724 L264.986394,174.180724 L264.986394,177.516724 C264.986394,178.908724 265.502394,179.832724 266.990394,179.832724 L266.990394,179.832724 Z M269.522394,182.352724 L270.890394,182.352724 L270.890394,180.216724 L270.854394,179.088724 C271.418394,179.568724 272.006394,179.832724 272.594394,179.832724 C274.082394,179.832724 275.438394,178.536724 275.438394,176.268724 C275.438394,174.240724 274.502394,172.908724 272.822394,172.908724 C272.090394,172.908724 271.370394,173.316724 270.794394,173.796724 L270.758394,173.796724 L270.650394,173.076724 L269.522394,173.076724 L269.522394,182.352724 Z M272.330394,178.692724 C271.922394,178.692724 271.406394,178.536724 270.890394,178.092724 L270.890394,174.864724 C271.454394,174.324724 271.946394,174.060724 272.462394,174.060724 C273.566394,174.060724 274.010394,174.912724 274.010394,176.292724 C274.010394,177.840724 273.290394,178.692724 272.330394,178.692724 L272.330394,178.692724 Z" id="http" fill="#FFFFFF" sketch:type="MSShapeGroup"></path>
            <rect id="Rectangle-46-Copy-7" stroke="#2B97C5" stroke-width="3" fill="#36BDF7" sketch:type="MSShapeGroup" x="446.582595" y="121.925001" width="116.46428" height="29.2129304" rx="5"></rect>
            <path d="M460.75706,141.005173 L462.14906,141.005173 L462.14906,133.337173 L464.75306,133.337173 L464.75306,132.173173 L458.16506,132.173173 L458.16506,133.337173 L460.75706,133.337173 L460.75706,141.005173 Z M466.80506,141.005173 L468.40106,141.005173 L469.20506,137.753173 C469.37306,137.129173 469.49306,136.517173 469.62506,135.833173 L469.68506,135.833173 C469.82906,136.517173 469.94906,137.117173 470.10506,137.741173 L470.94506,141.005173 L472.60106,141.005173 L474.30506,134.405173 L473.00906,134.405173 L472.15706,137.981173 C472.01306,138.617173 471.90506,139.229173 471.77306,139.853173 L471.72506,139.853173 C471.56906,139.229173 471.43706,138.617173 471.28106,137.981173 L470.33306,134.405173 L469.04906,134.405173 L468.12506,137.981173 C467.96906,138.605173 467.83706,139.229173 467.69306,139.853173 L467.64506,139.853173 C467.52506,139.229173 467.41706,138.617173 467.28506,137.981173 L466.40906,134.405173 L465.01706,134.405173 L466.80506,141.005173 Z M475.67306,141.005173 L477.04106,141.005173 L477.04106,134.405173 L475.67306,134.405173 L475.67306,141.005173 Z M476.35706,133.169173 C476.86106,133.169173 477.24506,132.833173 477.24506,132.353173 C477.24506,131.861173 476.86106,131.537173 476.35706,131.537173 C475.85306,131.537173 475.48106,131.861173 475.48106,132.353173 C475.48106,132.833173 475.85306,133.169173 476.35706,133.169173 L476.35706,133.169173 Z M481.33706,141.161173 C481.81706,141.161173 482.26106,141.041173 482.63306,140.921173 L482.38106,139.901173 C482.18906,139.985173 481.90106,140.057173 481.67306,140.057173 C480.98906,140.057173 480.71306,139.649173 480.71306,138.857173 L480.71306,135.509173 L482.42906,135.509173 L482.42906,134.405173 L480.71306,134.405173 L480.71306,132.581173 L479.54906,132.581173 L479.39306,134.405173 L478.37306,134.477173 L478.37306,135.509173 L479.33306,135.509173 L479.33306,138.845173 C479.33306,140.237173 479.84906,141.161173 481.33706,141.161173 L481.33706,141.161173 Z M485.82506,141.161173 C486.30506,141.161173 486.74906,141.041173 487.12106,140.921173 L486.86906,139.901173 C486.67706,139.985173 486.38906,140.057173 486.16106,140.057173 C485.47706,140.057173 485.20106,139.649173 485.20106,138.857173 L485.20106,135.509173 L486.91706,135.509173 L486.91706,134.405173 L485.20106,134.405173 L485.20106,132.581173 L484.03706,132.581173 L483.88106,134.405173 L482.86106,134.477173 L482.86106,135.509173 L483.82106,135.509173 L483.82106,138.845173 C483.82106,140.237173 484.33706,141.161173 485.82506,141.161173 L485.82506,141.161173 Z M490.90106,141.161173 C491.76506,141.161173 492.52106,140.873173 493.13306,140.465173 L492.65306,139.589173 C492.17306,139.901173 491.66906,140.081173 491.08106,140.081173 C489.94106,140.081173 489.14906,139.325173 489.04106,138.065173 L493.32506,138.065173 C493.36106,137.909173 493.38506,137.633173 493.38506,137.369173 C493.38506,135.497173 492.44906,134.237173 490.69706,134.237173 C489.14906,134.237173 487.68506,135.569173 487.68506,137.717173 C487.68506,139.889173 489.11306,141.161173 490.90106,141.161173 L490.90106,141.161173 Z M489.02906,137.117173 C489.16106,135.953173 489.89306,135.317173 490.72106,135.317173 C491.68106,135.317173 492.19706,135.977173 492.19706,137.117173 L489.02906,137.117173 Z M494.93306,141.005173 L496.30106,141.005173 L496.30106,136.889173 C496.72106,135.845173 497.36906,135.473173 497.90906,135.473173 C498.17306,135.473173 498.34106,135.509173 498.56906,135.581173 L498.82106,134.381173 C498.61706,134.285173 498.40106,134.237173 498.07706,134.237173 C497.36906,134.237173 496.67306,134.741173 496.20506,135.593173 L496.16906,135.593173 L496.06106,134.405173 L494.93306,134.405173 L494.93306,141.005173 Z" id="Twitter" fill="#FFFFFF" sketch:type="MSShapeGroup"></path>
            <path d="M459.666257,216.951792 L460.026257,215.763792 C460.314257,214.803792 460.590257,213.831792 460.842257,212.823792 L460.890257,212.823792 C461.166257,213.819792 461.430257,214.803792 461.730257,215.763792 L462.078257,216.951792 L459.666257,216.951792 Z M463.158257,220.563792 L464.634257,220.563792 L461.706257,211.731792 L460.098257,211.731792 L457.170257,220.563792 L458.586257,220.563792 L459.342257,218.043792 L462.414257,218.043792 L463.158257,220.563792 Z M465.678257,220.563792 L467.046257,220.563792 L467.046257,215.883792 C467.598257,215.283792 468.090257,214.983792 468.534257,214.983792 C469.290257,214.983792 469.638257,215.439792 469.638257,216.579792 L469.638257,220.563792 L471.018257,220.563792 L471.018257,215.883792 C471.570257,215.283792 472.050257,214.983792 472.506257,214.983792 C473.250257,214.983792 473.610257,215.439792 473.610257,216.579792 L473.610257,220.563792 L474.990257,220.563792 L474.990257,216.411792 C474.990257,214.731792 474.342257,213.795792 472.962257,213.795792 C472.134257,213.795792 471.462257,214.311792 470.814257,215.007792 C470.526257,214.251792 469.974257,213.795792 468.990257,213.795792 C468.174257,213.795792 467.514257,214.287792 466.950257,214.887792 L466.914257,214.887792 L466.806257,213.963792 L465.678257,213.963792 L465.678257,220.563792 Z M478.542257,220.719792 C479.334257,220.719792 480.042257,220.323792 480.642257,219.807792 L480.678257,219.807792 L480.798257,220.563792 L481.926257,220.563792 L481.926257,216.591792 C481.926257,214.839792 481.170257,213.795792 479.526257,213.795792 C478.470257,213.795792 477.546257,214.227792 476.862257,214.659792 L477.378257,215.595792 C477.942257,215.235792 478.590257,214.923792 479.286257,214.923792 C480.258257,214.923792 480.534257,215.595792 480.546257,216.363792 C477.798257,216.663792 476.598257,217.395792 476.598257,218.811792 C476.598257,219.975792 477.402257,220.719792 478.542257,220.719792 L478.542257,220.719792 Z M478.962257,219.627792 C478.374257,219.627792 477.930257,219.363792 477.930257,218.715792 C477.930257,217.971792 478.590257,217.479792 480.546257,217.239792 L480.546257,218.859792 C480.006257,219.351792 479.538257,219.627792 478.962257,219.627792 L478.962257,219.627792 Z M483.282257,220.563792 L488.382257,220.563792 L488.382257,219.459792 L485.022257,219.459792 L488.274257,214.695792 L488.274257,213.963792 L483.642257,213.963792 L483.642257,215.067792 L486.534257,215.067792 L483.282257,219.819792 L483.282257,220.563792 Z M492.270257,220.719792 C493.902257,220.719792 495.378257,219.459792 495.378257,217.275792 C495.378257,215.067792 493.902257,213.795792 492.270257,213.795792 C490.638257,213.795792 489.162257,215.067792 489.162257,217.275792 C489.162257,219.459792 490.638257,220.719792 492.270257,220.719792 L492.270257,220.719792 Z M492.270257,219.591792 C491.238257,219.591792 490.590257,218.667792 490.590257,217.275792 C490.590257,215.871792 491.238257,214.935792 492.270257,214.935792 C493.314257,214.935792 493.962257,215.871792 493.962257,217.275792 C493.962257,218.667792 493.314257,219.591792 492.270257,219.591792 L492.270257,219.591792 Z M496.998257,220.563792 L498.366257,220.563792 L498.366257,215.883792 C498.954257,215.295792 499.374257,214.983792 499.986257,214.983792 C500.766257,214.983792 501.102257,215.439792 501.102257,216.579792 L501.102257,220.563792 L502.482257,220.563792 L502.482257,216.411792 C502.482257,214.731792 501.858257,213.795792 500.454257,213.795792 C499.554257,213.795792 498.882257,214.287792 498.270257,214.875792 L498.234257,214.875792 L498.126257,213.963792 L496.998257,213.963792 L496.998257,220.563792 Z M509.826257,220.719792 C511.758257,220.719792 512.934257,219.567792 512.934257,218.151792 C512.934257,216.855792 512.178257,216.207792 511.134257,215.763792 L509.922257,215.247792 C509.202257,214.959792 508.494257,214.671792 508.494257,213.915792 C508.494257,213.207792 509.082257,212.775792 509.982257,212.775792 C510.762257,212.775792 511.374257,213.075792 511.926257,213.567792 L512.658257,212.679792 C511.986257,211.995792 511.014257,211.563792 509.982257,211.563792 C508.302257,211.563792 507.078257,212.607792 507.078257,213.999792 C507.078257,215.283792 508.026257,215.955792 508.878257,216.315792 L510.102257,216.843792 C510.918257,217.203792 511.518257,217.455792 511.518257,218.259792 C511.518257,219.003792 510.918257,219.507792 509.850257,219.507792 C508.998257,219.507792 508.134257,219.099792 507.498257,218.463792 L506.682257,219.423792 C507.486257,220.239792 508.614257,220.719792 509.826257,220.719792 L509.826257,220.719792 Z M516.654257,220.719792 C518.274257,220.719792 519.606257,219.783792 519.606257,218.187792 C519.606257,216.999792 518.802257,216.231792 517.782257,215.979792 L517.782257,215.919792 C518.718257,215.571792 519.306257,214.863792 519.306257,213.843792 C519.306257,212.379792 518.190257,211.563792 516.606257,211.563792 C515.586257,211.563792 514.770257,212.007792 514.074257,212.631792 L514.794257,213.495792 C515.298257,213.003792 515.874257,212.667792 516.558257,212.655792 C517.398257,212.667792 517.914257,213.159792 517.914257,213.939792 C517.914257,214.827792 517.338257,215.487792 515.598257,215.487792 L515.598257,216.507792 C517.590257,216.507792 518.214257,217.143792 518.214257,218.127792 C518.214257,219.039792 517.530257,219.591792 516.534257,219.591792 C515.622257,219.591792 514.962257,219.147792 514.446257,218.619792 L513.774257,219.507792 C514.362257,220.167792 515.262257,220.719792 516.654257,220.719792 L516.654257,220.719792 Z" id="Amazon-S3" fill="#FFFFFF" sketch:type="MSShapeGroup"></path>
            <ellipse id="Oval-5-Copy" stroke="#ECDCC9" stroke-width="5" fill="#009A71" sketch:type="MSShapeGroup" cx="395" cy="159.985929" rx="7" ry="6.98592898"></ellipse>
            <ellipse id="Oval-5-Copy-2" stroke="#ECDCC9" stroke-width="5" fill="#009A71" sketch:type="MSShapeGroup" cx="418" cy="208.985929" rx="7" ry="6.98592898"></ellipse>
            <path d="M694.451531,111.525001 C696.451531,111.525001 697.411531,110.309001 698.195531,108.197001 L701.379531,98.9650011 L699.123531,98.9650011 L697.891531,103.125001 C697.683531,103.957001 697.459531,104.821001 697.251531,105.653001 L697.171531,105.653001 C696.915531,104.789001 696.691531,103.925001 696.419531,103.125001 L694.995531,98.9650011 L692.627531,98.9650011 L696.115531,107.765001 L695.955531,108.293001 C695.699531,109.077001 695.187531,109.653001 694.275531,109.653001 C694.067531,109.653001 693.811531,109.589001 693.651531,109.541001 L693.219531,111.349001 C693.571531,111.461001 693.923531,111.525001 694.451531,111.525001 L694.451531,111.525001 Z M706.467531,108.149001 C708.707531,108.149001 710.771531,106.421001 710.771531,103.461001 C710.771531,100.469001 708.707531,98.7410011 706.467531,98.7410011 C704.227531,98.7410011 702.163531,100.469001 702.163531,103.461001 C702.163531,106.421001 704.227531,108.149001 706.467531,108.149001 L706.467531,108.149001 Z M706.467531,106.229001 C705.251531,106.229001 704.563531,105.141001 704.563531,103.461001 C704.563531,101.765001 705.251531,100.661001 706.467531,100.661001 C707.683531,100.661001 708.371531,101.765001 708.371531,103.461001 C708.371531,105.141001 707.683531,106.229001 706.467531,106.229001 L706.467531,106.229001 Z M715.395531,108.149001 C716.627531,108.149001 717.491531,107.557001 718.259531,106.645001 L718.323531,106.645001 L718.499531,107.925001 L720.419531,107.925001 L720.419531,98.9650011 L718.067531,98.9650011 L718.067531,105.013001 C717.459531,105.813001 716.979531,106.133001 716.243531,106.133001 C715.379531,106.133001 714.995531,105.653001 714.995531,104.261001 L714.995531,98.9650011 L712.643531,98.9650011 L712.643531,104.565001 C712.643531,106.805001 713.475531,108.149001 715.395531,108.149001 L715.395531,108.149001 Z M722.931531,107.925001 L725.267531,107.925001 L725.267531,102.581001 C725.779531,101.285001 726.627531,100.821001 727.331531,100.821001 C727.699531,100.821001 727.955531,100.869001 728.259531,100.965001 L728.675531,98.9330011 C728.403531,98.8210011 728.115531,98.7410011 727.619531,98.7410011 C726.691531,98.7410011 725.731531,99.3810011 725.075531,100.549001 L725.011531,100.549001 L724.851531,98.9650011 L722.931531,98.9650011 L722.931531,107.925001 Z M737.283531,108.149001 C739.523531,108.149001 741.587531,106.421001 741.587531,103.461001 C741.587531,100.469001 739.523531,98.7410011 737.283531,98.7410011 C735.043531,98.7410011 732.979531,100.469001 732.979531,103.461001 C732.979531,106.421001 735.043531,108.149001 737.283531,108.149001 L737.283531,108.149001 Z M737.283531,106.229001 C736.067531,106.229001 735.379531,105.141001 735.379531,103.461001 C735.379531,101.765001 736.067531,100.661001 737.283531,100.661001 C738.499531,100.661001 739.187531,101.765001 739.187531,103.461001 C739.187531,105.141001 738.499531,106.229001 737.283531,106.229001 L737.283531,106.229001 Z M744.915531,107.925001 L747.603531,107.925001 L748.515531,104.021001 C748.707531,103.189001 748.835531,102.357001 749.011531,101.413001 L749.091531,101.413001 C749.267531,102.357001 749.411531,103.173001 749.603531,104.021001 L750.547531,107.925001 L753.315531,107.925001 L755.523531,98.9650011 L753.347531,98.9650011 L752.371531,103.397001 C752.195531,104.261001 752.083531,105.125001 751.923531,106.005001 L751.843531,106.005001 C751.651531,105.125001 751.491531,104.261001 751.283531,103.397001 L750.163531,98.9650011 L748.067531,98.9650011 L746.995531,103.397001 C746.771531,104.245001 746.611531,105.125001 746.435531,106.005001 L746.371531,106.005001 C746.211531,105.125001 746.099531,104.261001 745.923531,103.397001 L744.947531,98.9650011 L742.595531,98.9650011 L744.915531,107.925001 Z M757.235531,107.925001 L759.571531,107.925001 L759.571531,101.765001 C760.243531,101.109001 760.707531,100.757001 761.443531,100.757001 C762.323531,100.757001 762.707531,101.253001 762.707531,102.629001 L762.707531,107.925001 L765.059531,107.925001 L765.059531,102.341001 C765.059531,100.085001 764.227531,98.7410011 762.291531,98.7410011 C761.075531,98.7410011 760.163531,99.3810011 759.379531,100.149001 L759.315531,100.149001 L759.155531,98.9650011 L757.235531,98.9650011 L757.235531,107.925001 Z M773.683531,108.149001 C776.019531,108.149001 777.251531,106.885001 777.251531,105.317001 C777.251531,103.653001 775.939531,103.061001 774.755531,102.613001 C773.811531,102.261001 772.931531,102.021001 772.931531,101.365001 C772.931531,100.853001 773.315531,100.501001 774.115531,100.501001 C774.787531,100.501001 775.411531,100.821001 776.051531,101.269001 L777.107531,99.8450011 C776.355531,99.2850011 775.363531,98.7410011 774.051531,98.7410011 C772.035531,98.7410011 770.723531,99.8770011 770.723531,101.493001 C770.723531,102.981001 772.035531,103.669001 773.171531,104.101001 C774.115531,104.469001 775.043531,104.773001 775.043531,105.445001 C775.043531,106.005001 774.643531,106.389001 773.747531,106.389001 C772.915531,106.389001 772.147531,106.037001 771.347531,105.413001 L770.275531,106.885001 C771.155531,107.621001 772.483531,108.149001 773.683531,108.149001 L773.683531,108.149001 Z M782.931531,108.149001 C784.051531,108.149001 785.187531,107.765001 786.067531,107.157001 L785.267531,105.717001 C784.627531,106.117001 783.987531,106.341001 783.251531,106.341001 C781.923531,106.341001 780.963531,105.573001 780.771531,104.101001 L786.291531,104.101001 C786.355531,103.893001 786.403531,103.461001 786.403531,103.029001 C786.403531,100.549001 785.123531,98.7410011 782.659531,98.7410011 C780.515531,98.7410011 778.483531,100.549001 778.483531,103.461001 C778.483531,106.405001 780.435531,108.149001 782.931531,108.149001 L782.931531,108.149001 Z M780.739531,102.549001 C780.915531,101.237001 781.747531,100.565001 782.691531,100.565001 C783.843531,100.565001 784.387531,101.333001 784.387531,102.549001 L780.739531,102.549001 Z M788.339531,107.925001 L790.675531,107.925001 L790.675531,102.581001 C791.187531,101.285001 792.035531,100.821001 792.739531,100.821001 C793.107531,100.821001 793.363531,100.869001 793.667531,100.965001 L794.083531,98.9330011 C793.811531,98.8210011 793.523531,98.7410011 793.027531,98.7410011 C792.099531,98.7410011 791.139531,99.3810011 790.483531,100.549001 L790.419531,100.549001 L790.259531,98.9650011 L788.339531,98.9650011 L788.339531,107.925001 Z M797.555531,107.925001 L800.275531,107.925001 L803.267531,98.9650011 L801.011531,98.9650011 L799.699531,103.429001 C799.459531,104.309001 799.203531,105.237001 798.979531,106.149001 L798.899531,106.149001 C798.659531,105.237001 798.403531,104.309001 798.179531,103.429001 L796.867531,98.9650011 L794.499531,98.9650011 L797.555531,107.925001 Z M808.515531,108.149001 C809.635531,108.149001 810.771531,107.765001 811.651531,107.157001 L810.851531,105.717001 C810.211531,106.117001 809.571531,106.341001 808.835531,106.341001 C807.507531,106.341001 806.547531,105.573001 806.355531,104.101001 L811.875531,104.101001 C811.939531,103.893001 811.987531,103.461001 811.987531,103.029001 C811.987531,100.549001 810.707531,98.7410011 808.243531,98.7410011 C806.099531,98.7410011 804.067531,100.549001 804.067531,103.461001 C804.067531,106.405001 806.019531,108.149001 808.515531,108.149001 L808.515531,108.149001 Z M806.323531,102.549001 C806.499531,101.237001 807.331531,100.565001 808.275531,100.565001 C809.427531,100.565001 809.971531,101.333001 809.971531,102.549001 L806.323531,102.549001 Z M813.923531,107.925001 L816.259531,107.925001 L816.259531,102.581001 C816.771531,101.285001 817.619531,100.821001 818.323531,100.821001 C818.691531,100.821001 818.947531,100.869001 819.251531,100.965001 L819.667531,98.9330011 C819.395531,98.8210011 819.107531,98.7410011 818.611531,98.7410011 C817.683531,98.7410011 816.723531,99.3810011 816.067531,100.549001 L816.003531,100.549001 L815.843531,98.9650011 L813.923531,98.9650011 L813.923531,107.925001 Z" id="your-own-server" fill="#B7A794" sketch:type="MSShapeGroup"></path>
            <path d="M5.04,352.224 C6.16,352.224 7.296,351.84 8.176,351.232 L7.376,349.792 C6.736,350.192 6.096,350.416 5.36,350.416 C4.032,350.416 3.072,349.648 2.88,348.176 L8.4,348.176 C8.464,347.968 8.512,347.536 8.512,347.104 C8.512,344.624 7.232,342.816 4.768,342.816 C2.624,342.816 0.592,344.624 0.592,347.536 C0.592,350.48 2.544,352.224 5.04,352.224 L5.04,352.224 Z M2.848,346.624 C3.024,345.312 3.856,344.64 4.8,344.64 C5.952,344.64 6.496,345.408 6.496,346.624 L2.848,346.624 Z M10.448,352 L12.784,352 L12.784,345.84 C13.456,345.184 13.92,344.832 14.656,344.832 C15.536,344.832 15.92,345.328 15.92,346.704 L15.92,352 L18.272,352 L18.272,346.416 C18.272,344.16 17.44,342.816 15.504,342.816 C14.288,342.816 13.376,343.456 12.592,344.224 L12.528,344.224 L12.368,343.04 L10.448,343.04 L10.448,352 Z M24.592,352.224 C25.712,352.224 26.848,351.84 27.728,351.232 L26.928,349.792 C26.288,350.192 25.648,350.416 24.912,350.416 C23.584,350.416 22.624,349.648 22.432,348.176 L27.952,348.176 C28.016,347.968 28.064,347.536 28.064,347.104 C28.064,344.624 26.784,342.816 24.32,342.816 C22.176,342.816 20.144,344.624 20.144,347.536 C20.144,350.48 22.096,352.224 24.592,352.224 L24.592,352.224 Z M22.4,346.624 C22.576,345.312 23.408,344.64 24.352,344.64 C25.504,344.64 26.048,345.408 26.048,346.624 L22.4,346.624 Z M34.496,352.224 C36.464,352.224 38.304,350.448 38.304,347.36 C38.304,344.624 36.976,342.816 34.768,342.816 C33.888,342.816 32.992,343.248 32.288,343.888 L32.336,342.448 L32.336,339.232 L30,339.232 L30,352 L31.84,352 L32.048,351.056 L32.096,351.056 C32.832,351.808 33.696,352.224 34.496,352.224 L34.496,352.224 Z M33.968,350.288 C33.488,350.288 32.896,350.112 32.336,349.616 L32.336,345.68 C32.96,345.056 33.504,344.752 34.112,344.752 C35.344,344.752 35.888,345.696 35.888,347.408 C35.888,349.36 35.056,350.288 33.968,350.288 L33.968,350.288 Z M42.96,352.224 C44.192,352.224 45.056,351.632 45.824,350.72 L45.888,350.72 L46.064,352 L47.984,352 L47.984,343.04 L45.632,343.04 L45.632,349.088 C45.024,349.888 44.544,350.208 43.808,350.208 C42.944,350.208 42.56,349.728 42.56,348.336 L42.56,343.04 L40.208,343.04 L40.208,348.64 C40.208,350.88 41.04,352.224 42.96,352.224 L42.96,352.224 Z M52.704,352.224 C53.248,352.224 53.648,352.128 53.92,352.016 L53.632,350.272 C53.472,350.304 53.408,350.304 53.312,350.304 C53.088,350.304 52.832,350.128 52.832,349.6 L52.832,339.232 L50.496,339.232 L50.496,349.488 C50.496,351.152 51.072,352.224 52.704,352.224 L52.704,352.224 Z M57.744,352.224 C58.768,352.224 59.664,351.712 60.448,351.04 L60.496,351.04 L60.672,352 L62.592,352 L62.592,346.768 C62.592,344.176 61.424,342.816 59.152,342.816 C57.744,342.816 56.464,343.344 55.408,344 L56.256,345.552 C57.088,345.072 57.888,344.704 58.72,344.704 C59.824,344.704 60.208,345.376 60.24,346.256 C56.64,346.64 55.088,347.648 55.088,349.568 C55.088,351.088 56.144,352.224 57.744,352.224 L57.744,352.224 Z M58.512,350.384 C57.824,350.384 57.328,350.08 57.328,349.376 C57.328,348.576 58.064,347.984 60.24,347.696 L60.24,349.504 C59.68,350.064 59.184,350.384 58.512,350.384 L58.512,350.384 Z M64.992,352 L67.328,352 L67.328,346.656 C67.84,345.36 68.688,344.896 69.392,344.896 C69.76,344.896 70.016,344.944 70.32,345.04 L70.736,343.008 C70.464,342.896 70.176,342.816 69.68,342.816 C68.752,342.816 67.792,343.456 67.136,344.624 L67.072,344.624 L66.912,343.04 L64.992,343.04 L64.992,352 Z M78.16,352.224 C80.496,352.224 81.728,350.96 81.728,349.392 C81.728,347.728 80.416,347.136 79.232,346.688 C78.288,346.336 77.408,346.096 77.408,345.44 C77.408,344.928 77.792,344.576 78.592,344.576 C79.264,344.576 79.888,344.896 80.528,345.344 L81.584,343.92 C80.832,343.36 79.84,342.816 78.528,342.816 C76.512,342.816 75.2,343.952 75.2,345.568 C75.2,347.056 76.512,347.744 77.648,348.176 C78.592,348.544 79.52,348.848 79.52,349.52 C79.52,350.08 79.12,350.464 78.224,350.464 C77.392,350.464 76.624,350.112 75.824,349.488 L74.752,350.96 C75.632,351.696 76.96,352.224 78.16,352.224 L78.16,352.224 Z M87.408,352.224 C88.528,352.224 89.664,351.84 90.544,351.232 L89.744,349.792 C89.104,350.192 88.464,350.416 87.728,350.416 C86.4,350.416 85.44,349.648 85.248,348.176 L90.768,348.176 C90.832,347.968 90.88,347.536 90.88,347.104 C90.88,344.624 89.6,342.816 87.136,342.816 C84.992,342.816 82.96,344.624 82.96,347.536 C82.96,350.48 84.912,352.224 87.408,352.224 L87.408,352.224 Z M85.216,346.624 C85.392,345.312 86.224,344.64 87.168,344.64 C88.32,344.64 88.864,345.408 88.864,346.624 L85.216,346.624 Z M92.816,352 L95.152,352 L95.152,346.656 C95.664,345.36 96.512,344.896 97.216,344.896 C97.584,344.896 97.84,344.944 98.144,345.04 L98.56,343.008 C98.288,342.896 98,342.816 97.504,342.816 C96.576,342.816 95.616,343.456 94.96,344.624 L94.896,344.624 L94.736,343.04 L92.816,343.04 L92.816,352 Z M102.032,352 L104.752,352 L107.744,343.04 L105.488,343.04 L104.176,347.504 C103.936,348.384 103.68,349.312 103.456,350.224 L103.376,350.224 C103.136,349.312 102.88,348.384 102.656,347.504 L101.344,343.04 L98.976,343.04 L102.032,352 Z M112.992,352.224 C114.112,352.224 115.248,351.84 116.128,351.232 L115.328,349.792 C114.688,350.192 114.048,350.416 113.312,350.416 C111.984,350.416 111.024,349.648 110.832,348.176 L116.352,348.176 C116.416,347.968 116.464,347.536 116.464,347.104 C116.464,344.624 115.184,342.816 112.72,342.816 C110.576,342.816 108.544,344.624 108.544,347.536 C108.544,350.48 110.496,352.224 112.992,352.224 L112.992,352.224 Z M110.8,346.624 C110.976,345.312 111.808,344.64 112.752,344.64 C113.904,344.64 114.448,345.408 114.448,346.624 L110.8,346.624 Z M118.4,352 L120.736,352 L120.736,346.656 C121.248,345.36 122.096,344.896 122.8,344.896 C123.168,344.896 123.424,344.944 123.728,345.04 L124.144,343.008 C123.872,342.896 123.584,342.816 123.088,342.816 C122.16,342.816 121.2,343.456 120.544,344.624 L120.48,344.624 L120.32,343.04 L118.4,343.04 L118.4,352 Z" id="enebular-server" fill="#B7A794" sketch:type="MSShapeGroup"></path>
            <path d="M31.024,124.224 C31.952,124.224 32.848,123.712 33.504,123.072 L33.552,123.072 L33.744,124 L35.648,124 L35.648,111.232 L33.296,111.232 L33.296,114.384 L33.392,115.792 C32.752,115.2 32.128,114.816 31.12,114.816 C29.184,114.816 27.36,116.608 27.36,119.536 C27.36,122.464 28.8,124.224 31.024,124.224 L31.024,124.224 Z M31.632,122.288 C30.448,122.288 29.776,121.36 29.776,119.504 C29.776,117.712 30.624,116.752 31.632,116.752 C32.192,116.752 32.752,116.928 33.296,117.424 L33.296,121.36 C32.784,122.032 32.256,122.288 31.632,122.288 L31.632,122.288 Z M42.064,124.224 C43.184,124.224 44.32,123.84 45.2,123.232 L44.4,121.792 C43.76,122.192 43.12,122.416 42.384,122.416 C41.056,122.416 40.096,121.648 39.904,120.176 L45.424,120.176 C45.488,119.968 45.536,119.536 45.536,119.104 C45.536,116.624 44.256,114.816 41.792,114.816 C39.648,114.816 37.616,116.624 37.616,119.536 C37.616,122.48 39.568,124.224 42.064,124.224 L42.064,124.224 Z M39.872,118.624 C40.048,117.312 40.88,116.64 41.824,116.64 C42.976,116.64 43.52,117.408 43.52,118.624 L39.872,118.624 Z M49.424,124 L52.144,124 L55.136,115.04 L52.88,115.04 L51.568,119.504 C51.328,120.384 51.072,121.312 50.848,122.224 L50.768,122.224 C50.528,121.312 50.272,120.384 50.048,119.504 L48.736,115.04 L46.368,115.04 L49.424,124 Z M56.624,124 L58.96,124 L58.96,115.04 L56.624,115.04 L56.624,124 Z M57.808,113.6 C58.608,113.6 59.2,113.056 59.2,112.32 C59.2,111.552 58.608,111.04 57.808,111.04 C56.992,111.04 56.4,111.552 56.4,112.32 C56.4,113.056 56.992,113.6 57.808,113.6 L57.808,113.6 Z M65.296,124.224 C66.288,124.224 67.376,123.888 68.224,123.136 L67.296,121.584 C66.8,122 66.192,122.304 65.552,122.304 C64.256,122.304 63.328,121.216 63.328,119.536 C63.328,117.84 64.256,116.736 65.616,116.736 C66.128,116.736 66.544,116.944 66.992,117.328 L68.112,115.808 C67.456,115.248 66.608,114.816 65.504,114.816 C63.072,114.816 60.928,116.544 60.928,119.536 C60.928,122.496 62.816,124.224 65.296,124.224 L65.296,124.224 Z M73.328,124.224 C74.448,124.224 75.584,123.84 76.464,123.232 L75.664,121.792 C75.024,122.192 74.384,122.416 73.648,122.416 C72.32,122.416 71.36,121.648 71.168,120.176 L76.688,120.176 C76.752,119.968 76.8,119.536 76.8,119.104 C76.8,116.624 75.52,114.816 73.056,114.816 C70.912,114.816 68.88,116.624 68.88,119.536 C68.88,122.48 70.832,124.224 73.328,124.224 L73.328,124.224 Z M71.136,118.624 C71.312,117.312 72.144,116.64 73.088,116.64 C74.24,116.64 74.784,117.408 74.784,118.624 L71.136,118.624 Z M81.296,124.224 C83.632,124.224 84.864,122.96 84.864,121.392 C84.864,119.728 83.552,119.136 82.368,118.688 C81.424,118.336 80.544,118.096 80.544,117.44 C80.544,116.928 80.928,116.576 81.728,116.576 C82.4,116.576 83.024,116.896 83.664,117.344 L84.72,115.92 C83.968,115.36 82.976,114.816 81.664,114.816 C79.648,114.816 78.336,115.952 78.336,117.568 C78.336,119.056 79.648,119.744 80.784,120.176 C81.728,120.544 82.656,120.848 82.656,121.52 C82.656,122.08 82.256,122.464 81.36,122.464 C80.528,122.464 79.76,122.112 78.96,121.488 L77.888,122.96 C78.768,123.696 80.096,124.224 81.296,124.224 L81.296,124.224 Z" id="devices" fill="#B7A794" sketch:type="MSShapeGroup"></path>
            <path d="M711.088,350.224 C712.112,350.224 713.008,349.712 713.792,349.04 L713.84,349.04 L714.016,350 L715.936,350 L715.936,344.768 C715.936,342.176 714.768,340.816 712.496,340.816 C711.088,340.816 709.808,341.344 708.752,342 L709.6,343.552 C710.432,343.072 711.232,342.704 712.064,342.704 C713.168,342.704 713.552,343.376 713.584,344.256 C709.984,344.64 708.432,345.648 708.432,347.568 C708.432,349.088 709.488,350.224 711.088,350.224 L711.088,350.224 Z M711.856,348.384 C711.168,348.384 710.672,348.08 710.672,347.376 C710.672,346.576 711.408,345.984 713.584,345.696 L713.584,347.504 C713.024,348.064 712.528,348.384 711.856,348.384 L711.856,348.384 Z M718.336,350 L720.672,350 L720.672,343.84 C721.344,343.184 721.808,342.832 722.544,342.832 C723.424,342.832 723.808,343.328 723.808,344.704 L723.808,350 L726.16,350 L726.16,344.416 C726.16,342.16 725.328,340.816 723.392,340.816 C722.176,340.816 721.264,341.456 720.48,342.224 L720.416,342.224 L720.256,341.04 L718.336,341.04 L718.336,350 Z M731.744,350.224 C732.672,350.224 733.568,349.712 734.224,349.072 L734.272,349.072 L734.464,350 L736.368,350 L736.368,337.232 L734.016,337.232 L734.016,340.384 L734.112,341.792 C733.472,341.2 732.848,340.816 731.84,340.816 C729.904,340.816 728.08,342.608 728.08,345.536 C728.08,348.464 729.52,350.224 731.744,350.224 L731.744,350.224 Z M732.352,348.288 C731.168,348.288 730.496,347.36 730.496,345.504 C730.496,343.712 731.344,342.752 732.352,342.752 C732.912,342.752 733.472,342.928 734.016,343.424 L734.016,347.36 C733.504,348.032 732.976,348.288 732.352,348.288 L732.352,348.288 Z M742.528,350 L744.864,350 L744.864,343.84 C745.504,343.168 746.08,342.832 746.592,342.832 C747.44,342.832 747.84,343.328 747.84,344.704 L747.84,350 L750.192,350 L750.192,343.84 C750.832,343.168 751.408,342.832 751.92,342.832 C752.768,342.832 753.168,343.328 753.168,344.704 L753.168,350 L755.52,350 L755.52,344.416 C755.52,342.16 754.64,340.816 752.736,340.816 C751.568,340.816 750.704,341.52 749.888,342.384 C749.456,341.392 748.704,340.816 747.424,340.816 C746.256,340.816 745.424,341.456 744.672,342.24 L744.608,342.24 L744.448,341.04 L742.528,341.04 L742.528,350 Z M761.696,350.224 C763.936,350.224 766,348.496 766,345.536 C766,342.544 763.936,340.816 761.696,340.816 C759.456,340.816 757.392,342.544 757.392,345.536 C757.392,348.496 759.456,350.224 761.696,350.224 L761.696,350.224 Z M761.696,348.304 C760.48,348.304 759.792,347.216 759.792,345.536 C759.792,343.84 760.48,342.736 761.696,342.736 C762.912,342.736 763.6,343.84 763.6,345.536 C763.6,347.216 762.912,348.304 761.696,348.304 L761.696,348.304 Z M767.968,350 L770.304,350 L770.304,344.656 C770.816,343.36 771.664,342.896 772.368,342.896 C772.736,342.896 772.992,342.944 773.296,343.04 L773.712,341.008 C773.44,340.896 773.152,340.816 772.656,340.816 C771.728,340.816 770.768,341.456 770.112,342.624 L770.048,342.624 L769.888,341.04 L767.968,341.04 L767.968,350 Z M778.64,350.224 C779.76,350.224 780.896,349.84 781.776,349.232 L780.976,347.792 C780.336,348.192 779.696,348.416 778.96,348.416 C777.632,348.416 776.672,347.648 776.48,346.176 L782,346.176 C782.064,345.968 782.112,345.536 782.112,345.104 C782.112,342.624 780.832,340.816 778.368,340.816 C776.224,340.816 774.192,342.624 774.192,345.536 C774.192,348.48 776.144,350.224 778.64,350.224 L778.64,350.224 Z M776.448,344.624 C776.624,343.312 777.456,342.64 778.4,342.64 C779.552,342.64 780.096,343.408 780.096,344.624 L776.448,344.624 Z M785.728,350.224 C786.56,350.224 787.184,349.552 787.184,348.688 C787.184,347.824 786.56,347.152 785.728,347.152 C784.896,347.152 784.256,347.824 784.256,348.688 C784.256,349.552 784.896,350.224 785.728,350.224 L785.728,350.224 Z M791.76,350.224 C792.592,350.224 793.232,349.552 793.232,348.688 C793.232,347.824 792.592,347.152 791.76,347.152 C790.928,347.152 790.304,347.824 790.304,348.688 C790.304,349.552 790.928,350.224 791.76,350.224 L791.76,350.224 Z M797.792,350.224 C798.624,350.224 799.264,349.552 799.264,348.688 C799.264,347.824 798.624,347.152 797.792,347.152 C796.96,347.152 796.32,347.824 796.32,348.688 C796.32,349.552 796.96,350.224 797.792,350.224 L797.792,350.224 Z" id="and-more…" fill="#B7A794" sketch:type="MSShapeGroup"></path>
            <g transform="translate(719.000000, 22.000000)" fill="#2B97C5" sketch:type="MSShapeGroup">
                <g id="Shape">
                    <path d="M9.66,8.7739726 L9.66,15.4589041 C9.66,16.3819005 10.4121616,17.130137 11.34,17.130137 C12.2678384,17.130137 13.02,16.3819005 13.02,15.4589041 L13.02,8.7739726 C13.02,7.85097617 12.2678384,7.10273973 11.34,7.10273973 C10.4121616,7.10273973 9.66,7.85097617 9.66,8.7739726 L9.66,8.7739726 Z"></path>
                    <path d="M9.66,35.5136986 L9.66,42.1986301 C9.66,43.1216266 10.4121616,43.869863 11.34,43.869863 C12.2678384,43.869863 13.02,43.1216266 13.02,42.1986301 L13.02,35.5136986 C13.02,34.5907022 12.2678384,33.8424658 11.34,33.8424658 C10.4121616,33.8424658 9.66,34.5907022 9.66,35.5136986 L9.66,35.5136986 Z"></path>
                    <path d="M17.64,8.7739726 L17.64,15.4589041 C17.64,16.3819005 18.3921616,17.130137 19.32,17.130137 C20.2478384,17.130137 21,16.3819005 21,15.4589041 L21,8.7739726 C21,7.85097617 20.2478384,7.10273973 19.32,7.10273973 C18.3921616,7.10273973 17.64,7.85097617 17.64,8.7739726 L17.64,8.7739726 Z"></path>
                    <path d="M17.64,35.5136986 L17.64,42.1986301 C17.64,43.1216266 18.3921616,43.869863 19.32,43.869863 C20.2478384,43.869863 21,43.1216266 21,42.1986301 L21,35.5136986 C21,34.5907022 20.2478384,33.8424658 19.32,33.8424658 C18.3921616,33.8424658 17.64,34.5907022 17.64,35.5136986 L17.64,35.5136986 Z"></path>
                    <path d="M3.36,5.43078505 L3.36,5.43078505 L3.36,18.8020917 C3.36,19.9536249 4.3014722,20.890411 5.46006732,20.890411 L57.5399327,20.890411 C58.7020356,20.890411 59.64,19.9570212 59.64,18.8020917 L59.64,5.43078505 C59.64,4.27925181 58.6985278,3.34246575 57.5399327,3.34246575 L5.46006732,3.34246575 C4.29796441,3.34246575 3.36,4.27585547 3.36,5.43078505 L3.36,5.43078505 Z M0,5.43078505 C0,2.43144529 2.44069703,0 5.46006732,0 L57.5399327,0 C60.5554446,0 63,2.43449271 63,5.43078505 L63,18.8020917 C63,21.8014314 60.559303,24.2328767 57.5399327,24.2328767 L5.46006732,24.2328767 C2.44455541,24.2328767 0,21.798384 0,18.8020917 L0,5.43078505 L0,5.43078505 Z"></path>
                    <path d="M3.36,32.1705111 L3.36,32.1705111 L3.36,45.5418177 C3.36,46.6933509 4.3014722,47.630137 5.46006732,47.630137 L57.5399327,47.630137 C58.7020356,47.630137 59.64,46.6967473 59.64,45.5418177 L59.64,32.1705111 C59.64,31.0189778 58.6985278,30.0821918 57.5399327,30.0821918 L5.46006732,30.0821918 C4.29796441,30.0821918 3.36,31.0155815 3.36,32.1705111 L3.36,32.1705111 Z M0,32.1705111 C0,29.1711713 2.44069703,26.739726 5.46006732,26.739726 L57.5399327,26.739726 C60.5554446,26.739726 63,29.1742187 63,32.1705111 L63,45.5418177 C63,48.5411575 60.559303,50.9726027 57.5399327,50.9726027 L5.46006732,50.9726027 C2.44455541,50.9726027 0,48.53811 0,45.5418177 L0,32.1705111 L0,32.1705111 Z"></path>
                    <path d="M49.98,17.9657534 C53.2274343,17.9657534 55.86,15.3469259 55.86,12.1164384 C55.86,8.88595085 53.2274343,6.26712329 49.98,6.26712329 C46.7325657,6.26712329 44.1,8.88595085 44.1,12.1164384 C44.1,15.3469259 46.7325657,17.9657534 49.98,17.9657534 L49.98,17.9657534 Z M49.98,14.6232877 C48.5882424,14.6232877 47.46,13.500933 47.46,12.1164384 C47.46,10.7319437 48.5882424,9.60958904 49.98,9.60958904 C51.3717576,9.60958904 52.5,10.7319437 52.5,12.1164384 C52.5,13.500933 51.3717576,14.6232877 49.98,14.6232877 L49.98,14.6232877 Z"></path>
                    <path d="M8.4497055,56.8076279 C9.72484796,61.9058286 16.998746,62.3037981 18.5643987,56.8641314 C18.8197945,55.9767902 18.303728,55.0514993 17.4117319,54.7974362 C16.5197358,54.5433732 15.5895909,55.0567466 15.3341951,55.9440878 C14.7410088,58.0050402 12.1765466,57.8647334 11.7102945,56.0005913 C11.4862684,55.1049032 10.5747517,54.5594658 9.6743649,54.7823228 C8.77397811,55.0051798 8.22567942,55.9119398 8.4497055,56.8076279 L8.4497055,56.8076279 Z"></path>
                    <path d="M44.1497055,56.8076279 C45.424848,61.9058286 52.698746,62.3037981 54.2643987,56.8641314 C54.5197945,55.9767902 54.003728,55.0514993 53.1117319,54.7974362 C52.2197358,54.5433732 51.2895909,55.0567466 51.0341951,55.9440878 C50.4410088,58.0050402 47.8765466,57.8647334 47.4102945,56.0005913 C47.1862684,55.1049032 46.2747517,54.5594658 45.3743649,54.7823228 C44.4739781,55.0051798 43.9256794,55.9119398 44.1497055,56.8076279 L44.1497055,56.8076279 Z"></path>
                </g>
                <ellipse id="Oval-11-Copy" cx="49.98" cy="38.8561644" rx="4.2" ry="4.17808219"></ellipse>
            </g>
            <g id="Group-Copy" transform="translate(29.000000, 265.000000)" fill="#80C478" sketch:type="MSShapeGroup">
                <g id="Group">
                    <path d="M9.66,8.7739726 L9.66,15.4589041 C9.66,16.3819005 10.4121616,17.130137 11.34,17.130137 C12.2678384,17.130137 13.02,16.3819005 13.02,15.4589041 L13.02,8.7739726 C13.02,7.85097617 12.2678384,7.10273973 11.34,7.10273973 C10.4121616,7.10273973 9.66,7.85097617 9.66,8.7739726 L9.66,8.7739726 Z" id="Shape"></path>
                    <path d="M9.66,35.5136986 L9.66,42.1986301 C9.66,43.1216266 10.4121616,43.869863 11.34,43.869863 C12.2678384,43.869863 13.02,43.1216266 13.02,42.1986301 L13.02,35.5136986 C13.02,34.5907022 12.2678384,33.8424658 11.34,33.8424658 C10.4121616,33.8424658 9.66,34.5907022 9.66,35.5136986 L9.66,35.5136986 Z" id="Shape"></path>
                    <path d="M17.64,8.7739726 L17.64,15.4589041 C17.64,16.3819005 18.3921616,17.130137 19.32,17.130137 C20.2478384,17.130137 21,16.3819005 21,15.4589041 L21,8.7739726 C21,7.85097617 20.2478384,7.10273973 19.32,7.10273973 C18.3921616,7.10273973 17.64,7.85097617 17.64,8.7739726 L17.64,8.7739726 Z" id="Shape"></path>
                    <path d="M17.64,35.5136986 L17.64,42.1986301 C17.64,43.1216266 18.3921616,43.869863 19.32,43.869863 C20.2478384,43.869863 21,43.1216266 21,42.1986301 L21,35.5136986 C21,34.5907022 20.2478384,33.8424658 19.32,33.8424658 C18.3921616,33.8424658 17.64,34.5907022 17.64,35.5136986 L17.64,35.5136986 Z" id="Shape"></path>
                    <path d="M3.36,5.43078505 L3.36,5.43078505 L3.36,18.8020917 C3.36,19.9536249 4.3014722,20.890411 5.46006732,20.890411 L57.5399327,20.890411 C58.7020356,20.890411 59.64,19.9570212 59.64,18.8020917 L59.64,5.43078505 C59.64,4.27925181 58.6985278,3.34246575 57.5399327,3.34246575 L5.46006732,3.34246575 C4.29796441,3.34246575 3.36,4.27585547 3.36,5.43078505 L3.36,5.43078505 Z M0,5.43078505 C0,2.43144529 2.44069703,0 5.46006732,0 L57.5399327,0 C60.5554446,0 63,2.43449271 63,5.43078505 L63,18.8020917 C63,21.8014314 60.559303,24.2328767 57.5399327,24.2328767 L5.46006732,24.2328767 C2.44455541,24.2328767 0,21.798384 0,18.8020917 L0,5.43078505 L0,5.43078505 Z" id="Shape"></path>
                    <path d="M3.36,32.1705111 L3.36,32.1705111 L3.36,45.5418177 C3.36,46.6933509 4.3014722,47.630137 5.46006732,47.630137 L57.5399327,47.630137 C58.7020356,47.630137 59.64,46.6967473 59.64,45.5418177 L59.64,32.1705111 C59.64,31.0189778 58.6985278,30.0821918 57.5399327,30.0821918 L5.46006732,30.0821918 C4.29796441,30.0821918 3.36,31.0155815 3.36,32.1705111 L3.36,32.1705111 Z M0,32.1705111 C0,29.1711713 2.44069703,26.739726 5.46006732,26.739726 L57.5399327,26.739726 C60.5554446,26.739726 63,29.1742187 63,32.1705111 L63,45.5418177 C63,48.5411575 60.559303,50.9726027 57.5399327,50.9726027 L5.46006732,50.9726027 C2.44455541,50.9726027 0,48.53811 0,45.5418177 L0,32.1705111 L0,32.1705111 Z" id="Shape"></path>
                    <path d="M49.98,17.9657534 C53.2274343,17.9657534 55.86,15.3469259 55.86,12.1164384 C55.86,8.88595085 53.2274343,6.26712329 49.98,6.26712329 C46.7325657,6.26712329 44.1,8.88595085 44.1,12.1164384 C44.1,15.3469259 46.7325657,17.9657534 49.98,17.9657534 L49.98,17.9657534 Z M49.98,14.6232877 C48.5882424,14.6232877 47.46,13.500933 47.46,12.1164384 C47.46,10.7319437 48.5882424,9.60958904 49.98,9.60958904 C51.3717576,9.60958904 52.5,10.7319437 52.5,12.1164384 C52.5,13.500933 51.3717576,14.6232877 49.98,14.6232877 L49.98,14.6232877 Z" id="Shape"></path>
                    <path d="M8.4497055,56.8076279 C9.72484796,61.9058286 16.998746,62.3037981 18.5643987,56.8641314 C18.8197945,55.9767902 18.303728,55.0514993 17.4117319,54.7974362 C16.5197358,54.5433732 15.5895909,55.0567466 15.3341951,55.9440878 C14.7410088,58.0050402 12.1765466,57.8647334 11.7102945,56.0005913 C11.4862684,55.1049032 10.5747517,54.5594658 9.6743649,54.7823228 C8.77397811,55.0051798 8.22567942,55.9119398 8.4497055,56.8076279 L8.4497055,56.8076279 Z" id="Shape"></path>
                    <path d="M44.1497055,56.8076279 C45.424848,61.9058286 52.698746,62.3037981 54.2643987,56.8641314 C54.5197945,55.9767902 54.003728,55.0514993 53.1117319,54.7974362 C52.2197358,54.5433732 51.2895909,55.0567466 51.0341951,55.9440878 C50.4410088,58.0050402 47.8765466,57.8647334 47.4102945,56.0005913 C47.1862684,55.1049032 46.2747517,54.5594658 45.3743649,54.7823228 C44.4739781,55.0051798 43.9256794,55.9119398 44.1497055,56.8076279 L44.1497055,56.8076279 Z" id="Shape"></path>
                </g>
                <ellipse id="Oval-11-Copy" cx="49.98" cy="38.8561644" rx="4.2" ry="4.17808219"></ellipse>
            </g>
            <g id="Oval-13-+-Line-+-Line" transform="translate(723.000000, 280.000000)" stroke="#7058B7" stroke-width="3.4" sketch:type="MSShapeGroup">
                <circle id="Oval-13" cx="21.5" cy="21.5" r="21.5"></circle>
                <path d="M21.2696429,12.2473214 L21.2696429,32.2883929" id="Line" stroke-linecap="round"></path>
                <path d="M30.4507847,22.2678571 L12.088501,22.2678571" id="Line" stroke-linecap="round"></path>
            </g>
            <g transform="translate(20.798913, 0.763353)">
                <path d="M34.0549568,33.731643 C33.0518646,29.5706234 32.5792071,21.7076196 32.9822594,15.0826237 C33.1964217,11.5624233 33.6410134,8.59928878 34.2807887,6.5553025 C34.5900533,5.56724831 34.9315529,4.84153932 35.2616097,4.41922794 C35.3739432,4.27549587 35.4643334,4.19262444 35.5222381,4.15871224 C35.5190782,4.16056283 35.4857683,4.16993321 35.4544741,4.16993321 C35.576243,4.16993321 35.7239114,4.2462711 35.966429,4.51852832 C36.3444123,4.9428631 36.7314407,5.6600442 37.0842255,6.63674191 C37.8183459,8.66918098 38.3356585,11.6208599 38.584677,15.1004163 C39.0656827,21.8215476 38.4741392,29.5848614 37.2027428,33.5944715 L41.0541121,34.8156918 C42.5004618,30.2543311 43.1292738,22.0019108 42.6147195,14.8120016 C42.3414633,10.9937704 41.7642731,7.7004419 40.8842822,5.26415508 C39.7345915,2.08119447 37.9961616,0.129583582 35.4544741,0.129583582 C34.107872,0.129583582 32.9615508,0.800933609 32.0781765,1.93122095 C31.4049097,2.79267348 30.8672029,3.93533555 30.4249092,5.34839797 C29.6711259,7.75662268 29.1816811,11.0186967 28.9493663,14.8372701 C28.5237307,21.8334702 29.0197334,30.0848391 30.1271268,34.6785204 L34.0549568,33.731643 L34.0549568,33.731643 Z" id="Shape" fill="#EFC041" sketch:type="MSShapeGroup"></path>
                <path d="M42.5618888,43.5323523 C46.6669835,44.7441588 53.7128733,48.2663273 59.2487619,51.9278787 C62.1902637,53.873449 64.5341176,55.7400439 65.984374,57.3160986 C66.6854218,58.0779568 67.1431544,58.7365586 67.3438584,59.2335518 C67.4121672,59.4027016 67.4387409,59.5224175 67.4391574,59.5895205 C67.4391347,59.5858587 67.4476746,59.5523262 67.4633217,59.5252247 C67.4024373,59.6306797 67.2624925,59.7203953 66.905452,59.7942931 C66.3489757,59.9094688 65.5343645,59.8860547 64.512127,59.7032265 C62.3849229,59.3227739 59.5700377,58.2949402 56.4321442,56.7708184 C50.370971,53.8268159 43.9435157,49.4328673 41.1067898,46.3270007 L38.1234972,49.0517742 C41.3505767,52.5850301 48.1829763,57.2558074 54.6668975,60.4051449 C58.1102108,62.0776137 61.250912,63.2244166 63.8007937,63.6804655 C67.1321638,64.2762845 69.6915234,63.7465654 70.9623671,61.5453995 C71.6356682,60.3792078 71.6274226,59.0507896 71.0902522,57.7206214 C70.6808458,56.7068289 69.9601248,55.6698302 68.9575238,54.5802613 C67.2488316,52.7233535 64.668515,50.6684448 61.4776909,48.5579676 C55.6316217,44.6912563 48.2377252,40.9951229 43.7057839,39.657313 L42.5618888,43.5323523 L42.5618888,43.5323523 Z" id="Shape" fill="#EFC041" sketch:type="MSShapeGroup"></path>
                <path d="M27.8254495,39.3560764 C23.2935082,40.6938862 15.8996117,44.3900197 10.0535425,48.256731 C6.86271838,50.3672082 4.28240181,52.4221169 2.57370964,54.2790247 C1.57110857,55.3685935 0.850387578,56.4055923 0.440981218,57.4193847 C-0.096189216,58.7495529 -0.104434805,60.0779712 0.568866274,61.2441629 C1.83971,63.4453288 4.39906957,63.9750478 7.73043967,63.3792289 C10.2803214,62.9231799 13.4210226,61.7763771 16.8643359,60.1039083 C23.3482571,56.9545707 30.1806567,52.2837934 33.4077362,48.7505376 L30.4244437,46.025764 C27.5877177,49.1316307 21.1602624,53.5255793 15.0990892,56.4695818 C11.9611957,57.9937036 9.14631048,59.0215372 7.0191064,59.4019899 C5.99686895,59.5848181 5.18225771,59.6082322 4.62578137,59.4930565 C4.26874087,59.4191586 4.12879614,59.329443 4.0679117,59.2239881 C4.08355877,59.2510896 4.09209875,59.2846221 4.09207602,59.2882839 C4.09249253,59.2211809 4.11906619,59.1014649 4.18737503,58.9323152 C4.38807903,58.4353219 4.84581165,57.7767201 5.54685937,57.014862 C6.99711578,55.4388072 9.34096969,53.5722123 12.2824715,51.6266421 C17.8183601,47.9650906 24.8642499,44.4429222 28.9693447,43.2311157 L27.8254495,39.3560764 L27.8254495,39.3560764 Z" id="Shape" fill="#EFC041" sketch:type="MSShapeGroup"></path>
                <path d="M35.8315217,50.0790704 C40.7641421,50.0790704 44.7628209,46.0803916 44.7628209,41.1477713 C44.7628209,36.2151509 40.7641421,32.2164721 35.8315217,32.2164721 C30.8989014,32.2164721 26.9002226,36.2151509 26.9002226,41.1477713 C26.9002226,46.0803916 30.8989014,50.0790704 35.8315217,50.0790704 L35.8315217,50.0790704 Z M35.8315217,46.0387208 C33.1303249,46.0387208 30.9405722,43.8489681 30.9405722,41.1477713 C30.9405722,38.4465744 33.1303249,36.2568217 35.8315217,36.2568217 C38.5327186,36.2568217 40.7224713,38.4465744 40.7224713,41.1477713 C40.7224713,43.8489681 38.5327186,46.0387208 35.8315217,46.0387208 L35.8315217,46.0387208 Z" id="Shape" fill="#EFC041" sketch:type="MSShapeGroup"></path>
                <path d="M13.0717438,41.2383136 C13.0717438,34.4619334 17.4836282,26.5990014 22.7093234,23.0465848 C23.6320217,22.4193364 23.8715312,21.1628564 23.2442828,20.2401581 C22.6170344,19.3174597 21.3605544,19.0779503 20.4378561,19.7051986 C14.134739,23.9900444 9.0313942,33.0853085 9.0313942,41.2383136 C9.0313942,42.3540254 9.93585727,43.2584884 11.051569,43.2584884 C12.1672808,43.2584884 13.0717438,42.3540254 13.0717438,41.2383136 L13.0717438,41.2383136 Z" id="Shape" fill="#EFC041" sketch:type="MSShapeGroup"></path>
                <path d="M48.6734245,23.0578134 C54.2243102,26.9445854 58.1346941,35.0685819 58.0473278,41.3868033 C58.0319016,42.5024084 58.9237728,43.4192905 60.0393779,43.4347167 C61.154983,43.4501429 62.071865,42.5582717 62.0872912,41.4426666 C62.1926705,33.8217688 57.6694247,24.4245243 50.9908738,19.7481527 C50.0769363,19.1082067 48.8172648,19.3303208 48.1773188,20.2442584 C47.5373729,21.1581959 47.7594869,22.4178674 48.6734245,23.0578134 L48.6734245,23.0578134 Z" id="Shape" fill="#EFC041" sketch:type="MSShapeGroup"></path>
                <path d="M46.0773822,61.8260731 C40.1506265,65.1113274 31.1346273,65.0646315 25.4941463,62.2163813 C24.4982095,61.7134672 23.2831508,62.1131411 22.7802367,63.1090779 C22.2773226,64.1050147 22.6769965,65.3200734 23.6729333,65.8229875 C30.4763557,69.2584834 40.9054035,69.3124979 48.0361825,65.3598425 C49.012006,64.8189347 49.3645748,63.5893811 48.8236671,62.6135576 C48.2827593,61.6377342 47.0532056,61.2851653 46.0773822,61.8260731 L46.0773822,61.8260731 Z" id="Shape" fill="#EFC041" sketch:type="MSShapeGroup"></path>
                <g id="Shape-+-Path-62" transform="translate(32.110147, 49.334796)">
                    <mask id="mask-2" sketch:name="Mask" fill="white">
                        <use xlink:href="#path-1"></use>
                    </mask>
                    <use id="Mask" sketch:type="MSShapeGroup" xlink:href="#path-1"></use>
                    <path d="M1.48854986,-0.975761799 L1.48854986,47.8488002 C1.48854986,49.0408149 2.39301294,50.0071336 3.50872468,50.0071336 C4.62443642,50.0071336 5.5288995,49.0408149 5.5288995,47.8488002 L5.5288995,-0.975761799 C5.5288995,-2.16777643 4.62443642,-3.13409522 3.50872468,-3.13409522 C2.39301294,-3.13409522 1.48854986,-2.16777643 1.48854986,-0.975761799 L1.48854986,-0.975761799 Z" id="Shape" fill="#EFC041" sketch:type="MSShapeGroup" mask="url(#mask-2)"></path>
                    <mask id="mask-4" sketch:name="Mask" fill="white">
                        <use xlink:href="#path-3"></use>
                    </mask>
                    <use id="Mask" sketch:type="MSShapeGroup" xlink:href="#path-3"></use>
                    <path d="M1.48854986,-0.975761799 L1.48854986,47.8488002 C1.48854986,49.0408149 2.39301294,50.0071336 3.50872468,50.0071336 C4.62443642,50.0071336 5.5288995,49.0408149 5.5288995,47.8488002 L5.5288995,-0.975761799 C5.5288995,-2.16777643 4.62443642,-3.13409522 3.50872468,-3.13409522 C2.39301294,-3.13409522 1.48854986,-2.16777643 1.48854986,-0.975761799 L1.48854986,-0.975761799 Z" id="Shape" fill="#EFC041" sketch:type="MSShapeGroup" mask="url(#mask-4)"></path>
                </g>
            </g>
        </g>
    </g>
</svg>